<?xml version="1.0" encoding="utf-8"?>
<!-- Generator: Adobe Illustrator 24.0.1, SVG Export Plug-In . SVG Version: 6.00 Build 0)  -->
<svg version="1.1" id="Слой_1" xmlns="http://www.w3.org/2000/svg" xmlns:xlink="http://www.w3.org/1999/xlink" x="0px" y="0px"
	 viewBox="0 0 305.7 142.4" style="enable-background:new 0 0 305.7 142.4;" xml:space="preserve">
<style type="text/css">
	.st0{fill:#FFFFFF;}
</style>
<path class="st0" d="M218.1,71.2c0,23.2,0,46.3,0,69.5c0,1.3-0.3,1.7-1.7,1.7c-13.3,0-26.6,0-39.9,0c-1.6,0-1.9-0.3-1.9-1.9
	c0-35,0-69.9,0-104.9c0-0.3,0-0.7,0-1c0.1-1.1-0.5-1.4-1.5-1.4c-12.5,0-25.1,0-37.6,0c-1.2,0-1.5,0.4-1.5,1.5c0,22.9,0,45.9,0,68.8
	c0,0.3,0,0.6,0,0.8c0,0.6-0.3,0.9-0.9,1c-0.3,0-0.6,0-0.9,0c-13.3,0-26.6,0-40,0c-0.3,0-0.6,0-0.8,0c-0.6,0-0.9-0.4-0.9-1
	c0-0.2,0-0.4,0-0.6c0-34,0-68.1,0-102.1c0-0.2,0-0.4,0-0.6c0.1-0.6,0.4-1,1-1c0.3,0,0.5,0,0.8,0c41.4,0,82.8,0,124.2,0
	c0.3,0,0.5,0,0.8,0c0.6,0,0.9,0.4,0.9,0.9c0,0.3,0,0.6,0,0.9C218.1,25,218.1,48.1,218.1,71.2z"/>
<path class="st0" d="M100.3,142.3c-18.8-0.1-34.6-0.2-50.3-0.2c-2.9,0-5.8-0.3-8.7-0.8c-4-0.7-7.8-1.9-11.4-3.7
	c-5.1-2.5-9.4-6.1-13.1-10.4c-3.8-4.5-6.8-9.6-9-15.1c-1.1-2.8-2.1-5.5-3-8.4c-0.6-2-1-4-1.5-6c-0.4-1.6-0.7-3.1-1.1-4.7
	c-0.3-1.4-0.4-2.8-0.6-4.2c-0.3-1.7-0.5-3.5-0.8-5.2c-0.1-1.1-0.3-2.2-0.3-3.2c-0.1-2.1-0.3-4.3-0.4-6.4c0-4.8-0.1-9.6-0.1-14.5
	c0-2.5,0.2-5,0.3-7.6c0.2-2.7,0.3-5.3,0.5-8c0.2-2.5,0.5-5,0.8-7.6c0.1-1.4,0.2-2.8,0.4-4.2c0.2-2.2,0.5-4.4,0.8-6.6
	c0.1-0.9,0.2-1.7,0.3-2.6c0.2-1.9,0.4-3.7,0.6-5.6c0.3-2.3,0.7-4.5,1-6.8C4.9,9,5.1,7.5,5.3,6c0.3-1.7,0.5-3.3,0.9-5
	c0.1-0.3,0.6-0.6,1-0.9c0.2-0.1,0.5,0,0.8,0c12.3,0,24.5,0,36.8,0c0.2,0,0.3,0,0.5,0c0.9,0,1.4,0.6,1.3,1.5c-0.3,2.6-0.7,5.2-1,7.8
	c-0.2,1.9-0.5,3.9-0.7,5.8c-0.3,2.8-0.7,5.7-1,8.5c-0.2,2-0.5,4-0.7,6c-0.3,3-0.7,6-1,9c-0.3,2.5-0.5,5.1-0.6,7.6
	C41.1,53.7,41,61,41.3,68.4c0.2,4.9,0.7,9.7,1.7,14.5c1.1,5.1,2.8,10,5.6,14.4c3,4.8,7,8.7,12.1,11.1c1.6,0.7,3.3,1.2,5,1.6
	c6.3,1.4,12.7,1.4,19.2,1.4c21,0,42,0,63.1-0.1c1.3,0,1.8-0.2,1.8,1.8c0,8.9,0,17.8,0,26.6c0,1.8-0.7,2.4-2.4,2.4
	C130.6,142.3,113.9,142.3,100.3,142.3z"/>
<path class="st0" d="M278.8,0.1c7.5,0,15.1,0,22.6,0c0.2,0,0.5,0,0.7,0c0.5,0.1,0.7,0.3,0.5,0.8c-0.8,2.1-1.6,4.3-2.5,6.4
	c-2.2,5-5,9.6-8.2,14c-3.9,5.3-8.4,10-13.3,14.4c-5.1,4.5-10.5,8.6-16.1,12.4c-0.1,0.1-0.3,0.2-0.4,0.3c-1.1,0.8-1.2,1.5-0.4,2.5
	c2.3,2.8,4.7,5.6,7,8.5c3.7,4.7,7.4,9.5,11,14.3c4.1,5.4,7.7,11.1,10.9,17c2.3,4.2,4.5,8.6,6.1,13.1c1.2,3.3,2.5,6.7,3.6,10.1
	c0.8,2.5,1.4,5.1,2.1,7.7c0.5,2.1,1,4.3,1.4,6.4c0.4,2.3,0.8,4.6,1.1,6.9c0.3,2,0.5,4,0.8,5.9c0.1,0.7-0.4,1.3-1.1,1.4
	c-0.2,0-0.3,0-0.5,0c-12.9,0-25.8,0-38.8,0c-0.4,0-0.8-0.1-1.1-0.3c-0.3-0.2-0.6-0.5-0.6-0.8c-0.3-1.9-0.6-3.9-0.9-5.8
	c-0.4-2.3-0.8-4.7-1.3-7c-0.5-2.2-1-4.5-1.5-6.7c-0.9-3.7-2.1-7.3-3.6-10.8c-3.9-9.5-9.4-18-15.8-26c-4-4.9-8.1-9.7-12.6-14.2
	c-1-1.1-1.6-2.4-1.6-3.9c0-12.9,0-25.9,0-38.8c0-1.2,0.7-1.9,1.6-2.4c2-1.2,4.1-2.4,6.1-3.7c7.1-4.6,13.2-10.4,17.9-17.5
	c0.6-0.9,1.2-1.8,1.7-2.8c0.5-1.1,1.3-1.5,2.5-1.5C263.8,0.1,271.3,0.1,278.8,0.1z"/>
</svg>
