<?xml version="1.0" encoding="utf-8"?>
<!-- Generator: Adobe Illustrator 24.0.1, SVG Export Plug-In . SVG Version: 6.00 Build 0)  -->
<svg version="1.1" id="Слой_1" xmlns="http://www.w3.org/2000/svg" xmlns:xlink="http://www.w3.org/1999/xlink" x="0px" y="0px"
	 viewBox="0 0 310.9 310.8" style="enable-background:new 0 0 310.9 310.8;" xml:space="preserve">
<style type="text/css">
	.st0{fill:#FFFFFF;}
</style>
<path class="st0" d="M29.4,58.7c-7.7,0-15.4,0-23.1,0c-3.9,0-6.3-2.4-6.3-6.3c0-15.3,0-30.6,0-45.9c0-4,2.4-6.5,6.4-6.5
	c15.4,0,30.7,0,46.1,0c3.8,0,6.2,2.4,6.2,6.2c0,15.5,0,31,0,46.5c0,3.7-2.4,6-6.1,6C44.9,58.7,37.1,58.7,29.4,58.7z M8.5,29.5
	c0,5.8,0,11.6,0,17.4c0,2.5,1,3.5,3.5,3.5c11.7,0,23.3,0,35,0c2.5,0,3.5-1,3.5-3.5c0-11.7,0-23.3,0-35c0-2.5-1-3.5-3.5-3.5
	c-11.7,0-23.4,0-35.2,0c-2.2,0-3.3,1.2-3.3,3.3C8.5,17.7,8.5,23.6,8.5,29.5z"/>
<path class="st0" d="M29.6,252.1c7.6,0,15.2,0,22.9,0c4,0,6.3,2.3,6.3,6.2c0,15.4,0,30.7,0,46.1c0,4-2.4,6.4-6.4,6.4
	c-15.2,0-30.5-0.1-45.7,0.1c-3.6,0-6.6-2.7-6.6-6.7c0.1-15.2,0.1-30.5,0.1-45.7c0-3.9,2.4-6.3,6.3-6.3
	C14.1,252.1,21.8,252.1,29.6,252.1z M8.5,281.3c0,5.9,0,11.7,0,17.6c0,2.5,1.1,3.5,3.6,3.5c11.7,0,23.3,0,35,0c2.5,0,3.5-1,3.5-3.5
	c0-11.7,0-23.3,0-35c0-2.5-1-3.5-3.5-3.5c-11.7,0-23.3,0-35,0c-2.5,0-3.5,1-3.5,3.5C8.4,269.7,8.5,275.5,8.5,281.3z"/>
<path class="st0" d="M281.3,58.7c-7.7,0-15.4,0-23.1,0c-3.7,0-6.1-2.3-6.1-6c0-15.5,0-31,0-46.5c0-3.8,2.5-6.2,6.2-6.2
	c15.4,0,30.7,0,46.1,0c3.9,0,6.4,2.4,6.4,6.3c0,15.4,0,30.9,0,46.3c0,3.6-2.4,6.1-6.1,6.1C297,58.7,289.2,58.7,281.3,58.7z
	 M281.4,50.4c5.8,0,11.6,0,17.4,0c2.7,0,3.7-1,3.7-3.6c0-11.7,0-23.3,0-35c0-2.3-1.1-3.5-3.4-3.5c-11.7,0-23.4,0-35.2,0
	c-2.4,0-3.4,1.1-3.4,3.4c0,11.7,0,23.4,0,35.2c0,2.4,1,3.4,3.4,3.4C269.7,50.4,275.5,50.4,281.4,50.4z"/>
<path class="st0" d="M168.1,215.1c0,3.3-0.1,3.4-3.4,3.4c-3.3,0-3.4-0.2-3.4-3.6c0-3.1,0.2-3.2,3.6-3.2
	C168,211.7,168.1,211.8,168.1,215.1z"/>
<path class="st0" d="M265.4,235.3c-3.3,0-3.4-0.2-3.4-4c0-2.6,0.4-2.9,3.8-2.9c2.8,0,3.1,0.4,3.1,3.8
	C268.9,235,268.6,235.3,265.4,235.3z"/>
<path class="st0" d="M231.9,168.1c-3.2,0-3.3-0.2-3.5-3.4c-0.2-3.1,0.9-3.6,3.6-3.5c3.2,0.1,3.3,0.1,3.3,3.9
	C235.3,167.9,235.1,168.1,231.9,168.1z"/>
<path class="st0" d="M201.7,248.7c0,3.3-0.1,3.4-3.6,3.4c-2.9,0-3.1-0.2-3.1-3.5c0-3.3,0.1-3.4,3.6-3.4
	C201.5,245.2,201.7,245.4,201.7,248.7z"/>
<path class="st0" d="M252.1,198.2c0,3.3-0.2,3.5-3.4,3.5c-3.3,0-3.5-0.2-3.5-3.3c0-3.3,0.2-3.5,3.4-3.5
	C252,194.9,252.1,195,252.1,198.2z"/>
<path class="st0" d="M299,285.6c-3.2,0-3.3-0.2-3.3-3.5c0-3.2,0.2-3.3,3.7-3.3c3,0,3.1,0.2,3.1,3.7
	C302.4,285.4,302.3,285.6,299,285.6z"/>
<path class="st0" d="M245.2,298.8c0-3,0.2-3.2,3.9-3.2c2.9,0,3,0.2,3,3.6c0,3-0.2,3.2-3.7,3.2C245.3,302.4,245.2,302.3,245.2,298.8z
	"/>
<path class="st0" d="M201.7,231.9c0,3.3-0.1,3.4-3.8,3.4c-2.8,0-3-0.2-3-3.9c0-2.8,0.3-3.1,3.8-3.1
	C201.4,228.4,201.7,228.7,201.7,231.9z"/>
<path class="st0" d="M282.3,218.5c-3.3,0-3.4-0.1-3.4-3.6c0-3.1,0.1-3.2,3.8-3.2c2.9,0,3,0.2,3,3.6
	C285.6,218.3,285.4,218.5,282.3,218.5z"/>
<path class="st0" d="M21.7,218.5c-3.1,0-3.3-0.1-3.3-3.3c0-3.3,0.1-3.4,3.1-3.4c3.6,0,3.7,0.1,3.7,3.5
	C25.3,218.3,25.1,218.5,21.7,218.5z"/>
<path class="st0" d="M248.7,184.9c-3.3,0-3.5-0.2-3.5-3.6c0-3,0.2-3.2,3.6-3.2c3.1,0,3.4,0.2,3.4,3.5
	C252.1,184.7,251.9,184.9,248.7,184.9z"/>
<path class="st0" d="M265.4,194.9c3.4,0,3.6,0.1,3.5,3.7c0,2.9-0.3,3.1-3.8,3.1c-3,0-3.1-0.2-3.1-3.9
	C262.1,195.1,262.4,194.9,265.4,194.9z"/>
<path class="st0" d="M299.1,228.4c3.1,0,3.3,0.3,3.3,3.3c0,3.4-0.2,3.6-3.3,3.6c-3.4,0-3.5-0.1-3.5-3.9
	C295.7,228.7,296,228.4,299.1,228.4z"/>
<path class="st0" d="M282.4,295.6c3.2,0,3.3,0.1,3.3,3.7c0,2.9-0.2,3.1-3.5,3.1c-3.2,0-3.3-0.1-3.3-3.7
	C278.9,295.8,279.1,295.6,282.4,295.6z"/>
<path class="st0" d="M299.1,302.4c-3.3,0-3.4-0.1-3.4-3.6c0-3.1,0.1-3.2,3.8-3.2c2.9,0,3,0.2,3,3.6
	C302.4,302.3,302.3,302.4,299.1,302.4z"/>
<path class="st0" d="M299.1,262c3.1,0,3.3,0.2,3.3,3.1c0,3.6-0.2,3.8-3.2,3.8c-3.2,0-3.5-0.3-3.5-3.1
	C295.7,262.1,295.7,262,299.1,262z"/>
<path class="st0" d="M168.1,231.8c0.2,2.9-0.4,3.6-3.5,3.5c-3-0.1-3.2-0.3-3.3-3.4c-0.1-2.7,0.4-3.8,3.5-3.6
	C167.9,228.5,168.1,228.6,168.1,231.8z"/>
<path class="st0" d="M282.3,235.3c-3.3,0-3.4-0.2-3.5-3.4c-0.1-2.9,0.3-3.7,3.7-3.6c2.7,0.1,3.1,0.4,3.1,3.2
	C285.6,235.2,285.5,235.3,282.3,235.3z"/>
<path class="st0" d="M215,252.1c-2.6,0.2-3.4-0.4-3.2-3.6c0.1-3.2,0.1-3.3,3.8-3.3c2.8,0,3,0.2,3,3.8
	C218.5,251.9,218.3,252.1,215,252.1z"/>
<path class="st0" d="M218.5,198.3c0,3.1-0.2,3.3-3.5,3.3c-3.2,0-3.3-0.1-3.3-3.7c0-2.9,0.2-3.1,3.5-3.1
	C218.4,194.9,218.5,195,218.5,198.3z"/>
<path class="st0" d="M21.7,201.7c-3.2,0-3.2-0.1-3.3-3.7c0-2.5,0.1-3.2,4-3.1c2.7,0.1,2.9,0.3,2.9,3.6
	C25.3,201.5,25.1,201.7,21.7,201.7z"/>
<path class="st0" d="M282.2,262c3.4,0,3.4,0.1,3.4,4c0,2.7-0.3,2.9-3.7,2.9c-2.9,0-3.1-0.3-3.1-3.8C278.9,262.3,279.2,262,282.2,262
	z"/>
<path class="st0" d="M164.8,278.8c3.3,0,3.3,0.1,3.3,3.7c0,3-0.1,3.1-3.7,3.1c-3,0-3.2-0.2-3.2-3.5
	C161.3,279,161.5,278.8,164.8,278.8z"/>
<path class="st0" d="M181.4,302.4c-3,0-3.3-0.3-3.3-2.9c0-3.7,0.1-3.8,3.2-3.8c3.4,0,3.7,0.2,3.7,3.2
	C184.9,302.3,184.8,302.4,181.4,302.4z"/>
<path class="st0" d="M184.9,248.6c0,3.3-0.2,3.5-3.6,3.5c-3,0-3.3-0.2-3.3-3.6c0-3.1,0.2-3.4,3.5-3.4
	C184.7,245.2,184.9,245.4,184.9,248.6z"/>
<path class="st0" d="M226.8,248.8c0.2,2.7-0.3,3.4-3.3,3.4c-3,0-3.5-0.3-3.4-3.8c0.1-3.1,0-3.1,3.7-3.2
	C226.2,245.1,227,245.4,226.8,248.8z"/>
<path class="st0" d="M270.6,248.5c-0.1-2.7,0.2-3.5,3.4-3.4c2.7,0,3.4,0.2,3.3,3.8c-0.1,3.2,0,3.1-3.6,3.2
	C271.2,252.2,270.4,251.8,270.6,248.5z"/>
<path class="st0" d="M265.4,278.8c2.8-0.2,3.7,0.3,3.5,3.7c-0.1,2.9-0.2,3-4,3c-2.7,0-2.9-0.3-2.9-3.5
	C262,279,262.3,278.8,265.4,278.8z"/>
<path class="st0" d="M248.7,285.6c-3.4,0-3.5-0.1-3.5-3.5c0-3,0.2-3.2,3.4-3.2c3.3,0,3.5,0.2,3.5,3.6
	C252.1,285.4,251.9,285.6,248.7,285.6z"/>
<path class="st0" d="M231.8,184.9c-3.2,0-3.4-0.2-3.4-3.7c0-2.9,0.3-3.1,3.3-3.1c3.4,0,3.6,0.2,3.6,3.5
	C235.3,184.7,235.1,184.9,231.8,184.9z"/>
<path class="st0" d="M235.3,282.2c0,3.2-0.2,3.4-3.1,3.4c-3.7,0-3.8-0.1-3.8-3.6c0-3,0.2-3.2,3.9-3.2
	C235.1,278.8,235.3,279.1,235.3,282.2z"/>
<path class="st0" d="M252.1,206.7c0.2,2.8-0.3,3.3-3.8,3.2c-3.1-0.1-3.1,0-3.1-3.6c0-3,0.1-3,3.8-3
	C251.4,203.2,252.4,203.5,252.1,206.7z"/>
<path class="st0" d="M265.4,184.9c-3.2,0-3.4-0.2-3.4-3.7c0-2.9,0.3-3.1,3.5-3.1c3.2,0,3.4,0.2,3.4,3.5
	C269,184.6,268.7,184.9,265.4,184.9z"/>
<path class="st0" d="M228.4,21.7c-0.3-2.7,0.5-3.4,3.5-3.3c3.2,0.1,3.3,0.2,3.4,3.2c0.2,3.5-1,3.6-3.4,3.7
	C229.4,25.3,228.1,25,228.4,21.7z"/>
<path class="st0" d="M248.6,294c-2.8,0.2-3.4-0.3-3.4-3.5c0-2.8,0.3-3.3,3.8-3.2c3.1,0.1,3.1,0,3.1,3.7
	C252.1,293.9,252,294,248.6,294z"/>
<path class="st0" d="M248.6,125.9c-2.7,0.1-3.6,0-3.4-3.6c0.1-3,0.1-3,3.7-3.1c2.4,0,3.3,0,3.2,3.6
	C252.1,125.3,251.8,126.1,248.6,125.9z"/>
<path class="st0" d="M184.9,21.7c0,3.3-0.2,3.5-3.3,3.5c-3.3,0-3.4-0.2-3.5-3.1c-0.1-3.4,0.5-3.8,3.3-3.7
	C184.8,18.5,184.9,18.5,184.9,21.7z"/>
<path class="st0" d="M248.6,168.1c-2.9,0.2-3.4-0.6-3.4-3.3c0-3.1,0.5-3.7,3.9-3.6c2.8,0.1,3,0.3,3,3.8
	C252.1,167.9,252,168.1,248.6,168.1z"/>
<path class="st0" d="M181.7,228.4c3.1,0,3.3,0.2,3.3,3.8c0,2.9-0.3,3.1-3.7,3.1c-2.8,0-3-0.3-3.1-3.4
	C178,229.3,178.4,228,181.7,228.4z"/>
<path class="st0" d="M223.6,228.4c3,0,3.2,0.2,3.2,3.2c0,3.7,0,3.7-3.5,3.7c-3.2,0-3.2-0.1-3.2-3.8
	C220.1,228.5,220.3,228.4,223.6,228.4z"/>
<path class="st0" d="M84.1,248.7c0.2,2.8-0.3,3.4-3.4,3.4c-2.9,0-3.4-0.6-3.3-3.6c0-2.7,0-3.6,3.8-3.4
	C84,245.3,84.1,245.4,84.1,248.7z"/>
<path class="st0" d="M277.2,231.9c0,3.3-0.1,3.3-3.4,3.4c-2.9,0.1-3.3-0.4-3.3-3.5c0-2.6,0.1-3.5,3.6-3.5
	C276.6,228.4,277.4,228.8,277.2,231.9z"/>
<path class="st0" d="M1.6,214.8c0-2.9,0.2-3.1,3.5-3.1c3.2,0,3.3,0.1,3.3,3.9c0,2.7-0.3,2.9-3.7,2.9C1.8,218.5,1.6,218.3,1.6,214.8z
	"/>
<path class="st0" d="M18.5,164.6c-0.2-2.9,0.3-3.4,3.7-3.4c2.3,0,3.3,0.3,3.2,3.7c-0.1,3-0.2,3.1-3.5,3.1
	C18.9,168.2,18.3,167.8,18.5,164.6z"/>
<path class="st0" d="M260.4,231.9c0,3.3-0.1,3.4-3,3.4c-3.6,0-3.7-0.1-3.7-3.1c0-3.7,0.1-3.8,3.2-3.8
	C260.3,228.4,260.4,228.5,260.4,231.9z"/>
<path class="st0" d="M248.6,277.2c-2.7,0.1-3.4-0.1-3.4-3.7c0.1-2.3,0.2-3.2,3.8-3c3.1,0.1,3,0.1,3.1,3.5
	C252.3,276.7,251.8,277.4,248.6,277.2z"/>
<path class="st0" d="M223.4,268.9c-2.8,0.3-3.3-0.5-3.3-3.6c0-2.7,0.2-3.4,3.7-3.4c2.4,0,3.1,0.3,3.1,3.6
	C226.8,268.1,226.7,269.2,223.4,268.9z"/>
<path class="st0" d="M273.8,268.9c-2.8,0.2-3.4-0.4-3.3-3.7c0.1-3.1,0.1-3.1,3.4-3.2c2.7-0.1,3.4,0.2,3.3,3.7
	C277.2,268.8,277.1,268.9,273.8,268.9z"/>
<path class="st0" d="M215,33.6c-3.3,0-3.3,0-3.3-3.7c0-3,0-3,3.6-3c3.2,0,3.2,0,3.2,3.8C218.5,33.5,218.4,33.6,215,33.6z"/>
<path class="st0" d="M302.4,307.5c0.2,2.9-0.2,3.4-3.4,3.3c-3.3-0.1-3.3-0.1-3.3-3.2c0-3.5,0-3.5,3.6-3.5
	C302.4,304.1,302.4,304.2,302.4,307.5z"/>
<path class="st0" d="M295.7,164.6c0-3.1,0.2-3.3,3.5-3.3c3.1,0,3.3,0.2,3.3,3.5c0,3.2-0.1,3.3-3.7,3.3
	C295.8,168.1,295.7,167.9,295.7,164.6z"/>
<path class="st0" d="M201.7,223.5c0,3.3,0,3.3-3.4,3.3c-3.4,0-3.3,0-3.4-3.6c0-2.5,0-3.3,3.6-3.1
	C201.6,220.2,201.7,220.2,201.7,223.5z"/>
<path class="st0" d="M176.4,232c0,3.2-0.1,3.2-3.3,3.3c-2.8,0.1-3.5-0.2-3.4-3.8c0.1-2.9,0.2-3.1,3.7-3.1
	C176.2,228.4,176.4,228.6,176.4,232z"/>
<path class="st0" d="M248.6,176.3c-2.6,0.1-3.5-0.1-3.4-3.5c0.1-3.2,0.1-3.2,3.8-3.2c3.1,0,3.1,0,3.1,3.7
	C252.1,176.2,252,176.3,248.6,176.3z"/>
<path class="st0" d="M206.6,262c3.3,0,3.3,0.1,3.4,3.2c0.1,3.3-0.2,3.9-3.7,3.7c-2.8-0.1-2.9-0.2-3-3.4
	C203.2,262.4,203.7,261.8,206.6,262z"/>
<path class="st0" d="M198.2,277.2c-2.9,0.1-3.4-0.3-3.3-3.4c0.1-3.2,0-3.2,3.7-3.2c3.1,0,3.1,0,3.1,3.6
	C201.7,277.1,201.6,277.2,198.2,277.2z"/>
<path class="st0" d="M265.5,270.5c2.7-0.2,3.6,0.3,3.5,3.2c-0.1,3.3-0.2,3.4-3.1,3.5c-3.6,0.1-3.8-0.5-3.8-3.4
	C262,270.9,262.4,270.3,265.5,270.5z"/>
<path class="st0" d="M294,232c0.2,2.6-0.2,3.4-3.5,3.3c-3.1-0.1-3.1-0.1-3.2-3.6c0-2.5,0-3.5,3.7-3.3C293.9,228.5,294,228.6,294,232
	z"/>
<path class="st0" d="M248.7,304.1c3.4,0,3.4,0.1,3.5,3.3c0.1,2.9-0.3,3.4-3.7,3.3c-3.2-0.1-3.2-0.1-3.2-3.8
	C245.2,304.3,245.4,304.1,248.7,304.1z"/>
<path class="st0" d="M201.7,307.6c0,3.1-0.1,3.2-3.6,3.2c-3.1,0-3.2-0.1-3.2-3.1c0-3.6,0-3.6,3.6-3.6
	C201.6,304.1,201.7,304.2,201.7,307.6z"/>
<path class="st0" d="M13.6,211.7c3.3,0,3.3,0,3.3,3.7c0,3-0.1,3.1-3.7,3.1c-2.9,0-3-0.1-3-3.8C10.2,211.8,10.3,211.7,13.6,211.7z"/>
<path class="st0" d="M248.7,68.8c3.2,0,3.4,0.2,3.5,2.9c0.2,3.8-0.7,3.8-3.5,3.8c-2.8,0-3.6,0-3.5-3.7
	C245.3,69,245.5,68.8,248.7,68.8z"/>
<path class="st0" d="M307.6,245.2c2.7-0.2,3.3,0.2,3.2,3.8c-0.1,2.4,0,3.3-3.9,3.2c-2.7-0.1-2.8-0.2-2.8-3.8
	C304.2,245.2,304.2,245.2,307.6,245.2z"/>
<path class="st0" d="M285.6,206.7c0,3.1-0.1,3.2-3.2,3.2c-3.6,0-3.6,0-3.6-3.7c0-2.2,0-3.1,3.7-2.9
	C285.6,203.4,285.6,203.3,285.6,206.7z"/>
<path class="st0" d="M243.6,248.7c0.2,2.8-0.2,3.4-3.4,3.4c-2.7,0-3.4-0.2-3.3-3.8c0.1-3.2,0-3.1,3.7-3.2
	C243,245.1,243.8,245.4,243.6,248.7z"/>
<path class="st0" d="M310.8,198.4c0,3.3,0,3.3-3.5,3.3c-3.1,0-3.2-0.1-3.2-3.6c0-3.2,0-3.2,3.6-3.2
	C310.8,194.9,310.9,194.9,310.8,198.4z"/>
<path class="st0" d="M252.1,147.9c0.2,2.7-0.3,3.5-3.7,3.4c-3.1-0.1-3.3-0.1-3.2-3.8c0-2.9,0.1-2.9,3.9-2.9
	C252,144.6,252.1,144.8,252.1,147.9z"/>
<path class="st0" d="M248.7,236.9c2.9-0.1,3.6,0.2,3.5,3.5c0,2.6-0.3,3.2-3.7,3.2c-2.6,0-3.4-0.2-3.3-3.5
	C245.3,237,245.4,236.9,248.7,236.9z"/>
<path class="st0" d="M269,240.3c0.2,2.7-0.3,3.4-3.7,3.3c-3.1-0.1-3.1-0.1-3.2-3.6c-0.1-2.4,0.2-3.2,3.6-3.1
	C268.2,236.9,269.2,237.1,269,240.3z"/>
<path class="st0" d="M168.1,248.6c0.2,3.1-0.6,3.5-3.3,3.5c-3.2,0.1-3.6-0.9-3.5-3.6c0.1-3.2,0.2-3.4,3.7-3.4
	C168,245.2,168.1,245.4,168.1,248.6z"/>
<path class="st0" d="M156.4,245.2c2.9-0.2,3.3,0.4,3.3,3.5c0,2.7-0.1,3.5-3.5,3.4c-2.6,0-3.3-0.2-3.3-3.8
	C152.9,246,153,244.9,156.4,245.2z"/>
<path class="st0" d="M139.4,252.1c-2.7,0.2-3.3-0.3-3.3-3.5c0-2.8,0.3-3.4,3.5-3.4c2.9,0,3.3,0.5,3.3,3.6
	C142.8,251.4,142.7,252.3,139.4,252.1z"/>
<path class="st0" d="M72.2,252.1c-3.1,0.3-3.4-0.8-3.3-3.1c0.1-3.6,0.1-3.8,3-3.8c3.7,0,3.6,0,3.7,3.3
	C75.7,251.6,75.3,252.3,72.2,252.1z"/>
<path class="st0" d="M201.7,13.6c0,3.2-0.1,3.2-3.6,3.2c-3.1,0-3.2-0.1-3.2-3.2c0-3.5,0-3.5,3.7-3.5
	C201.7,10.1,201.7,10.2,201.7,13.6z"/>
<path class="st0" d="M134.5,248.7c0,3.2-0.2,3.4-3.2,3.4c-3.4,0-3.4,0-3.4-3.7c0-3.1,0.1-3.2,3.6-3.2
	C134.4,245.2,134.5,245.4,134.5,248.7z"/>
<path class="st0" d="M92.4,248.7c0.2,2.6-0.1,3.5-3.4,3.4c-3.2-0.1-3.3-0.1-3.3-3.8c0-3.1,0.1-3.1,3.6-3.2
	C91.8,245.1,92.6,245.6,92.4,248.7z"/>
<path class="st0" d="M97.3,252.1c-3,0-3-0.2-3.1-3.3c-0.1-3.4,0.8-3.6,3-3.7c3.5-0.1,3.7,0.7,3.8,3.3
	C101,251.8,100.5,252.3,97.3,252.1z"/>
<path class="st0" d="M126,248.7c0.1,2.7,0,3.5-3.8,3.4c-2.7-0.1-2.8-0.2-2.9-3.8c-0.1-2.4,0.2-3.2,3.5-3.2
	C125.6,245.2,126.1,245.6,126,248.7z"/>
<path class="st0" d="M117.7,248.8c0,3.2-0.1,3.2-3.5,3.3c-2.7,0.1-3.3-0.3-3.2-3.8c0.1-3.1,0.1-3.1,3.5-3.1
	C117.6,245.2,117.7,245.3,117.7,248.8z"/>
<path class="st0" d="M235.3,63.8c0,3.3-0.1,3.3-3.6,3.4c-2.5,0-3.5-0.1-3.3-3.7c0.1-2.8,0.2-2.9,3.4-3
	C234.9,60.5,235.5,61,235.3,63.8z"/>
<path class="st0" d="M215,67.2c-2.9,0.1-3.4-0.3-3.3-3.5c0.1-3.2,0-3.2,3.6-3.2c3.2,0,3.2,0,3.2,3.6C218.5,67.2,218.5,67.2,215,67.2
	z"/>
<path class="st0" d="M269,307.6c0.3,2.7-0.5,3.3-3.6,3.3c-2.7,0-3.4-0.2-3.4-3.7c0-2.3,0.2-3.2,3.8-3
	C268.8,304.2,269,304.3,269,307.6z"/>
<path class="st0" d="M235.3,114.3c0,3.3-0.1,3.4-3.6,3.4c-3.1,0-3.3-0.2-3.3-3.3c0-3.2,0.1-3.3,3.4-3.4
	C234.9,110.9,235.5,111.3,235.3,114.3z"/>
<path class="st0" d="M285.6,240.3c0,3.2,0,3.2-3.7,3.2c-3,0-3-0.1-3-3.7c0-2.9,0-2.9,3.8-2.9C285.5,236.9,285.6,237,285.6,240.3z"/>
<path class="st0" d="M265.3,151.3c-3.1,0-3.1-0.2-3.2-3.6c-0.1-2.6,0.5-3.2,3.3-3.1c3.5,0.1,3.5,0.1,3.7,3.4
	C269.1,150.6,268.6,151.5,265.3,151.3z"/>
<path class="st0" d="M114.4,295.6c3.2,0,3.3,0.1,3.3,3.7c0,3-0.1,3.1-3.5,3.1c-3.2,0-3.2,0-3.2-3.6
	C111,295.7,111.1,295.6,114.4,295.6z"/>
<path class="st0" d="M232,236.9c2.8-0.2,3.4,0.4,3.4,3.3c0,3.2-0.7,3.4-3.4,3.4c-3,0-3.6-0.4-3.6-3.5
	C228.4,237.4,228.9,236.7,232,236.9z"/>
<path class="st0" d="M235.3,156.3c0,3.1-0.1,3.2-3.1,3.3c-3.4,0.1-3.8-0.4-3.8-3.4c0-2.8,0.5-3.3,3.6-3.3
	C234.8,152.8,235.6,153.2,235.3,156.3z"/>
<path class="st0" d="M85.7,21.7c0-3.2,0.1-3.2,3-3.3c3.7-0.1,3.7,0.7,3.7,3.3c0,3.4-0.1,3.5-3.2,3.5C85.7,25.2,85.7,25.2,85.7,21.7z
	"/>
<path class="st0" d="M299.2,111c3.3,0,3.3,0,3.3,3.5c0,3.1-0.1,3.2-3.6,3.2c-3.1,0-3.2-0.1-3.2-3.6C295.7,111,295.8,111,299.2,111z"
	/>
<path class="st0" d="M89.1,302.4c-3.4,0-3.4-0.1-3.4-3.3c0-3.4,0-3.4,3.6-3.4c3.1,0,3.1,0,3.1,3.6C92.4,302.3,92.2,302.4,89.1,302.4
	z"/>
<path class="st0" d="M269,156.3c0.3,3-0.7,3.4-3.5,3.3c-3.4-0.1-3.3-0.1-3.4-3.6c-0.1-2.3,0.1-3.3,3.7-3.1
	C268.8,153,269,153,269,156.3z"/>
<path class="st0" d="M21.7,151.3c-2.6,0.1-3.3-0.1-3.3-3.7c0.1-2.5,0.2-3.1,3.8-3c3,0.1,3.1,0.1,3.1,3.5
	C25.3,151.2,25.1,151.3,21.7,151.3z"/>
<path class="st0" d="M228.4,139.2c0-3,0.2-3.2,3.2-3.2c3.7,0,3.7,0,3.7,3.7c0,2.9-0.1,3-3.8,3C228.6,142.7,228.4,142.5,228.4,139.2z
	"/>
<path class="st0" d="M269,72.4c0,3-0.2,3.1-3.4,3.2c-3.1,0.1-3.6-0.6-3.5-3.1c0.1-3.6,0-3.6,3.8-3.6C268.8,68.8,269,69.1,269,72.4z"
	/>
<path class="st0" d="M100.9,265.5c0,3.2-0.2,3.3-3.2,3.5c-3.3,0.2-3.6-0.8-3.5-3.5c0.1-3.2,0.2-3.3,3-3.4
	C100.5,261.9,101.1,262.4,100.9,265.5z"/>
<path class="st0" d="M109.2,265.6c0,3.1-0.2,3.3-3.3,3.3c-3.3,0-3.3-0.1-3.4-3.6c0-2.6,0-3.5,3.9-3.3
	C109.1,262.1,109.2,262.2,109.2,265.6z"/>
<path class="st0" d="M151.3,265.5c0,3.3-0.2,3.4-3.6,3.5c-2.4,0.1-3.3-0.2-3.1-3.9c0.1-2.9,0.2-3,3.6-3
	C151.2,262,151.3,262.2,151.3,265.5z"/>
<path class="st0" d="M159.6,265.3c0.2,3.2-0.6,3.6-3,3.7c-3.6,0.1-3.7-0.9-3.7-3.4c0.1-3.5,0.1-3.5,3.4-3.6
	C159.4,261.9,159.7,262.7,159.6,265.3z"/>
<path class="st0" d="M193.2,265.4c0,3.3-0.1,3.5-3.3,3.5c-3.3,0-3.3-0.1-3.4-3.6c0-2.6,0.1-3.4,3.7-3.3
	C193.1,262.1,193.2,262.2,193.2,265.4z"/>
<path class="st0" d="M240.2,262c3.3,0,3.3,0.1,3.4,3.2c0.1,3.4-0.4,3.8-3.5,3.8c-2.7,0-3.2-0.6-3.2-3.7
	C236.9,262.6,237.3,261.8,240.2,262z"/>
<path class="st0" d="M285.6,105.9c0,3.2,0,3.2-3.5,3.2c-3.2,0-3.2-0.1-3.2-3.8c0-2.9,0.1-3,3.8-2.9
	C285.5,102.4,285.6,102.6,285.6,105.9z"/>
<path class="st0" d="M148.2,228.4c3.1,0,3.2,0.1,3.2,3.9c0,2.9-0.2,3.1-3.7,3.1c-2.9,0-2.9-0.1-2.9-3.4
	C144.6,228.5,144.8,228.4,148.2,228.4z"/>
<path class="st0" d="M142.8,231.8c0.1,3-0.1,3.6-3.7,3.5c-2.9-0.1-2.9-0.1-2.9-3.9c0-3,0.1-3.1,3.9-3.1
	C142.6,228.4,142.8,228.7,142.8,231.8z"/>
<path class="st0" d="M131.1,228.4c3.3,0,3.5,0.1,3.5,3.2c0,3.7,0,3.7-3.8,3.7c-2.7,0-2.8-0.1-2.8-3.7
	C127.8,228.6,128,228.4,131.1,228.4z"/>
<path class="st0" d="M106,228.4c3,0,3.2,0.2,3.2,3.6c0,3-0.2,3.3-2.9,3.3c-3.8,0-3.8,0-3.7-3.6C102.5,228.5,102.6,228.4,106,228.4z"
	/>
<path class="st0" d="M285.6,290.7c0,3.1-0.2,3.3-2.9,3.3c-3.8,0-3.9-0.1-3.9-2.7c0-4,0-4,3.2-4C285.6,287.3,285.6,287.3,285.6,290.7
	z"/>
<path class="st0" d="M84.1,231.8c0.2,3-0.5,3.5-3.4,3.5c-3,0-3.4-0.5-3.4-3.7c0.1-3.1,0.2-3.3,3.6-3.3
	C83.9,228.4,84.1,228.6,84.1,231.8z"/>
<path class="st0" d="M75.6,231.9c0,3.2-0.2,3.4-2.8,3.4c-3.9,0-3.9,0-3.9-3.5c0-3.2,0.2-3.3,3-3.4C75.5,228.2,75.7,229.1,75.6,231.9
	z"/>
<path class="st0" d="M60.6,231.8c0-3.2,0.2-3.4,3-3.4c3.5,0,3.6,0.1,3.7,3.1c0.1,3.6-0.5,3.8-3.4,3.8
	C61,235.3,60.5,234.9,60.6,231.8z"/>
<path class="st0" d="M47,235.3c-2.9,0.2-3.3-0.4-3.3-3.5c0-2.6,0.1-3.6,3.6-3.4c3,0.1,3,0.1,3,3.8C50.5,235.2,50.4,235.3,47,235.3z"
	/>
<path class="st0" d="M30.2,235.3c-2.8,0.2-3.3-0.4-3.3-3.5c0.1-3.3,0.1-3.3,3.4-3.4c2.6-0.1,3.4,0.2,3.3,3.8
	C33.6,235.2,33.5,235.3,30.2,235.3z"/>
<path class="st0" d="M307.4,268.9c-2.9,0.3-3.3-0.6-3.3-3.6c0-2.8,0.4-3.4,3.3-3.4c3,0,3.5,0.3,3.5,3.8
	C310.8,268.8,310.8,268.9,307.4,268.9z"/>
<path class="st0" d="M235.3,105.9c0,3.1-0.2,3.2-3.2,3.3c-3.3,0.1-3.8-0.6-3.8-3.1c-0.1-3.5,0.8-3.6,3.4-3.7
	C234.9,102.4,235.5,102.8,235.3,105.9z"/>
<path class="st0" d="M21.9,169.7c3.1-0.2,3.5,0.4,3.4,3.6c0,2.5-0.3,3.2-3.5,3.1c-3.4-0.1-3.4,0-3.4-3.6
	C18.5,169.7,18.5,169.7,21.9,169.7z"/>
<path class="st0" d="M294,215.2c0,3.3,0,3.3-3.5,3.3c-3.2,0-3.2,0-3.2-3.8c0-3,0-3,3.9-3C293.9,211.7,294,211.9,294,215.2z"/>
<path class="st0" d="M235.3,30.3c0,3.2-0.2,3.3-3,3.4c-3.7,0.1-4-0.5-3.9-3.5c0.1-3.1,0.1-3.1,3.9-3.1
	C235.2,27,235.3,27.1,235.3,30.3z"/>
<path class="st0" d="M265.5,176.3c-2.9,0.2-3.6-0.3-3.5-3.3c0-2.8,0.2-3.5,3.9-3.4c2.9,0.1,3.1,0.2,3.1,3.5
	C269,176.2,268.8,176.3,265.5,176.3z"/>
<path class="st0" d="M265.6,127.8c2.6-0.1,3.6,0,3.4,3.8c-0.1,2.7-0.3,2.9-4,2.9c-2.9,0-3-0.1-3-4
	C262.1,127.9,262.3,127.8,265.6,127.8z"/>
<path class="st0" d="M223.3,184.9c-3.2,0-3.2,0-3.2-3.8c0-3,0-3,3.5-3.1c2.6-0.1,3.3,0.3,3.2,3.4
	C226.7,184.8,226.8,184.9,223.3,184.9z"/>
<path class="st0" d="M151.3,215.2c0,3.3,0,3.3-3.7,3.3c-3,0-3-0.1-3-3.8c0-3,0.1-3,3.5-3C151.2,211.7,151.3,211.8,151.3,215.2z"/>
<path class="st0" d="M168.1,5.1c0,3.2-0.1,3.3-3.5,3.3c-3.1,0-3.3-0.3-3.4-3.1c-0.1-3.1,0.2-3.9,3.7-3.7
	C168,1.7,168.1,1.7,168.1,5.1z"/>
<path class="st0" d="M299.2,94.2c3.1,0,3.3,0.1,3.3,3.1c0,3.6,0,3.6-3.6,3.6c-3.1,0-3.2-0.1-3.2-3.6
	C295.7,94.2,295.8,94.2,299.2,94.2z"/>
<path class="st0" d="M265.4,100.9c-2.8,0.2-3.5-0.3-3.3-3.7c0.1-2.9,0.2-3,3.8-3c3,0,3.1,0.2,3.1,3.5
	C269,100.7,268.8,100.9,265.4,100.9z"/>
<path class="st0" d="M215.2,10.1c3.3,0,3.3,0,3.3,3.5c0,3.2,0,3.2-3.8,3.2c-3,0-2.9-0.1-3-3.8C211.7,10.8,211.8,9.9,215.2,10.1z"/>
<path class="st0" d="M231.9,134.5c-3.2,0-3.5-0.2-3.5-2.9c0-3.8,0-3.8,3.8-3.8c2.8,0,3.1,0.2,3.1,2.9
	C235.3,134.4,235.3,134.5,231.9,134.5z"/>
<path class="st0" d="M232,35.2c2.7-0.2,3.5,0.4,3.4,3.5c-0.1,3.1-0.1,3.2-3.8,3.2c-3,0-3.2-0.2-3.2-3.6
	C228.4,35.4,228.7,35.2,232,35.2z"/>
<path class="st0" d="M198.4,94.2c3.3,0,3.3,0,3.3,3.7c0,3-0.1,3-3.8,3c-3,0-3-0.1-3-3.8C194.9,94.3,195.1,94.2,198.4,94.2z"/>
<path class="st0" d="M201.7,89.1c0,3.2-0.1,3.2-3.6,3.2c-2.6,0.1-3.4-0.2-3.2-3.4c0.1-3.3,0.1-3.3,3.7-3.3
	C201.6,85.6,201.7,85.8,201.7,89.1z"/>
<path class="st0" d="M235.3,122.7c0,3.2,0,3.2-4,3.2c-2.8,0-2.9-0.2-2.9-3.6c0-2.9,0.2-3,3.8-3C235.3,119.3,235.3,119.4,235.3,122.7
	z"/>
<path class="st0" d="M269,206.8c0.2,2.7-0.4,3.3-3.8,3.2c-3-0.1-3-0.1-3.1-3.3c-0.1-3,0.3-3.5,3.8-3.4
	C268.8,203.4,269,203.4,269,206.8z"/>
<path class="st0" d="M226.8,299.1c0,3.3,0,3.3-3.5,3.3c-3.2,0-3.2,0-3.2-3.6c0-3.2,0.1-3.1,3.6-3.2C226.4,295.5,227,296,226.8,299.1
	z"/>
<path class="st0" d="M211.7,189.7c0-3.2,0-3.2,3.5-3.2c3.2,0,3.2,0,3.2,3.7c0,2.9-0.1,2.9-3.6,2.9
	C212.4,193.2,211.5,193.1,211.7,189.7z"/>
<path class="st0" d="M231.9,193.2c-3.4,0-3.4-0.1-3.5-3.3c-0.1-3,0.5-3.4,3.7-3.4c2.6,0,3.5,0.1,3.3,3.7
	C235.2,193,235.2,193.2,231.9,193.2z"/>
<path class="st0" d="M198.2,41.9c-3.3,0-3.3,0-3.3-3.5c0-3.1,0.1-3.2,3.4-3.2c3.3,0,3.4,0.1,3.4,3.6
	C201.7,41.8,201.6,41.9,198.2,41.9z"/>
<path class="st0" d="M269,189.8c0.3,3.2-0.8,3.4-3.4,3.4c-2.9,0-3.5-0.3-3.5-3.4c0-2.9,0.4-3.5,3.7-3.4
	C268.8,186.5,269,186.7,269,189.8z"/>
<path class="st0" d="M274,194.9c3.2,0,3.3,0,3.3,3.5c0,3.2-0.1,3.3-3.5,3.3c-3.1,0-3.2,0-3.2-3.6C270.6,194.9,270.6,194.9,274,194.9
	z"/>
<path class="st0" d="M269,122.8c0,2.9-0.2,3.1-3.3,3.1c-3.6,0-3.6,0-3.6-3.7c0-2.9,0.1-3,3.8-2.9C268.8,119.3,269,119.5,269,122.8z"
	/>
<path class="st0" d="M285.6,189.9c0,3.2-0.1,3.2-3.4,3.2c-3.4,0-3.4,0-3.4-3.6c0-3.1,0-3.1,3.7-3.1
	C285,186.4,285.9,186.6,285.6,189.9z"/>
<path class="st0" d="M13.4,201.7c-3.1,0-3.2-0.1-3.2-3.6c0-3.2,0-3.2,3.6-3.2c3.1,0,3.1,0.1,3.1,3.7
	C16.9,201.6,16.8,201.7,13.4,201.7z"/>
<path class="st0" d="M139.6,278.8c3.2,0,3.2,0,3.2,3.8c0,2.9-0.1,3-3.6,3c-3.1,0-3.1,0-3.1-3.9C136.1,278.9,136.3,278.8,139.6,278.8
	z"/>
<path class="st0" d="M60.6,198.3c0-3.4,0-3.4,3.3-3.5c2.7-0.1,3.5,0.1,3.4,3.5c-0.1,3.3,0,3.3-3.7,3.3
	C60.7,201.7,60.6,201.6,60.6,198.3z"/>
<path class="st0" d="M47.2,194.9c3.2,0,3.2,0,3.2,3.5c0,3.2-0.1,3.3-3.5,3.3c-3.1,0-3.1,0-3.1-3.8C43.8,194.9,43.9,194.9,47.2,194.9
	z"/>
<path class="st0" d="M41.9,198.3c0,3.3,0,3.3-3.6,3.3c-2.9,0-3-0.1-3-3.8c0-2.9,0.2-3,3.4-3C41.9,194.9,41.9,194.9,41.9,198.3z"/>
<path class="st0" d="M27,198c0-3.1,0.1-3.2,3.4-3.2c3.2,0,3.3,0,3.3,3.7c0,3-0.1,3.1-3.7,3.1C27.1,201.7,27,201.6,27,198z"/>
<path class="st0" d="M273.8,302.4c-3.3,0-3.3,0-3.3-3.7c0-3,0.1-3.1,3.7-3.1c2.9,0,3,0.1,3,3.8C277.2,302.3,277.1,302.4,273.8,302.4
	z"/>
<path class="st0" d="M114.2,285.6c-3.1,0-3.2-0.1-3.2-3.4c0-3.4,0-3.4,3.6-3.4c3.1,0,3.1,0.1,3.1,3.7
	C117.7,285.5,117.6,285.6,114.2,285.6z"/>
<path class="st0" d="M89,278.8c3.3,0,3.3,0,3.3,3.6c0,3-0.1,3.1-3.2,3.1c-3.4,0-3.5,0-3.5-3.5C85.7,278.9,85.8,278.8,89,278.8z"/>
<path class="st0" d="M80.8,278.8c3.2,0,3.2,0,3.2,3.7c0,3-0.1,3-3.5,3.1c-2.6,0.1-3.3-0.3-3.2-3.5C77.5,278.8,77.4,278.8,80.8,278.8
	z"/>
<path class="st0" d="M194.9,206.6c0-3.3,0-3.3,3.7-3.3c3.1,0,3.1,0,3.1,3.9c0,2.7-0.1,2.8-3.8,2.8
	C195,209.9,194.9,209.9,194.9,206.6z"/>
<path class="st0" d="M214.9,209.9c-3.1,0-3.2,0-3.2-3.6c0-3,0.1-3.1,3.7-3.1c2.9,0,3.1,0.2,3.1,3.1
	C218.5,209.9,218.5,209.9,214.9,209.9z"/>
<path class="st0" d="M184.9,89.1c0,3.1-0.1,3.2-3.4,3.2c-2.9,0.1-3.6-0.4-3.5-3.4c0.1-3.2,0.2-3.3,3.5-3.3
	C184.8,85.6,184.9,85.7,184.9,89.1z"/>
<path class="st0" d="M92.4,215.1c0,3.3-0.1,3.4-3.4,3.4c-3.3,0-3.3-0.1-3.3-3.7c0-3,0.1-3.1,3.5-3.1
	C92.3,211.7,92.4,211.8,92.4,215.1z"/>
<path class="st0" d="M290.7,262c3.4,0,3.4,0,3.4,3.8c0,3-0.1,3.1-3.7,3.2c-2.3,0.1-3.1-0.1-3-4C287.5,262.2,287.6,262,290.7,262z"/>
<path class="st0" d="M302.4,290.5c0,3.5,0,3.5-3.7,3.5c-3.1,0-3.1,0-3.1-3.9c0-2.7,0.1-2.8,3.6-2.8
	C302.4,287.3,302.4,287.4,302.4,290.5z"/>
<path class="st0" d="M282.2,142.7c-3.3,0-3.3,0-3.3-3.6c0-3,0.1-3,3.8-3c3,0,3,0,3,3.7C285.6,142.7,285.6,142.7,282.2,142.7z"/>
<path class="st0" d="M211.7,147.8c0-3.2,0-3.2,3.6-3.2c3.2,0,3.2,0.1,3.2,3.7c0,2.8-0.2,3-3.9,2.9
	C211.9,151.3,211.7,151.1,211.7,147.8z"/>
<path class="st0" d="M100.9,299.1c0,3.3-0.1,3.3-3.7,3.3c-2.9,0-3-0.1-3-3.5c0-3.1,0.1-3.2,3.5-3.2
	C100.8,295.6,100.9,295.8,100.9,299.1z"/>
<path class="st0" d="M181.6,60.6c3.3,0,3.3,0,3.3,3.7c0,2.9-0.1,3-4,3c-2.7,0-2.8-0.1-2.8-3.8C178.1,60.7,178.3,60.6,181.6,60.6z"/>
<path class="st0" d="M64,184.9c-3.4,0-3.4,0-3.4-3.8c0-2.9,0.1-3,3.4-3c2.6-0.1,3.5,0,3.3,3.7C67.2,184.7,67.1,184.9,64,184.9z"/>
<path class="st0" d="M201.7,63.9c0,3.3-0.1,3.3-3.4,3.3c-3.3,0-3.3,0-3.3-3.6c0-3,0.1-3,3.5-3C201.6,60.6,201.7,60.6,201.7,63.9z"/>
<path class="st0" d="M30.3,184.9c-3.3,0-3.3,0-3.3-3.7c0-3,0.1-3,3.3-3.1c2.9-0.1,3.5,0.4,3.4,3.2C33.6,184.9,33.7,184.9,30.3,184.9
	z"/>
<path class="st0" d="M13.4,184.9c-3.2,0-3.2,0-3.2-3.9c0-2.9,0.1-2.9,3.6-2.9c2.9,0,3.1,0.2,3,3.3C16.9,184.9,16.9,184.9,13.4,184.9
	z"/>
<path class="st0" d="M189.8,218.5c-3.2,0-3.2,0-3.2-3.5c0-3.2,0.1-3.3,3.2-3.3c3.4,0,3.4,0,3.4,3.5
	C193.2,218.5,193.2,218.5,189.8,218.5z"/>
<path class="st0" d="M282.2,176.3c-3.3,0-3.3,0-3.3-3.7c0-3,0.1-3,3.8-3c2.9,0,3,0.1,3,3.4C285.6,176.3,285.6,176.3,282.2,176.3z"/>
<path class="st0" d="M278.9,72.1c0-3.1,0.2-3.3,3.1-3.3c3.7,0,3.7,0,3.7,3.5c0,3.1-0.1,3.2-3.2,3.2
	C278.9,75.5,278.9,75.5,278.9,72.1z"/>
<path class="st0" d="M299.1,102.4c3.3,0,3.3,0,3.3,3.7c0,2.9-0.1,3-3.6,3c-3.1,0-3.2-0.1-3.2-3.4
	C295.7,102.5,295.7,102.4,299.1,102.4z"/>
<path class="st0" d="M25.3,223.4c0.2,2.9-0.3,3.4-3.4,3.4c-3.4-0.1-3.4,0-3.4-3.3c0-3.4,0-3.3,3.6-3.4
	C24.8,220,25.5,220.5,25.3,223.4z"/>
<path class="st0" d="M218.5,72.3c0,3.2,0,3.2-4,3.2c-2.7,0-2.8-0.2-2.8-3.4c0-3.3,0-3.3,3.9-3.3C218.4,68.8,218.5,69,218.5,72.3z"/>
<path class="st0" d="M164.6,226.8c-2.6,0.1-3.4-0.1-3.3-3.7c0.1-2.9,0.1-3,3.6-3c3.2,0,3.2,0,3.2,3.7
	C168.1,226.7,168.1,226.8,164.6,226.8z"/>
<path class="st0" d="M111,21.7c0-3.3,0-3.3,3.4-3.3c3.3,0,3.3,0,3.3,3.7c0,3-0.1,3.2-3.6,3.2C111.1,25.2,111,25.1,111,21.7z"/>
<path class="st0" d="M122.6,302.4c-3.2,0-3.3,0-3.3-3.7c0-3,0.1-3.1,3.7-3.1c2.9,0,3,0,2.9,3.8C126,302.3,125.8,302.4,122.6,302.4z"
	/>
<path class="st0" d="M240.2,302.4c-3.3,0-3.3,0-3.3-3.5c0-3.3,0-3.3,3.9-3.3c2.7,0,2.8,0.1,2.8,3.8
	C243.6,302.3,243.5,302.4,240.2,302.4z"/>
<path class="st0" d="M223.4,218.5c-3.3,0-3.3,0-3.3-3.7c0-2.5,0.1-3.2,3.5-3.1c3.2,0.1,3.2,0,3.2,3.6
	C226.8,218.4,226.7,218.5,223.4,218.5z"/>
<path class="st0" d="M148,18.4c3.3,0,3.3,0,3.3,3.6c0,3.1-0.2,3.2-3.4,3.2c-3.3,0-3.3-0.1-3.3-3.6C144.6,18.5,144.7,18.4,148,18.4z"
	/>
<path class="st0" d="M173,285.6c-3.2,0-3.3-0.1-3.3-3.3c0-3.4,0-3.5,3.3-3.5c3.3,0,3.4,0,3.4,3.6C176.4,285.5,176.3,285.6,173,285.6
	z"/>
<path class="st0" d="M189.7,25.2c-3,0-3.1-0.2-3.1-3.2c0-3.6,0-3.5,3.7-3.6c2.3,0,3.1,0,3,3.8C193.1,25.2,193.2,25.2,189.7,25.2z"/>
<path class="st0" d="M43.8,181.4c-0.2-2.7,0.2-3.5,3.5-3.3c3.2,0.1,3.2,0,3.2,3.6c0,3.1-0.1,3.2-3.4,3.2
	C43.8,184.9,43.8,184.9,43.8,181.4z"/>
<path class="st0" d="M218.5,114.5c0,3-0.1,3.2-3.4,3.2c-3.3,0-3.3-0.1-3.3-3.5c0-3.1,0.1-3.2,3.3-3.2
	C218.5,111,218.5,111,218.5,114.5z"/>
<path class="st0" d="M299.2,144.6c3.3,0,3.3,0,3.3,3.5c0,3.2-0.1,3.2-3.6,3.2c-3.1,0-3.2-0.1-3.2-3.6
	C295.7,144.7,295.8,144.6,299.2,144.6z"/>
<path class="st0" d="M206.7,295.6c3.1,0,3.3,0.2,3.3,2.9c0,3.8-0.1,3.9-2.7,3.9c-3.9,0-4,0-4-2.8
	C203.3,295.6,203.3,295.6,206.7,295.6z"/>
<path class="st0" d="M206.8,18.4c3.1-0.2,3.2,0.6,3.2,3.1c0.1,3.6-0.5,3.7-3.5,3.7c-2.5,0-3.3,0-3.2-3.8
	C203.4,19.2,203.3,18.2,206.8,18.4z"/>
<path class="st0" d="M102.5,298.8c0-3.1,0-3.1,3.6-3.2c2.6-0.1,3.2,0.3,3.1,3.7c0,2.3-0.1,3.2-3.6,3.1
	C102.5,302.3,102.5,302.4,102.5,298.8z"/>
<path class="st0" d="M285.6,114.3c0,3.3,0,3.4-3.4,3.4c-3.2,0-3.4-0.1-3.4-3.2c0-3.5,0-3.5,3.7-3.5
	C285.5,111,285.6,111.1,285.6,114.3z"/>
<path class="st0" d="M109.2,215.1c0,3.4,0,3.4-3.7,3.4c-2.9,0-3-0.1-3-3.8c0-2.8,0.2-3,3-3C109.2,211.7,109.2,211.7,109.2,215.1z"/>
<path class="st0" d="M164.7,310.8c-3.1,0.2-3.4-0.5-3.4-3.4c0-2.8,0.2-3.4,3.7-3.3c3.2,0.1,3.1,0,3.2,3.6
	C168.2,310.3,167.9,311,164.7,310.8z"/>
<path class="st0" d="M201.7,257.2c0,3.2,0,3.2-3.8,3.2c-2.9,0-3-0.1-3-3.6c0-3.1,0-3.1,3.9-3.1C201.6,253.7,201.7,253.9,201.7,257.2
	z"/>
<path class="st0" d="M100.9,215.1c0,3.3,0,3.3-3.9,3.3c-2.7,0-2.8-0.2-2.8-3.6c0-3.2,0.1-3.2,3.7-3.2
	C100.7,211.7,100.9,211.9,100.9,215.1z"/>
<path class="st0" d="M218.5,5c0,3.2-0.2,3.4-3.4,3.4c-3.1,0-3.3-0.2-3.3-3.3c0-3.4,0.2-3.5,3.4-3.5C218.4,1.6,218.5,1.8,218.5,5z"/>
<path class="st0" d="M218.5,139.5c0,3.2,0,3.2-3.8,3.2c-3,0-3-0.1-3-3.6c0-3.1,0-3.1,3.7-3.1C218.5,136.1,218.5,136.1,218.5,139.5z"
	/>
<path class="st0" d="M273.8,184.9c-3,0.2-3.2-0.5-3.2-3.5c0-2.8,0.4-3.3,3.3-3.3c2.9,0,3.5,0.3,3.4,3.6
	C277.2,184.8,277.1,184.9,273.8,184.9z"/>
<path class="st0" d="M290.8,194.9c3.2,0,3.2,0,3.2,3.8c0,3,0,3-3.9,3c-2.7,0-2.7-0.1-2.7-4.1C287.4,194.9,287.5,194.9,290.8,194.9z"
	/>
<path class="st0" d="M181.5,10.1c3.4,0,3.5,0.1,3.5,3.5c0,3.1-0.1,3.2-3.8,3.1c-2.9,0-3-0.1-3-3.8C178.1,10.3,178.3,10.1,181.5,10.1
	z"/>
<path class="st0" d="M299,125.9c-3.3,0-3.3,0-3.3-3.6c0-3,0.1-3,3.5-3c3.2,0,3.2,0,3.2,3.7C302.4,125.9,302.4,125.9,299,125.9z"/>
<path class="st0" d="M109.2,282.3c0,3.3,0,3.3-3.7,3.3c-3,0-3-0.1-3-3.6c0-3.2,0.1-3.2,3.6-3.2C109.1,278.8,109.2,278.9,109.2,282.3
	z"/>
<path class="st0" d="M240.4,194.9c3.2,0,3.2,0,3.2,3.7c0,2.8-0.2,3-2.9,3c-3.7,0-3.7,0-3.7-3.8C237,195,237.1,194.9,240.4,194.9z"/>
<path class="st0" d="M164.8,84c-3.5,0-3.5,0-3.5-3.6c0-2.9,0.2-3.1,3.3-3.1c3.5,0,3.4,0,3.5,3.6C168.2,83.5,167.8,84.2,164.8,84z"/>
<path class="st0" d="M105.8,168.1c-3.3,0-3.3,0-3.3-3.6c0-3,0.2-3.1,3-3.2c3.6-0.1,3.8,0.6,3.7,3.5
	C109.1,168,109.1,168.1,105.8,168.1z"/>
<path class="st0" d="M285.6,164.8c0,3.2-0.1,3.2-3.7,3.2c-3,0-3.1-0.1-3.1-3.7c0-2.9,0.2-3.1,3.7-3.1
	C285.5,161.3,285.6,161.5,285.6,164.8z"/>
<path class="st0" d="M294,299.1c0,3.3,0,3.3-3.9,3.3c-2.7,0-2.8-0.1-2.8-3.6c0-3,0.2-3.2,2.8-3.2C294,295.6,294,295.6,294,299.1z"/>
<path class="st0" d="M80.6,184.9c-3.1,0-3.1-0.1-3.2-3.6c-0.1-2.6,0.2-3.4,3.5-3.3c3.2,0.1,3.2,0.1,3.2,3.6
	C84.1,184.8,84,184.9,80.6,184.9z"/>
<path class="st0" d="M77.4,21.6c0-3.2,0-3.2,3.8-3.2c2.9,0,2.9,0,2.9,3.8c0,3,0,2.9-3.6,3C78.1,25.3,77.2,25.1,77.4,21.6z"/>
<path class="st0" d="M156.2,302.4c-3.2,0-3.3-0.1-3.3-3.3c0-3.5,0-3.5,3.7-3.5c3,0,3,0,3,3.8C159.6,302.3,159.5,302.4,156.2,302.4z"
	/>
<path class="st0" d="M147.9,302.4c-3.2,0-3.2,0-3.2-3.7c0-3,0.1-3,3.7-3c2.8,0,3,0.2,2.9,3.8C151.3,302.3,151.2,302.4,147.9,302.4z"
	/>
<path class="st0" d="M260.4,282.3c0,3.2-0.1,3.3-3.1,3.3c-3.6,0-3.6,0-3.6-3.6c0-3.1,0.1-3.2,3.4-3.2
	C260.4,278.8,260.4,278.8,260.4,282.3z"/>
<path class="st0" d="M77.4,198c0-2.9,0.2-3.1,3.1-3.1c3.6,0,3.6,0,3.6,3.8c0,3-0.1,3-3.8,3C77.4,201.7,77.4,201.6,77.4,198z"/>
<path class="st0" d="M260.4,198.2c0,3.5,0,3.5-3.9,3.5c-2.7,0-2.8-0.2-2.8-3.4c0-3.4,0-3.4,3.4-3.4
	C260.4,194.9,260.4,194.9,260.4,198.2z"/>
<path class="st0" d="M8.5,206.7c0,3.1-0.1,3.2-3.5,3.2c-3.3,0-3.3,0-3.4-3.6c-0.1-2.5,0.2-3.2,3.7-3.1
	C8.3,203.4,8.5,203.4,8.5,206.7z"/>
<path class="st0" d="M302.4,80.8c0,3.2,0,3.2-3.7,3.2c-3,0-3-0.1-3-3.8c0-2.9,0.1-3,3.9-2.9C302.3,77.3,302.5,77.5,302.4,80.8z"/>
<path class="st0" d="M215.2,85.6c3.1,0,3.3,0.2,3.3,3.1c0,3.6,0,3.6-3.4,3.6c-3.3,0-3.4-0.1-3.4-3.2
	C211.7,85.7,211.8,85.6,215.2,85.6z"/>
<path class="st0" d="M156.2,218.5c-3.3,0-3.3,0-3.3-3.5c0-3.1,0.2-3.3,2.9-3.3c3.8,0,3.8,0,3.8,3.6
	C159.6,218.4,159.5,218.5,156.2,218.5z"/>
<path class="st0" d="M111,215c0-3.2,0.1-3.3,3.1-3.3c3.6,0,3.6,0,3.6,3.4c0,3.3-0.1,3.4-3.4,3.4C111,218.5,111,218.5,111,215z"/>
<path class="st0" d="M50.5,215.1c0,3.3,0,3.3-3.4,3.3c-3.2,0-3.2,0-3.2-3.5c0-3.2,0-3.2,3.5-3.3C49.8,211.6,50.7,211.7,50.5,215.1z"
	/>
<path class="st0" d="M161.3,88.8c0-3,0.2-3.1,3.6-3.1c3.1,0,3.2,0.1,3.2,3.4c0,3.3,0,3.3-3.8,3.3C161.4,92.3,161.3,92.2,161.3,88.8z
	"/>
<path class="st0" d="M206.7,218.5c-3.2,0-3.3-0.1-3.3-3.2c0-3.4,0.1-3.5,2.8-3.6c3.8,0,3.8,0,3.8,3.1
	C210,218.5,210,218.5,206.7,218.5z"/>
<path class="st0" d="M278.9,122.5c0-3.1,0.1-3.2,3.6-3.2c3.2,0,3.2,0,3.2,3.8c0,2.8-0.1,2.9-3.5,2.9
	C278.9,125.9,278.9,125.9,278.9,122.5z"/>
<path class="st0" d="M97.6,168.1c-3.4,0-3.4,0-3.4-3.7c0-3,0.1-3.1,3.7-3.1c2.9,0,3,0.2,3,3.8C100.9,168,100.8,168.1,97.6,168.1z"/>
<path class="st0" d="M240.3,168.1c-3.3,0-3.3,0-3.3-3.8c0-3,0.1-3,3.7-3c2.9,0,2.9,0,2.9,3.8C243.6,168,243.5,168.1,240.3,168.1z"/>
<path class="st0" d="M25.3,131.1c0.1,2.7,0,3.5-3.8,3.4c-3-0.1-3-0.1-3-3.8c0-3,0-3,4-2.9C25.1,127.8,25.3,128,25.3,131.1z"/>
<path class="st0" d="M164.6,100.9c-3.1,0-3.3-0.2-3.3-3.1c0-3.6,0-3.6,3.5-3.6c3.3,0,3.3,0,3.3,3.7
	C168.1,100.8,168,100.9,164.6,100.9z"/>
<path class="st0" d="M75.6,198.4c0,3.3,0,3.3-3.7,3.3c-2.9,0-3-0.1-3-3.8c0-2.9,0.1-3,3.6-3C75.5,194.9,75.6,195,75.6,198.4z"/>
<path class="st0" d="M285.6,273.9c0,3.2-0.1,3.3-3.5,3.3c-3.3,0-3.3,0-3.3-3.7c0-2.9,0.1-3,3.8-3
	C285.5,270.5,285.6,270.6,285.6,273.9z"/>
<path class="st0" d="M211.7,273.8c0-3.3,0-3.3,3.5-3.3c3.3,0,3.3,0,3.3,3.7c0,2.9-0.1,3-3.8,3C211.9,277.2,211.7,277.1,211.7,273.8z
	"/>
<path class="st0" d="M164.6,209.9c-2.5,0.1-3.4,0.1-3.3-3.9c0.1-2.6,0.2-2.8,3.6-2.8c3.2,0,3.2,0,3.2,3.7
	C168.2,209.4,168,210.1,164.6,209.9z"/>
<path class="st0" d="M218.5,223.3c0,3.4,0,3.4-3.5,3.4c-3.2,0-3.3-0.1-3.3-3.1c0-3.6,0-3.6,3.4-3.6
	C218.4,220.1,218.5,220.2,218.5,223.3z"/>
<path class="st0" d="M278.9,80.5c0-3.1,0-3.1,3.7-3.1c2.9,0,3.1,0.2,3.1,3.1c0,3.6,0,3.6-3.6,3.6C278.9,84,278.9,84,278.9,80.5z"/>
<path class="st0" d="M257.1,218.5c-3.2,0-3.3-0.1-3.3-3c0-3.7,0-3.6,3-3.8c3.5-0.1,3.7,0.6,3.6,3
	C260.4,218.5,260.4,218.5,257.1,218.5z"/>
<path class="st0" d="M243.6,215.1c0,3.3-0.1,3.3-3.2,3.3c-3.4,0-3.4,0-3.4-3.7c0-2.6,0.1-3.2,3.7-3.1
	C243.5,211.8,243.6,211.8,243.6,215.1z"/>
<path class="st0" d="M215.1,159.5c-3.3,0-3.3,0-3.3-3.7c0-2.9,0.1-3,3.6-3c3.2,0,3.2,0.1,3.2,3.6
	C218.5,159.5,218.5,159.5,215.1,159.5z"/>
<path class="st0" d="M164.9,68.8c3.1,0,3.3,0.1,3.3,3.1c0,3.6,0,3.6-3.7,3.6c-3,0-3.1-0.1-3.1-3.7C161.3,69,161.5,68.8,164.9,68.8z"
	/>
<path class="st0" d="M8.5,240.2c0.2,2.8-0.1,3.5-3.6,3.4c-3.2-0.1-3.2-0.1-3.2-3.6c0-3.1,0.1-3.1,3.8-3.1
	C8.3,236.9,8.5,237,8.5,240.2z"/>
<path class="st0" d="M5,75.5c-3.2,0-3.3-0.1-3.3-3.1c0-3.6,0-3.6,3.8-3.6c2.7,0,3,0.3,3,3C8.5,75.5,8.5,75.5,5,75.5z"/>
<path class="st0" d="M134.5,21.8c0,3.3-0.1,3.4-3.3,3.5c-2.9,0.1-3.5-0.3-3.4-3.6c0.1-3.2,0.1-3.2,3.3-3.2
	C134.5,18.4,134.5,18.4,134.5,21.8z"/>
<path class="st0" d="M5,134.5c-3.4,0-3.4,0-3.4-3.8c0-2.7,0.1-2.8,3.8-2.8c3,0,3.1,0,3.1,3.7C8.5,134.3,8.2,134.5,5,134.5z"/>
<path class="st0" d="M127.8,4.9c0-3.3,0-3.3,3.5-3.3c3.2,0,3.2,0,3.2,3.8c0,2.8-0.3,3.1-3,3.1C127.8,8.4,127.8,8.4,127.8,4.9z"/>
<path class="st0" d="M260.4,164.8c0,3.3,0,3.3-3.8,3.3c-2.9,0-2.8,0-2.9-3.6c0-2.6,0.1-3.3,3.8-3.2
	C260.3,161.3,260.4,161.4,260.4,164.8z"/>
<path class="st0" d="M75.6,5c0.1,3-0.2,3.5-3.8,3.4c-2.7-0.1-2.9-0.2-2.9-3.7c0-3,0.1-3.1,3.9-3.1C75.4,1.6,75.6,1.8,75.6,5z"/>
<path class="st0" d="M1.6,97.4c0-3.2,0.1-3.3,3.3-3.3c3.2,0,3.5,0.2,3.5,2.7c0,3.9,0,4-3.2,3.9C1.7,100.9,1.6,100.8,1.6,97.4z"/>
<path class="st0" d="M164.7,50.4c-3.3,0-3.3,0-3.3-3.8c0-2.8,0.1-2.9,3.7-2.9c3.1,0,3.1,0,3.1,3.6C168.1,50.4,168.1,50.4,164.7,50.4
	z"/>
<path class="st0" d="M181.5,94.2c3.3,0,3.4,0.1,3.4,3.2c0,3.4-0.1,3.5-3.3,3.5c-3.5,0-3.5,0-3.5-3.8
	C178.1,94.3,178.3,94.2,181.5,94.2z"/>
<path class="st0" d="M243.6,181.5c0.1,2.7-0.1,3.4-3.4,3.4c-2.9,0-3.3-0.5-3.3-3.6c0-2.7,0.2-3.4,3.8-3.3
	C243.5,178.2,243.6,178.2,243.6,181.5z"/>
<path class="st0" d="M210,164.8c0,3.3,0,3.3-3.6,3.3c-3.1,0-3.1,0-3.1-3.9c0-2.8,0.2-2.9,3.6-3C209.3,161.2,210.2,161.4,210,164.8z"
	/>
<path class="st0" d="M243.6,22c0,3-0.2,3.2-2.9,3.2c-3.7,0-3.7,0-3.7-3.8c0-3,0-3,3.7-3C243.6,18.4,243.6,18.5,243.6,22z"/>
<path class="st0" d="M8.5,147.9c0,3.3-0.1,3.3-3.8,3.4c-2.2,0-3.2,0-3-4c0.1-2.5,0.2-2.7,4-2.6C8.3,144.6,8.5,144.8,8.5,147.9z"/>
<path class="st0" d="M168.1,13.6c0,3.2,0,3.2-3.7,3.2c-3.1,0-3.1-0.1-3.1-3.8c0-2.7,0.1-2.8,3.7-2.8
	C168.1,10.1,168.1,10.1,168.1,13.6z"/>
<path class="st0" d="M173.2,1.6c3-0.2,3.3,0.5,3.3,3.5c0,2.7-0.1,3.4-3.8,3.3c-2.8-0.1-2.9-0.2-2.9-3.7
	C169.7,1.6,169.7,1.6,173.2,1.6z"/>
<path class="st0" d="M184.9,105.7c0,3.3-0.1,3.4-3.1,3.5c-3.5,0.1-3.8-0.5-3.7-3.4c0-2.5,0-3.4,3.7-3.3
	C184.8,102.5,184.9,102.6,184.9,105.7z"/>
<path class="st0" d="M290.7,168.1c-3.3,0-3.3,0-3.3-3.6c0-2.5,0-3.4,3.7-3.2c2.9,0.1,2.9,0.1,2.9,3.8
	C294,168,293.9,168.1,290.7,168.1z"/>
<path class="st0" d="M223.6,161.3c3.1,0,3.2,0.1,3.2,3.1c0,3.7,0,3.7-3.4,3.7c-3.2,0-3.2,0-3.2-3.7
	C220.1,161.4,220.3,161.3,223.6,161.3z"/>
<path class="st0" d="M223.6,111c3.2,0,3.2,0,3.2,3.6c0,3.1,0,3.1-3.6,3.1c-3.1,0-3.1,0-3.1-3.7C220.1,111,220.2,111,223.6,111z"/>
<path class="st0" d="M100.9,114.3c0,3.3-0.1,3.3-3.2,3.3c-3.5,0-3.5,0-3.5-3.5c0-3.2,0-3.2,3.5-3.2C100.9,111,100.9,111,100.9,114.3
	z"/>
<path class="st0" d="M16.9,156.3c0,3.2,0,3.2-3.5,3.2c-3.2,0-3.2,0-3.2-3.6c0-3.1,0-3.1,3.6-3.1C16.9,152.9,16.9,152.9,16.9,156.3z"
	/>
<path class="st0" d="M33.7,156.2c0,3.3,0,3.3-3.6,3.3c-3.1,0-3.1,0-3.1-3.6c0-3,0-3,3.5-3C33.7,152.9,33.7,152.9,33.7,156.2z"/>
<path class="st0" d="M55.5,152.9c3.3,0,3.3,0,3.3,3.5c0,3.2,0,3.2-3.5,3.2c-3.2,0-3.2,0-3.2-3.5C52.1,152.9,52.1,152.9,55.5,152.9z"
	/>
<path class="st0" d="M64.1,152.9c3.2,0,3.1,0,3.2,3.7c0,2.3,0,3.1-3.6,2.9c-3-0.1-3.1,0-3.1-3.3C60.6,152.9,60.6,152.9,64.1,152.9z"
	/>
<path class="st0" d="M75.6,156.4c0,3.2,0,3.2-3.4,3.2c-3.3,0-3.3,0-3.3-3.4c0-3.3,0-3.3,3.8-3.3C75.5,152.9,75.6,152.9,75.6,156.4z"
	/>
<path class="st0" d="M89.1,152.9c3.3,0,3.3,0,3.3,3.6c0,3-0.1,3-3.5,3c-3.2,0-3.2,0-3.2-3.3C85.7,152.9,85.7,152.9,89.1,152.9z"/>
<path class="st0" d="M105.8,159.5c-3.3,0-3.3,0-3.3-3.6c0-3.1,0-3.1,3.7-3.1c3,0,3,0,3,3.7C109.2,159.5,109.1,159.5,105.8,159.5z"/>
<path class="st0" d="M277.2,147.9c0,3.3,0,3.4-3.4,3.4c-3.3,0-3.3,0-3.3-3.4c0-3.2,0-3.2,3.5-3.2
	C277.2,144.6,277.2,144.6,277.2,147.9z"/>
<path class="st0" d="M89,117.6c-3.3,0-3.3,0-3.3-3.7c0-3,0-3,3.7-3c3,0,3,0,3,3.6C92.4,117.6,92.3,117.7,89,117.6z"/>
<path class="st0" d="M260.4,156.3c0,3.2,0,3.2-3.1,3.2c-3.6,0-3.6,0-3.6-3.5c0-3.1,0-3.1,3.4-3.1
	C260.4,152.9,260.4,152.9,260.4,156.3z"/>
<path class="st0" d="M75.6,114.4c0,3.2,0,3.2-3.5,3.2c-3.2,0-3.2,0-3.2-3.8c0-2.9,0-2.9,3.8-2.9C75.5,111,75.6,111,75.6,114.4z"/>
<path class="st0" d="M304.2,307.5c0-3.3,0-3.3,3.6-3.3c3.1,0,3.1,0,3.1,3.6c0,3.1,0,3.1-3.9,3.1
	C304.2,310.8,304.2,310.7,304.2,307.5z"/>
<path class="st0" d="M270.6,122.5c0-3.2,0-3.2,3.7-3.2c3,0,3,0,3,3.7c0,2.9,0,2.9-3.8,2.9C270.6,125.9,270.6,125.9,270.6,122.5z"/>
<path class="st0" d="M30.3,117.6c-3.3,0-3.3,0-3.3-3.6c0-3,0-3,3.5-3c3.2,0,3.2,0,3.2,3.7C33.7,117.6,33.6,117.6,30.3,117.6z"/>
<path class="st0" d="M243.6,114.4c0,3.2-0.1,3.2-3.1,3.2c-3.6,0-3.6,0-3.6-3.6c0-3.1,0-3.1,3.4-3.1C243.6,111,243.6,111,243.6,114.4
	z"/>
<path class="st0" d="M243.6,122.4c0,3.5,0,3.5-3.4,3.5c-3.2,0-3.2,0-3.2-3.3c0-3.4,0-3.4,3.7-3.4
	C243.6,119.3,243.6,119.3,243.6,122.4z"/>
<path class="st0" d="M253.8,147.8c0-3.2,0-3.3,3.1-3.3c3.6,0,3.6,0,3.6,3.7c0,3,0,3-3.7,3C253.8,151.3,253.8,151.2,253.8,147.8z"/>
<path class="st0" d="M274,111c3.2,0,3.2,0,3.2,3.5c0,3.2,0,3.2-3.7,3.2c-2.9,0-2.9,0-2.9-3.6C270.6,111,270.6,111,274,111z"/>
<path class="st0" d="M310.8,105.9c0,3.2,0,3.2-3.3,3.2c-3.4,0-3.4,0-3.4-3.6c0-3.1,0-3.1,3.6-3.1
	C310.3,102.4,311.1,102.5,310.8,105.9z"/>
<path class="st0" d="M16.9,122.5c0,3.4,0,3.3-3.5,3.4c-2.8,0.1-3.2-0.4-3.2-3.2c0.1-3.5,0-3.5,3.6-3.5
	C16.8,119.3,16.9,119.3,16.9,122.5z"/>
<path class="st0" d="M294,105.9c0,3.2,0,3.2-3.5,3.2c-3.1,0-3.1,0-3.1-3.6c0-3.1,0-3,3.6-3.1C293.4,102.4,294.3,102.5,294,105.9z"/>
<path class="st0" d="M109.2,148c0.2,2.6-0.2,3.4-3.3,3.3c-3.4-0.1-3.4,0-3.4-3.6c0-3.2,0-3.2,3.4-3.2
	C109.2,144.6,109.2,144.6,109.2,148z"/>
<path class="st0" d="M100.9,147.9c0,3.2-0.1,3.3-3,3.3c-3.7,0-3.7,0-3.7-3.5c0-3.2,0-3.2,3.5-3.2
	C100.8,144.6,100.9,144.7,100.9,147.9z"/>
<path class="st0" d="M253.8,105.6c0-3.2,0-3.2,3.6-3.2c3.1,0,3.1,0,3.1,3.8c0,2.8-0.1,2.9-3.5,2.9
	C253.8,109.1,253.8,109.1,253.8,105.6z"/>
<path class="st0" d="M41.9,164.8c0,3.3,0,3.3-3.7,3.3c-2.9,0-3-0.1-3-3.8c0-2.8,0.2-2.9,3.4-3C41.3,161.2,42.2,161.4,41.9,164.8z"/>
<path class="st0" d="M92.4,148c0,3.3,0,3.3-3.6,3.3c-3,0-3.1-0.1-3.1-3.7c0-3,0-3,3.7-3C92.3,144.6,92.4,144.7,92.4,148z"/>
<path class="st0" d="M210,105.8c0,3.3,0,3.3-3.6,3.3c-3,0-3,0-3-3.7c0-3,0-3,3.9-3C209.9,102.4,210,102.5,210,105.8z"/>
<path class="st0" d="M30.2,176.3c-3.2,0-3.2,0-3.2-3.4c0-3.3,0-3.3,3.6-3.3c3.1,0,3.1,0,3.1,3.8C33.7,176.3,33.6,176.3,30.2,176.3z"
	/>
<path class="st0" d="M52.1,172.9c0-3.2,0-3.2,3.5-3.2c3.2,0,3.2,0,3.2,3.6c0,3.1,0,3.1-3.6,3.1C52.1,176.3,52.1,176.3,52.1,172.9z"
	/>
<path class="st0" d="M75.6,173.1c0,3.2,0,3.2-3.5,3.2c-3.2,0-3.2,0-3.2-3.5c0-3.1,0-3.1,3.6-3.1C75.6,169.7,75.6,169.7,75.6,173.1z"
	/>
<path class="st0" d="M89,176.3c-3.3,0-3.3,0-3.3-3.7c0-3,0-3,3.7-3c3,0,3,0,3,3.8C92.4,176.3,92.3,176.3,89,176.3z"/>
<path class="st0" d="M100.9,173c0,3.3,0,3.2-3.4,3.3c-2.9,0.1-3.4-0.4-3.3-3.3c0.1-3.4,0-3.4,3.5-3.4
	C100.9,169.7,100.9,169.7,100.9,173z"/>
<path class="st0" d="M206.7,169.7c3.3,0,3.3,0,3.3,3.6c0,3,0,3-3.7,3c-3,0-3,0-3-3.5C203.3,169.7,203.3,169.7,206.7,169.7z"/>
<path class="st0" d="M186.5,105.6c0-3.2,0-3.2,3.5-3.2c3.1,0,3.1,0,3.1,3.8c0,2.9,0,2.9-3.6,2.9
	C187.3,109.2,186.3,109.2,186.5,105.6z"/>
<path class="st0" d="M253.8,173c0-3.3,0-3.3,3.6-3.3c3.1,0,3.1,0,3.1,3.7c0,3,0,3-3.5,3C253.8,176.3,253.8,176.3,253.8,173z"/>
<path class="st0" d="M84.1,148c0,3.2,0,3.2-3.7,3.2c-2.4,0-3.1-0.1-3-3.8c0.1-2.9,0-2.9,3.6-2.9C84.1,144.6,84.1,144.6,84.1,148z"/>
<path class="st0" d="M151.3,105.8c0,3.2-0.1,3.3-3.2,3.3c-3.4,0-3.4,0-3.4-3.7c0-3,0-3,3.5-3C150.7,102.4,151.5,102.5,151.3,105.8z"
	/>
<path class="st0" d="M290.8,169.7c3.3,0,3.3,0,3.3,3.5c0,3.2,0,3.2-3.7,3.2c-3,0-3,0-3-3.6C287.4,169.7,287.4,169.7,290.8,169.7z"/>
<path class="st0" d="M142.8,106c0,3.2,0,3.2-3.6,3.2c-3.1,0-3.1,0-3.1-3.8c0-2.9,0-2.9,3.9-2.9C142.7,102.4,142.8,102.5,142.8,106z"
	/>
<path class="st0" d="M109.2,105.9c0,3.2,0,3.2-3.5,3.2c-3.2,0-3.2,0-3.2-3.4c0-3.3,0-3.3,3.6-3.4
	C108.7,102.4,109.4,102.7,109.2,105.9z"/>
<path class="st0" d="M94.2,105.7c0-3.3,0-3.3,3.5-3.3c3.2,0,3.2,0,3.2,3.7c0,3,0,3-3.8,3C94.3,109.1,94.2,109,94.2,105.7z"/>
<path class="st0" d="M92.4,105.9c0,3.3,0,3.3-3.5,3.3c-3.2,0-3.2-0.1-3.2-3.5c0-3.2,0-3.2,3.8-3.2C92.3,102.4,92.4,102.5,92.4,105.9
	z"/>
<path class="st0" d="M67.3,106c0,3.2,0,3.2-3.6,3.2c-3.1,0-3.1,0-3.1-3.8c0-2.9,0-2.8,3.7-2.9C66.7,102.4,67.5,102.5,67.3,106z"/>
<path class="st0" d="M50.5,148c0,3.3,0,3.3-3.5,3.3c-3.2,0-3.2,0-3.2-3.7c0-3,0-3,3.5-3C50.5,144.6,50.5,144.6,50.5,148z"/>
<path class="st0" d="M55.6,102.4c3.1,0,3.2,0.1,3.2,3.1c0,3.6,0,3.6-3.4,3.6c-3.3,0-3.3,0-3.3-3.4C52.1,102.4,52.1,102.4,55.6,102.4
	z"/>
<path class="st0" d="M30.2,109.1c-3.2,0-3.2,0-3.2-3.7c0-3,0-3,3.5-3c3.1,0,3.1,0,3.1,3.6C33.7,108.7,33.4,109.3,30.2,109.1z"/>
<path class="st0" d="M30.3,125.9c-3.3,0-3.2,0-3.3-3.6c0-2.3-0.1-3.2,3.5-3.1c3.2,0.1,3.2,0,3.2,3.7
	C33.7,125.9,33.6,125.9,30.3,125.9z"/>
<path class="st0" d="M13.6,102.4c3.3,0,3.3,0,3.3,3.7c0,3,0,3-3.5,3c-3.2,0-3.2,0-3.2-3.8C10.2,102.5,10.2,102.4,13.6,102.4z"/>
<path class="st0" d="M290.6,100.9c-3.1,0.2-3.2-0.5-3.3-3.3c-0.1-3.4,0.6-3.5,3.1-3.4c3.5,0.1,3.5,0,3.5,3.4
	C294,100.9,294,100.9,290.6,100.9z"/>
<path class="st0" d="M273.9,100.9c-3.3,0-3.3,0-3.3-3.2c0-3.5,0-3.5,3.5-3.5c3.2,0,3.2,0,3.2,3.7
	C277.2,100.8,277.1,100.9,273.9,100.9z"/>
<path class="st0" d="M16.9,189.9c0,3.3,0,3.3-3.4,3.3c-3.2,0-3.2,0-3.2-3.5c0-3.2,0-3.2,3.7-3.2C16.8,186.5,16.9,186.5,16.9,189.9z"
	/>
<path class="st0" d="M41.9,190c0,3.2,0,3.2-3.3,3.2c-3.3,0-3.3,0-3.4-3.6c-0.1-2.5,0.1-3.2,3.7-3.1C41.9,186.6,41.9,186.5,41.9,190z
	"/>
<path class="st0" d="M47.2,186.5c3.3,0,3.3,0,3.3,3.6c0,3.1,0,3.1-3.4,3.1c-3.2,0-3.2,0-3.2-3.7C43.8,186.5,43.9,186.5,47.2,186.5z"
	/>
<path class="st0" d="M58.8,189.9c0,3.3,0,3.3-3.7,3.3c-3,0-3,0-3-3.7c0-3,0-3,3.8-3C58.7,186.5,58.8,186.5,58.8,189.9z"/>
<path class="st0" d="M80.8,193.2c-3.3,0.2-3.5-0.6-3.4-3.1c0.1-3.6,0-3.6,3.2-3.6c3.5,0,3.5,0,3.5,3.4
	C84.1,193.1,84.1,193.1,80.8,193.2z"/>
<path class="st0" d="M88.9,193.2c-3.2,0-3.2,0-3.2-3.7c0-3,0-2.9,3.8-3c2.3,0,3,0,3,3.6C92.4,192.5,92.4,193.4,88.9,193.2z"/>
<path class="st0" d="M100.9,190c0,3.2,0,3.2-3.5,3.2c-3.2,0-3.1,0-3.2-3.6c0-2.4,0-3.2,3.5-3.1C100.9,186.6,100.9,186.5,100.9,190z"
	/>
<path class="st0" d="M106,186.5c3.2,0,3.2,0,3.2,3.4c0,3.3,0,3.3-3.4,3.3c-3.3,0-3.3,0-3.3-3.7C102.5,186.5,102.5,186.5,106,186.5z"
	/>
<path class="st0" d="M210,189.9c0,3.3,0,3.3-3.6,3.3c-3,0-3,0-3-3.7c0-3,0-2.9,3.7-3C209.4,186.4,210.2,186.5,210,189.9z"/>
<path class="st0" d="M193.2,97.6c0,3.3,0,3.3-3.5,3.3c-3.2,0-3.2,0-3.2-3.7c0-2.3,0-3.1,3.6-3C193.2,94.2,193.2,94.2,193.2,97.6z"/>
<path class="st0" d="M220.1,189.7c0-3.2,0-3.2,3.5-3.2c3.2,0,3.2,0,3.1,3.6c0,3.1,0,3.1-3.8,3.1
	C220.1,193.1,220.1,193.1,220.1,189.7z"/>
<path class="st0" d="M257,310.8c-3.3,0-3.3,0-3.3-3.5c0-3.2,0-3.2,3.5-3.2c3.2,0,3.2,0,3.2,3.7C260.4,310.8,260.4,310.8,257,310.8z"
	/>
<path class="st0" d="M260.4,190c0,3.2,0,3.2-3.3,3.2c-3.3,0-3.3,0-3.3-3.6c0-3.1,0-3.1,3.6-3.1C260.4,186.5,260.4,186.5,260.4,190z"
	/>
<path class="st0" d="M173,100.9c-3.3,0-3.3,0-3.3-3.6c-0.1-2.7,0.3-3.2,3.5-3.1c3.2,0.1,3.2,0,3.2,3.5
	C176.4,100.8,176.3,100.9,173,100.9z"/>
<path class="st0" d="M277.2,189.9c0,3.2,0,3.2-3.5,3.2c-3.2,0-3.2,0-3.2-3.8c0-2.9,0-2.9,3.8-2.9
	C277.2,186.5,277.2,186.5,277.2,189.9z"/>
<path class="st0" d="M290.7,125.9c-3.3,0-3.3,0-3.3-3.4c0-3.3,0-3.3,3.8-3.3c2.8,0,2.8,0,2.8,3.7
	C294.1,125.3,293.9,126.1,290.7,125.9z"/>
<path class="st0" d="M294,189.8c0.2,3.3-0.7,3.4-3,3.3c-3.6-0.1-3.6,0-3.6-3.5c0-3.2,0-3.2,3.7-3.2C294,186.5,294,186.5,294,189.8z"
	/>
<path class="st0" d="M144.6,97.3c0-3.1,0-3.1,3.6-3.1c2.3,0,3.3-0.1,3.1,3.9c-0.1,2.7-0.2,2.8-3.7,2.8
	C144.7,100.8,144.6,100.8,144.6,97.3z"/>
<path class="st0" d="M142.8,97.5c0,3.3,0,3.3-3.2,3.3c-3.5,0-3.5,0-3.5-3.5c0-3.2,0-3.2,3.5-3.2C142.8,94.2,142.8,94.2,142.8,97.5z"
	/>
<path class="st0" d="M134.5,97.6c0,3.2-0.1,3.3-3.3,3.3c-3.4,0-3.4,0-3.4-3.9c0-2.7,0.1-2.7,3.6-2.8
	C133.8,94.1,134.7,94.1,134.5,97.6z"/>
<path class="st0" d="M126,97.6c0,3.2,0,3.2-3.7,3.2c-3,0-2.9,0-3-3.8c0-2.4,0.1-3.1,3.8-3C125.9,94.2,126,94.2,126,97.6z"/>
<path class="st0" d="M114.3,100.9c-3.3,0-3.3,0-3.3-3.5c0-3.2,0-3.2,3.3-3.2c3.4,0,3.4,0,3.4,3.6
	C117.7,100.8,117.6,100.9,114.3,100.9z"/>
<path class="st0" d="M100.9,97.6c0,3.2-0.1,3.3-3.1,3.3c-3.6,0-3.6,0-3.6-3.1c0-3.5,0-3.6,3.2-3.6C100.9,94.2,100.9,94.2,100.9,97.6
	z"/>
<path class="st0" d="M294,139.2c0,3.5,0,3.5-3.6,3.5c-3.1,0-3.1,0-3.1-3.4c0-3.2,0.1-3.2,2.9-3.2C294,136.1,294,136.1,294,139.2z"/>
<path class="st0" d="M50.5,122.7c0,3.3,0,3.3-3.8,3.3c-2.8,0-2.8,0-2.8-3.5c0-3.2,0-3.2,3.7-3.2C50.4,119.3,50.5,119.3,50.5,122.7z"
	/>
<path class="st0" d="M92.4,97.6c0,3.3,0,3.3-3.5,3.3c-3.1,0-3.2-0.1-3.2-3.3c0-3.3,0-3.4,3.6-3.4C92.3,94.2,92.4,94.2,92.4,97.6z"/>
<path class="st0" d="M84.1,97.4c0,3.4,0,3.4-3.1,3.4c-3.5,0-3.6,0-3.6-3.2c0-3.5,0-3.5,3.3-3.5C84.1,94.2,84.1,94.2,84.1,97.4z"/>
<path class="st0" d="M72.2,100.9c-3.2,0-3.3-0.1-3.3-3.1c0-3.6,0-3.6,3.5-3.6c3,0,3.2,0.1,3.2,3C75.6,100.9,75.6,100.9,72.2,100.9z"
	/>
<path class="st0" d="M277.2,139.5c0,3.2,0,3.2-3.5,3.2c-3.2,0-3.2,0-3.2-3.5c0-3.1,0-3.1,3.6-3.1
	C277.2,136.1,277.2,136.1,277.2,139.5z"/>
<path class="st0" d="M43.8,97.5c0-3.2,0.1-3.3,3-3.3c3.6,0,3.6,0,3.6,2.9c0,3.8,0,3.8-3.1,3.8C43.8,100.9,43.8,100.9,43.8,97.5z"/>
<path class="st0" d="M41.9,97.6c0,3.2-0.1,3.2-3.1,3.2c-3.5,0-3.6-0.1-3.6-3c0-3.7,0-3.7,3.2-3.7C41.9,94.2,41.9,94.2,41.9,97.6z"/>
<path class="st0" d="M13.5,100.9c-3.3,0-3.3,0-3.3-3.4c0-3.3,0-3.3,3.5-3.3c3.2,0,3.2,0,3.2,3.3C16.9,100.8,16.9,100.9,13.5,100.9z"
	/>
<path class="st0" d="M257.2,142.7c-3.4,0-3.4,0-3.4-3.1c0-3.6,0-3.6,3.1-3.6c3.5,0,3.5,0,3.5,3.4
	C260.4,142.7,260.4,142.7,257.2,142.7z"/>
<path class="st0" d="M237,139.3c0-3.3,0-3.3,3.6-3.3c3,0,3,0,3,3.5c0,3.2,0,3.2-3.5,3.2C236.9,142.7,236.9,142.7,237,139.3z"/>
<path class="st0" d="M13.7,209.9c-3.5,0-3.5,0-3.5-3c0-3.6,0-3.6,3.3-3.6c3.4,0,3.4,0,3.4,3.5C16.9,209.9,16.8,209.9,13.7,209.9z"/>
<path class="st0" d="M33.7,206.7c0,3.2,0,3.2-3.5,3.2c-3.2,0-3.2,0-3.2-3.3c0-3.3,0-3.3,3.4-3.3C33.7,203.3,33.7,203.3,33.7,206.7z"
	/>
<path class="st0" d="M55.3,209.9c-3.2,0-3.2,0-3.2-3.3c0-3.4,0-3.3,3.6-3.4c2.7-0.1,3.2,0.4,3.1,3.2
	C58.7,209.9,58.8,209.9,55.3,209.9z"/>
<path class="st0" d="M63.9,209.9c-3.3,0-3.3,0-3.3-3.6c0-3,0-3,3.5-3c3.2,0,3.1,0,3.2,3.7C67.4,209.3,67.2,210.2,63.9,209.9z"/>
<path class="st0" d="M114.5,203.3c3.2,0,3.2,0,3.2,3.3c0,3.3,0,3.3-3.6,3.3c-3.1,0-3.1,0-3.1-3.8C111,203.3,111,203.3,114.5,203.3z"
	/>
<path class="st0" d="M126,206.8c0,3.2,0,3.2-3.7,3.2c-3,0-3,0-3-3.8c0-2.9,0-2.9,3.8-2.9C125.3,203.2,126.2,203.3,126,206.8z"/>
<path class="st0" d="M139.5,203.3c3.3,0,3.3,0,3.3,3.8c0,2.8,0,2.8-3.7,2.8c-3,0-3,0-3-3.7C136.1,203.3,136.1,203.3,139.5,203.3z"/>
<path class="st0" d="M52.1,122.5c0-3.3,0-3.3,3.5-3.3c3.2,0,3.2,0,3.2,3.5c0,3.2,0,3.2-3.5,3.2C52.1,125.9,52.1,125.9,52.1,122.5z"
	/>
<path class="st0" d="M176.4,206.7c0,3.3,0,3.3-3.6,3.3c-3,0-3,0-3-3.7c0-3,0-2.9,3.7-3C175.8,203.2,176.6,203.4,176.4,206.7z"/>
<path class="st0" d="M270.6,89c0-3.3,0-3.3,3.4-3.3c3.3,0,3.3,0,3.3,3.7c0,3,0,3-3.5,3.1C271.1,92.4,270.4,92.2,270.6,89z"/>
<path class="st0" d="M243.6,89.1c0,3.2-0.1,3.3-3.1,3.3c-3.6,0-3.6,0-3.6-3.3c0-3.4,0-3.4,3.8-3.4C243.6,85.6,243.6,85.7,243.6,89.1
	z"/>
<path class="st0" d="M223.6,92.3c-3.5,0-3.5,0-3.5-3.3c0-3.4,0-3.4,3.5-3.4c3.2,0,3.2,0,3.2,3.6C226.8,92.3,226.8,92.3,223.6,92.3z"
	/>
<path class="st0" d="M226.8,139.4c0,3.3,0,3.3-3.4,3.3c-3.3,0-3.3,0-3.3-3.7c0-3,0-2.9,3.7-3C226.3,136,227,136.3,226.8,139.4z"/>
<path class="st0" d="M277.2,206.7c0,3.3,0,3.3-3.5,3.3c-3.2,0-3.2,0-3.2-3.5c0-3.2,0-3.1,3.7-3.2
	C276.5,203.2,277.5,203.3,277.2,206.7z"/>
<path class="st0" d="M206.7,85.6c3.3,0,3.3,0,3.3,3.5c0,3.2,0,3.2-3.9,3.2c-2.7,0-2.8-0.1-2.8-3.6C203.3,85.7,203.4,85.6,206.7,85.6
	z"/>
<path class="st0" d="M290.6,209.9c-3.2,0-3.2,0-3.2-3.7c0-3,0-3,3.6-3c3.1,0,3.1,0,3.1,3.8C294,209.9,294,209.9,290.6,209.9z"/>
<path class="st0" d="M304.2,206.6c0-3.3,0-3.3,3.6-3.3c3,0,3,0,3,3.5c0,3.2,0,3.2-3.5,3.2C304.2,209.9,304.2,209.9,304.2,206.6z"/>
<path class="st0" d="M67.3,122.6c0,3.3,0,3.3-3.4,3.3c-3.2,0-3.2,0-3.2-3.3c0-3.4,0-3.3,3.5-3.4C66.7,119.2,67.5,119.4,67.3,122.6z"
	/>
<path class="st0" d="M131.3,85.6c3.1,0,3.2,0.1,3.2,3.1c0,3.5,0,3.6-3.2,3.6c-3.5,0-3.5,0-3.5-3.2C127.8,85.6,127.8,85.6,131.3,85.6
	z"/>
<path class="st0" d="M114.5,85.6c3.2,0,3.2,0,3.2,3.7c0,2.9-0.1,3-3.6,3c-3.1,0-3.1,0-3.1-3.6C111,85.6,111,85.6,114.5,85.6z"/>
<path class="st0" d="M206.8,136.1c3.1,0,3.2,0.1,3.2,2.9c0,3.7,0,3.7-2.8,3.7c-3.9,0-3.9,0-3.9-3
	C203.3,136.1,203.3,136.1,206.8,136.1z"/>
<path class="st0" d="M105.7,92.3c-3.1,0-3.2-0.1-3.2-3c0-3.7,0-3.7,3-3.7c3.7,0,3.7,0,3.7,3.4C109.2,92.3,109.2,92.3,105.7,92.3z"/>
<path class="st0" d="M97.5,85.6c3.4,0,3.4,0,3.4,3.7c0,2.8-0.1,3-3.4,3c-3.3,0-3.3,0-3.3-3.4C94.2,85.7,94.3,85.6,97.5,85.6z"/>
<path class="st0" d="M84.1,89.1c0,3.2,0,3.2-3.5,3.2c-3.2,0-3.2,0-3.2-3.6c0-3.1,0-3.1,3.8-3.1C84,85.6,84.1,85.7,84.1,89.1z"/>
<path class="st0" d="M92.4,139.5c0,3.2,0,3.2-3.3,3.2c-3.4,0-3.4,0-3.4-3.5c0-3.1,0-3.1,3.6-3.1C92.4,136.1,92.4,136.1,92.4,139.5z"
	/>
<path class="st0" d="M72.4,85.6c3.2,0,3.2,0,3.2,3.9c0,2.7-0.1,2.8-3.8,2.8c-2.9,0-2.9,0-2.9-3.8C68.9,85.7,69,85.6,72.4,85.6z"/>
<path class="st0" d="M72.3,136.1c3.3,0,3.3,0,3.3,3.7c0,3,0,3-3.7,3c-3,0-3,0-3-3.7C68.9,136.1,69,136.1,72.3,136.1z"/>
<path class="st0" d="M58.8,89.1c0,3.2,0,3.2-3.5,3.2c-3.1,0-3.2,0-3.2-3.6c0-3.1,0-3.1,3.8-3.1C58.7,85.6,58.8,85.7,58.8,89.1z"/>
<path class="st0" d="M50.5,89.1c0,3.2,0,3.2-3.7,3.2c-2.9,0-3,0-2.9-3.6c0-3.1,0-3.1,3.8-3.1C50.4,85.6,50.5,85.7,50.5,89.1z"/>
<path class="st0" d="M67.3,139.4c0,3.3,0,3.3-3.2,3.3c-3.4,0-3.4,0-3.4-3.5c0-3.2,0-3.2,3.5-3.2C67.3,136.1,67.3,136.1,67.3,139.4z"
	/>
<path class="st0" d="M38.5,92.3c-2.6,0.1-3.4,0-3.3-3.5c0.1-3.2,0-3.2,3.7-3.2c2.9,0,3,0,3,3.6C41.9,92.3,41.9,92.3,38.5,92.3z"/>
<path class="st0" d="M58.8,139.5c0,3.3,0,3.3-3.7,3.2c-3,0-3,0-3-3.7c0-2.9,0-3,3.8-3C58.7,136.1,58.8,136.1,58.8,139.5z"/>
<path class="st0" d="M50.5,139.6c0,3.1,0,3.1-3.6,3.1c-3.1,0-3.1,0-3.1-3.6c0-3.1,0-3.1,3.6-3.1C50.4,136.1,50.5,136.1,50.5,139.6z"
	/>
<path class="st0" d="M30.2,92.3c-3.2,0-3.2,0-3.2-3.5c0-3.2,0-3.2,3.5-3.2c3.2,0,3.1,0,3.2,3.6C33.8,92,33.3,92.5,30.2,92.3z"/>
<path class="st0" d="M1.6,88.9c0-3.2,0.1-3.2,3.8-3.2c2.8,0,3.1,0.3,3,3.2c0,3.5,0,3.5-3.7,3.5C1.8,92.3,1.6,92.2,1.6,88.9z"/>
<path class="st0" d="M223.5,310.8c-3.4,0-3.4,0-3.4-3.3c0-3.3,0-3.3,3.4-3.3c3.3,0,3.3,0,3.3,3.6
	C226.8,310.8,226.8,310.8,223.5,310.8z"/>
<path class="st0" d="M33.7,223.5c0,3.2,0,3.2-3.7,3.2c-3,0-3,0-3-3.5c0-3.1,0-3.1,3.8-3.1C33.6,220.1,33.7,220.1,33.7,223.5z"/>
<path class="st0" d="M55.5,220.1c3.2,0,3.2,0,3.2,3.7c0,3,0,3-3.6,3c-3.1,0-3.1,0-3.1-3.8C52.1,220.2,52.2,220.1,55.5,220.1z"/>
<path class="st0" d="M75.6,223.5c0,3.3,0,3.3-3.6,3.3c-3.1,0-3.1,0-3.1-3.7c0-3,0-3,3.5-3C75.6,220.1,75.6,220.1,75.6,223.5z"/>
<path class="st0" d="M89,226.8c-3.3,0-3.3,0-3.3-3.6c0-3,0-3,3.7-3.1c2.3,0,3.1,0,3,3.6C92.3,226.7,92.4,226.8,89,226.8z"/>
<path class="st0" d="M100.9,223.5c0,3.2,0,3.2-3.7,3.2c-2.3,0-3.1-0.1-3-3.4c0.1-3.3,0-3.3,3.4-3.3
	C100.9,220.1,100.9,220.1,100.9,223.5z"/>
<path class="st0" d="M114.2,226.8c-3.2,0-3.2,0-3.2-3.5c0-3.2,0-3.2,3.5-3.2c3.1,0,3.1,0,3.1,3.8
	C117.7,226.7,117.7,226.8,114.2,226.8z"/>
<path class="st0" d="M134.5,223.5c0,3.3,0,3.3-3.5,3.3c-3.2,0-3.2,0-3.2-3.5c0-3.2,0-3.2,3.8-3.2
	C134.4,220.1,134.5,220.2,134.5,223.5z"/>
<path class="st0" d="M294,80.8c0.2,3-0.5,3.3-3.1,3.3c-3.6-0.1-3.6,0-3.6-3.7c0-3,0-2.9,3.6-3C293.3,77.3,294.3,77.3,294,80.8z"/>
<path class="st0" d="M84.1,122.7c0,3.2,0,3.2-3.5,3.2c-3.2,0-3.2,0-3.2-3.3c0-3.4,0-3.3,3.6-3.4C83.5,119.2,84.3,119.3,84.1,122.7z"
	/>
<path class="st0" d="M206.8,226.8c-3.5,0-3.5,0-3.5-3.4c0-3.2,0-3.3,3.1-3.3c3.6,0,3.5,0,3.6,3.5
	C210.1,226.4,209.7,226.9,206.8,226.8z"/>
<path class="st0" d="M310.9,131.1c0,3.3,0,3.3-3.6,3.3c-3.1,0-3.1,0-3.1-3.7c0-3,0-3,3.5-3C310.8,127.8,310.9,127.8,310.9,131.1z"/>
<path class="st0" d="M223.3,226.8c-3.2,0-3.2,0-3.2-3.6c0-3.1,0-3.1,3.6-3.1c3.1,0,3.1,0,3.1,3.9
	C226.8,226.8,226.8,226.8,223.3,226.8z"/>
<path class="st0" d="M240.4,220.1c3.3,0,3.3,0,3.3,3.3c0,3.4,0,3.4-3.3,3.4c-3.4,0-3.4,0-3.4-3.4
	C236.9,220.1,236.9,220.1,240.4,220.1z"/>
<path class="st0" d="M277.2,223.5c0,3.3,0,3.2-3.7,3.3c-2.4,0-3.1-0.1-3-3.3c0.1-3.4,0-3.4,3.8-3.4
	C277.2,220.1,277.2,220.1,277.2,223.5z"/>
<path class="st0" d="M290.9,220.1c3.1,0,3.2,0,3.2,3.2c0,3.5,0,3.5-3.6,3.5c-3.1,0-3.1,0-3.1-3.4
	C287.4,220.1,287.4,220.1,290.9,220.1z"/>
<path class="st0" d="M257.2,77.3c2.8-0.2,3.4,0.2,3.3,3.3c-0.1,3.4,0,3.4-3.5,3.4c-3.1,0-3.1,0-3.1-3.6
	C253.8,77.3,253.8,77.3,257.2,77.3z"/>
<path class="st0" d="M243.6,80.8c0,3.2,0,3.2-3.1,3.2c-3.6,0-3.6,0-3.6-3.8c0-2.9,0-2.9,3.6-3C242.9,77.3,243.8,77.3,243.6,80.8z"/>
<path class="st0" d="M220.1,80.7c0-3.3,0-3.3,3.2-3.3c3.5,0,3.5,0,3.5,3.5c0,3.2,0,3.2-3.7,3.2C220.2,84,220.1,84,220.1,80.7z"/>
<path class="st0" d="M210,80.6c0,3.5,0,3.4-3.6,3.5c-2.4,0-3.2,0-3-3.5c0.1-3.2,0-3.2,3.8-3.2C209.9,77.3,210,77.4,210,80.6z"/>
<path class="st0" d="M193.2,80.8c0,3.3,0,3.3-3.7,3.3c-3,0-3,0-3-3.7c0-2.4,0.1-3.1,3.6-3C192.7,77.4,193.4,77.5,193.2,80.8z"/>
<path class="st0" d="M159.6,80.8c0,3.3,0,3.3-3.6,3.3c-3,0-3,0-3-3.7c0-3,0-3,3.7-3C159.5,77.3,159.6,77.4,159.6,80.8z"/>
<path class="st0" d="M122.7,84c-3.4,0-3.4,0-3.4-3.6c0-3.1,0-3.1,3.8-3.1c2.9,0,2.8,0,2.9,3.7C126,83.3,126,84.3,122.7,84z"/>
<path class="st0" d="M114.4,77.3c3.2,0,3.3,0,3.3,3.3c0,3.4,0,3.4-3.5,3.4c-3.1,0-3.1,0-3.1-3.4C111,77.3,111,77.3,114.4,77.3z"/>
<path class="st0" d="M105.8,84c-3,0.2-3.4-0.5-3.3-3.1c0.1-3.6,0-3.6,3.1-3.6c3.6,0,3.6,0,3.6,3.4C109.2,84,109.2,84,105.8,84z"/>
<path class="st0" d="M97.5,77.3c3.4,0,3.4,0,3.4,3.5c0,3.1,0,3.1-3.4,3.1c-3.3,0-3.3,0-3.3-3.4C94.2,77.4,94.2,77.3,97.5,77.3z"/>
<path class="st0" d="M92.4,80.8c0,3.3,0,3.3-3.5,3.3c-3.2,0-3.2,0-3.2-3.7c0-3,0-3,3.8-3C92.3,77.3,92.4,77.4,92.4,80.8z"/>
<path class="st0" d="M30.3,84C27,84,27,84,27,80.8c0-3.4,0-3.4,3.3-3.4c3.4,0,3.4,0,3.4,3.8C33.7,84,33.6,84,30.3,84z"/>
<path class="st0" d="M1.6,80.5c0-3.1,0.1-3.2,3.6-3.2c3.2,0,3.2,0.1,3.2,3.7c0,2.8-0.2,3-3.6,3C1.7,84,1.6,83.9,1.6,80.5z"/>
<path class="st0" d="M310.9,72.3c0,3.3,0,3.3-3.7,3.3c-3,0-3,0-3-3.3c0-3.4,0-3.4,3.6-3.4C310.9,68.8,310.9,68.8,310.9,72.3z"/>
<path class="st0" d="M274,68.8c3.2,0,3.2,0.1,3.2,3.1c0,3.6,0,3.6-3.5,3.6c-3.1,0-3.1,0-3.1-3.8C270.6,68.8,270.6,68.8,274,68.8z"/>
<path class="st0" d="M260.4,72.2c0,3.3,0,3.3-3,3.3c-3.7,0-3.7,0-3.7-3c0-3.6,0-3.6,3.3-3.6C260.4,68.8,260.4,68.8,260.4,72.2z"/>
<path class="st0" d="M176.4,72.3c0,3.2,0,3.2-3.7,3.2c-3,0-3,0-3-3.7c0-2.9,0-2.9,3.8-2.9C176.3,68.8,176.4,68.9,176.4,72.3z"/>
<path class="st0" d="M294,131.2c0,3.2,0,3.2-3.5,3.2c-3.2,0-3.2,0-3.2-3.6c0-3.1,0-3.1,3.6-3.1C294,127.8,294,127.8,294,131.2z"/>
<path class="st0" d="M142.8,72.2c0,3.3,0,3.3-3.2,3.3c-3.4,0-3.4,0-3.4-3.7c0-3,0-3,3.7-3C142.7,68.8,142.8,68.9,142.8,72.2z"/>
<path class="st0" d="M127.8,72c0-3.2,0-3.2,3.1-3.2c3.6,0,3.6,0,3.6,3.4c0,3.3,0,3.3-3.6,3.3C127.8,75.5,127.8,75.5,127.8,72z"/>
<path class="st0" d="M277.2,131.2c0,3.3,0,3.3-3.3,3.3c-3.4,0-3.4,0-3.4-3.1c0-3.5,0-3.5,3.2-3.5
	C277.2,127.8,277.2,127.8,277.2,131.2z"/>
<path class="st0" d="M13.4,243.6c-3.2,0-3.2,0-3.2-3.5c0-3.2,0-3.2,3.5-3.2c3.2,0,3.2,0,3.1,3.8C16.9,243.5,16.8,243.6,13.4,243.6z"
	/>
<path class="st0" d="M33.7,240.2c0,3.3,0,3.3-3.4,3.3c-3.3,0-3.3,0-3.3-3.4c0-3.2,0-3.2,3.5-3.2C33.7,236.9,33.7,236.9,33.7,240.2z"
	/>
<path class="st0" d="M50.5,240.4c0,3.2,0,3.2-3.4,3.2c-3.3,0-3.3,0-3.3-3.4c0-3.3,0-3.3,3.6-3.3C50.5,236.9,50.5,236.9,50.5,240.4z"
	/>
<path class="st0" d="M58.8,240.3c0,3.3,0,3.3-3.3,3.3c-3.4,0-3.4,0-3.4-3.3c0-3.4,0-3.4,3.4-3.4C58.8,236.9,58.8,236.9,58.8,240.3z"
	/>
<path class="st0" d="M72.2,243.6c-3.3,0-3.3,0-3.3-3.8c0-2.8,0-2.8,3.7-2.8c3,0,3,0,3,3.5C75.6,243.6,75.6,243.6,72.2,243.6z"/>
<path class="st0" d="M100.9,240.4c0,3.2,0,3.2-3.5,3.2c-3.2,0-3.2,0-3.2-3.6c0-3,0.1-3.1,3-3.1C100.9,236.9,100.9,236.9,100.9,240.4
	z"/>
<path class="st0" d="M105.9,236.9c3.3,0,3.3,0,3.3,3.5c0,3.2,0,3.2-3.7,3.2c-3,0-3,0-3-3.8C102.5,236.9,102.5,236.9,105.9,236.9z"/>
<path class="st0" d="M117.7,240.4c0,3-0.1,3.2-3,3.2c-3.7,0-3.7,0-3.7-3c0-3.7,0-3.7,3.1-3.7C117.7,236.9,117.7,236.9,117.7,240.4z"
	/>
<path class="st0" d="M119.3,240.1c0-3.3,0-3.3,3.7-3.3c3,0,3,0,3,3.5c0,3.2,0,3.2-3.8,3.2C119.3,243.6,119.3,243.5,119.3,240.1z"/>
<path class="st0" d="M142.8,240.4c0,3.2,0,3.2-3.5,3.2c-3.1,0-3.1,0-3.1-3.4c0-3.3,0-3.3,3.6-3.3
	C142.8,236.9,142.8,236.9,142.8,240.4z"/>
<path class="st0" d="M173,243.6c-3.3,0-3.3,0-3.3-3.6c0-3,0-3,3.7-3c3,0,3,0,3,3.5C176.4,243.6,176.4,243.6,173,243.6z"/>
<path class="st0" d="M193.2,240.3c0,3.3,0,3.3-3.6,3.3c-3,0-3,0-3-3.7c0-3,0-3,3.7-3C193.2,236.9,193.2,236.9,193.2,240.3z"/>
<path class="st0" d="M210,240.3c0,3.3,0,3.3-3.4,3.3c-3.2,0-3.2,0-3.2-3.3c0-3.3,0-3.4,3-3.4C210,236.9,210,236.9,210,240.3z"/>
<path class="st0" d="M111,72.1c0-3.3,0-3.3,3.6-3.3c3.1,0,3.1,0,3.1,3.9c0,2.8,0,2.8-3.7,2.8C111.1,75.5,111,75.4,111,72.1z"/>
<path class="st0" d="M240.4,236.9c3.2,0,3.2,0,3.2,3.5c0,3.2,0,3.2-3.7,3.2c-2.9,0-2.9,0-2.9-3.8C237,236.9,237,236.9,240.4,236.9z"
	/>
<path class="st0" d="M105.8,75.5c-3.2,0-3.3-0.1-3.3-3c0-3.7,0-3.7,3.3-3.7c3.4,0,3.4,0,3.4,3.5C109.2,75.5,109.1,75.5,105.8,75.5z"
	/>
<path class="st0" d="M260.4,240.2c0,3.4,0,3.4-3.3,3.4c-3.3,0-3.3,0-3.3-3.8c0-2.9,0-2.9,3.6-2.9
	C260.4,236.9,260.4,236.9,260.4,240.2z"/>
<path class="st0" d="M97.6,68.8c3.3,0,3.3,0,3.3,3.6c0,3,0,3.1-3.5,3.1c-3.2,0-3.2,0-3.2-3.5C94.2,68.9,94.3,68.8,97.6,68.8z"/>
<path class="st0" d="M270.6,240.1c-0.2-3.1,0.7-3.3,2.9-3.2c3.7,0.1,3.7,0,3.8,3.2c0,3.5,0,3.5-3.2,3.5
	C270.6,243.6,270.6,243.6,270.6,240.1z"/>
<path class="st0" d="M80.7,75.5c-3.3,0-3.3,0-3.3-3.2c0-3.4,0-3.4,3.1-3.4c3.6,0,3.6,0,3.6,3.2C84.1,75.5,84.1,75.5,80.7,75.5z"/>
<path class="st0" d="M290.8,236.9c3.2,0,3.2,0,3.2,3.7c0,3,0,3-3.7,3c-2.9,0-2.9,0-2.9-3.8C287.4,236.9,287.4,236.9,290.8,236.9z"/>
<path class="st0" d="M310.9,240.3c0,3.3,0,3.3-3.4,3.3c-3.3,0-3.3,0-3.3-3.7c0-3,0-3,3.7-3C310.8,236.9,310.8,236.9,310.9,240.3z"/>
<path class="st0" d="M72.2,75.5c-3.3,0-3.3,0-3.3-3.6c0-3,0-3.1,3.7-3c3,0,3,0,3,3.7C75.6,75.5,75.5,75.5,72.2,75.5z"/>
<path class="st0" d="M67.3,72.4c0,3.2,0,3.2-3.8,3.2c-2.9,0-2.9,0-2.9-3.8c0-2.9,0-2.9,3.8-2.9C67.2,68.8,67.3,68.9,67.3,72.4z"/>
<path class="st0" d="M58.8,72.2c0,3.3,0,3.3-3.4,3.3c-3.2,0-3.2-0.1-3.2-3.1c0-3.6,0-3.6,3.6-3.6C58.7,68.8,58.8,68.9,58.8,72.2z"/>
<path class="st0" d="M41.9,72.2c0,3.4,0,3.4-3.8,3.3c-2.9,0-2.9,0-2.9-3.8c0-2.8,0.1-2.9,3.9-2.9C41.8,68.8,42,69,41.9,72.2z"/>
<path class="st0" d="M97.6,119.2c3.3,0,3.3,0,3.3,3.4c0,3.2,0,3.2-3.7,3.2c-3,0-3,0-3-3.5C94.2,119.3,94.3,119.2,97.6,119.2z"/>
<path class="st0" d="M240.2,67.2c-3.3,0-3.3,0-3.3-3.6c0-3,0-3,3.7-3c3,0,3,0,3,3.7C243.6,67.2,243.6,67.2,240.2,67.2z"/>
<path class="st0" d="M210,64c0,3.3,0,3.3-3.4,3.3c-3.2,0-3.2,0-3.2-3.5c0-3.2,0-3.2,3.9-3.2C209.9,60.6,210,60.6,210,64z"/>
<path class="st0" d="M169.7,63.8c0-3.2,0-3.2,3.7-3.2c3,0,3,0,3,3.5c0,3.1,0,3.1-3.6,3.1C170.3,67.3,169.5,67.2,169.7,63.8z"/>
<path class="st0" d="M139.6,60.6c3.2,0,3.2,0,3.2,3.7c0,2.9,0,3-3.6,3c-3.1,0-3.1,0-3.1-3.8C136.1,60.6,136.1,60.6,139.6,60.6z"/>
<path class="st0" d="M117.7,64c0,3.2,0,3.2-3.5,3.2c-3.2,0-3.2,0-3.1-3.6c0-3.1,0-3.1,3.4-3.1C117.7,60.6,117.7,60.6,117.7,64z"/>
<path class="st0" d="M100.9,64c0,3.3,0,3.3-3.5,3.3c-3.2,0-3.2,0-3.2-3.7c0-3,0-3,3.7-3C100.9,60.6,100.9,60.6,100.9,64z"/>
<path class="st0" d="M85.7,63.8c0-3.2,0-3.2,3.5-3.2c3.2,0,3.2,0,3.2,3.5c0,3.1,0,3.1-3.6,3.2C86.4,67.3,85.5,67.2,85.7,63.8z"/>
<path class="st0" d="M80.8,60.6c3.3,0,3.3,0,3.3,3.6c0,3,0,3-3.7,3c-3,0-3,0-3-3.8C77.4,60.6,77.5,60.6,80.8,60.6z"/>
<path class="st0" d="M75.6,64.1c0,3.2,0,3.2-3.7,3.2c-2.9,0-2.9,0-2.9-3.6c0-3.1,0-3.1,3.8-3.1C75.6,60.6,75.6,60.6,75.6,64.1z"/>
<path class="st0" d="M243.6,55.4c0,3.2,0,3.3-3,3.3c-3.6,0-3.6,0-3.6-3.5c0-3.2,0-3.2,3.5-3.2C243.6,52,243.6,52,243.6,55.4z"/>
<path class="st0" d="M223.5,58.7c-3.3,0-3.3,0-3.3-3.6c0-3.1,0-3.1,3.5-3.1c3.2,0,3.2,0,3.2,3.7C226.8,58.7,226.8,58.7,223.5,58.7z"
	/>
<path class="st0" d="M206.6,58.7c-2.9,0.2-3.3-0.4-3.2-3.1c0.1-3.6,0-3.6,3-3.6c3.7,0,3.7,0,3.7,3.2C210,58.7,210,58.7,206.6,58.7z"
	/>
<path class="st0" d="M72.2,260.4c-3.3,0-3.3,0-3.3-3.3c0-3.4,0-3.4,3.7-3.4c3,0,3,0,3,3.7C75.6,260.3,75.5,260.4,72.2,260.4z"/>
<path class="st0" d="M89,260.4c-3.3,0-3.3,0-3.3-3.4c0-3.2,0-3.2,3.7-3.2c3,0,3,0,3,3.5C92.4,260.3,92.3,260.4,89,260.4z"/>
<path class="st0" d="M109.2,257.1c0,3.3,0,3.2-3.6,3.3c-2.4,0-3.2,0-3.1-3.5c0.1-3.2,0-3.1,3.8-3.2
	C108.6,253.6,109.4,253.9,109.2,257.1z"/>
<path class="st0" d="M114.4,253.7c3.3,0,3.3,0.1,3.3,3c0,3.7,0,3.7-3.7,3.7c-3,0-3,0-3-3.7C111,253.7,111.1,253.7,114.4,253.7z"/>
<path class="st0" d="M122.8,253.7c3.2,0,3.2,0,3.2,3.5c0,3.2,0,3.2-3.4,3.2c-3.3,0-3.3,0-3.3-3.6
	C119.3,253.7,119.3,253.7,122.8,253.7z"/>
<path class="st0" d="M134.5,257.1c0,3.2-0.1,3.3-3.1,3.3c-3.6,0-3.6,0-3.6-2.9c0-3.8,0-3.8,3.3-3.8
	C134.5,253.7,134.5,253.7,134.5,257.1z"/>
<path class="st0" d="M151.3,257.1c0,3.3,0,3.3-3.7,3.2c-3,0-3,0-3-3.9c0-2.7,0.1-2.8,3.8-2.8C151.2,253.7,151.3,253.8,151.3,257.1z"
	/>
<path class="st0" d="M193.2,55.5c0,3.2,0,3.2-3.7,3.2c-3,0-3,0-3-3.7c0-2.9,0-2.9,3.8-2.9C193.1,52,193.2,52.1,193.2,55.5z"/>
<path class="st0" d="M206.5,260.4c-3.2,0-3.2,0-3.2-3.9c0-2.8,0-2.8,3.8-2.8c2.9,0,2.9,0,2.9,3.8C210,260.4,210,260.4,206.5,260.4z"
	/>
<path class="st0" d="M243.6,257.2c0,3.1,0,3.1-3.4,3.1c-3.3,0-3.3,0-3.3-3.6c0-3,0-3,3.5-3C243.6,253.7,243.6,253.7,243.6,257.2z"/>
<path class="st0" d="M253.8,256.9c0-3.2,0-3.2,3.7-3.2c2.9,0,2.9,0,2.9,3.6c0,3.1,0,3.1-3.6,3.1
	C253.8,260.4,253.8,260.4,253.8,256.9z"/>
<path class="st0" d="M273.9,260.4c-3.3,0.2-3.4-0.6-3.4-3c0.1-3.7,0-3.7,3.4-3.7c3.2,0,3.2,0,3.2,3.5
	C277.2,260.4,277.2,260.4,273.9,260.4z"/>
<path class="st0" d="M172.9,58.7c-3.2,0-3.2,0-3.2-3.5c0-3.2,0-3.2,3.8-3.2c2.9,0,2.9,0,2.9,3.6C176.4,58.7,176.4,58.7,172.9,58.7z"
	/>
<path class="st0" d="M156.2,58.7c-3.3,0-3.3,0-3.3-3.4c0-3.3,0-3.3,3.7-3.3c3,0,3,0,3,3.7C159.6,58.7,159.5,58.7,156.2,58.7z"/>
<path class="st0" d="M136.1,55.3c0-3.3,0-3.3,3.9-3.3c2.8,0,2.8,0.1,2.8,3.5c0,3.2,0,3.2-3.8,3.2C136.1,58.7,136.1,58.7,136.1,55.3z
	"/>
<path class="st0" d="M122.5,58.7c-3.2,0-3.2,0-3.2-3.5c0-3.2,0-3.2,3.6-3.2c3.1,0,3.1,0,3.1,3.8C126,58.7,126,58.7,122.5,58.7z"/>
<path class="st0" d="M109.2,55.5c0,3.2,0,3.2-3.9,3.2c-2.7,0-2.8-0.1-2.8-3.5c0-3.1,0-3.1,3.8-3.1C109.1,52,109.2,52.1,109.2,55.5z"
	/>
<path class="st0" d="M92.4,55.5c0,3.2,0,3.2-3.3,3.2c-3.4,0-3.4,0-3.4-3.3c0-3.4,0-3.4,3.4-3.4C92.4,52,92.4,52,92.4,55.5z"/>
<path class="st0" d="M75.6,55.4c0,3.3,0,3.3-3.4,3.3c-3.2,0-3.2,0-3.2-3.7c0-2.9,0.1-3,3.4-3C75.6,52,75.6,52,75.6,55.4z"/>
<path class="st0" d="M243.6,47.1c0,3.3,0,3.3-3.4,3.3c-3.2,0-3.2,0-3.2-3.3c0-3.4,0-3.4,3.5-3.4C243.6,43.8,243.6,43.8,243.6,47.1z"
	/>
<path class="st0" d="M206.7,43.8c3.3,0,3.3,0,3.3,3.2c0,3.5,0,3.5-3.8,3.5c-2.8,0-2.8,0-2.8-3.7C203.3,44.3,203.5,43.6,206.7,43.8z"
	/>
<path class="st0" d="M176.4,47.1c0,3.3,0,3.3-3.4,3.3c-3.3,0-3.3,0-3.3-3.6c0-3,0-3,3.7-3C176.4,43.8,176.4,43.8,176.4,47.1z"/>
<path class="st0" d="M240.3,127.8c3.2,0,3.3,0,3.3,3c0,3.6,0,3.6-3.3,3.6c-3.4,0-3.4,0-3.4-3.5C236.9,127.8,237,127.8,240.3,127.8z"
	/>
<path class="st0" d="M147.9,50.4c-3.3,0-3.3,0-3.3-3.4c0-3.2,0-3.2,3.5-3.2c3.2,0,3.1,0,3.2,3.5C151.4,49.9,151.1,50.6,147.9,50.4z"
	/>
<path class="st0" d="M136.1,47c0-3.3,0-3.3,3.6-3.3c3,0,3,0,3,3.5c0,3.2,0,3.2-3.7,3.2C136.1,50.4,136.1,50.4,136.1,47z"/>
<path class="st0" d="M126,47.2c0,3.2,0,3.2-3.7,3.2c-2.9,0-2.9,0-2.9-3.6c0-3.1,0-3.1,3.6-3.1C126,43.8,126,43.8,126,47.2z"/>
<path class="st0" d="M117.7,47.2c0,3.3,0,3.3-3.7,3.3c-3,0-3,0-3-3.9c0-2.7,0.1-2.8,3.8-2.8C117.7,43.8,117.7,43.8,117.7,47.2z"/>
<path class="st0" d="M75.6,273.7c0,3.5,0,3.5-3.4,3.5c-3.3,0-3.3,0-3.3-3.5c0-3.2,0-3.2,3.3-3.2C75.6,270.5,75.6,270.5,75.6,273.7z"
	/>
<path class="st0" d="M89,277.2c-3.3,0-3.3,0-3.3-3.6c0-3.1,0-3.1,3.7-3.1c3,0,3,0,3,3.7C92.4,277.1,92.3,277.2,89,277.2z"/>
<path class="st0" d="M94.2,273.7c0-3.2,0-3.2,3.3-3.2c3.4,0,3.4,0,3.4,3.6c0,3.1,0,3.1-3.6,3.1C94.7,277.3,94,277,94.2,273.7z"/>
<path class="st0" d="M117.7,273.9c0,3.3,0,3.3-3.4,3.3c-3.3,0-3.3,0-3.3-3.6c0-3,0-3,3.5-3C117.7,270.5,117.7,270.5,117.7,273.9z"/>
<path class="st0" d="M159.6,273.9c0,3.3,0,3.3-3.4,3.3c-3.2,0-3.2,0-3.2-3.5c0-3.2,0-3.2,3.7-3.2
	C159.6,270.5,159.6,270.5,159.6,273.9z"/>
<path class="st0" d="M186.5,273.8c0-3.3,0-3.3,3.5-3.2c3.2,0,3.2,0,3.2,3.7c0,3,0,3-3.8,3C186.5,277.2,186.5,277.2,186.5,273.8z"/>
<path class="st0" d="M109.2,47.2c0,3.2,0,3.2-3.5,3.2c-3.2,0-3.2,0-3.2-3.7c0-2.9,0-2.9,3.6-2.9C109.2,43.8,109.2,43.8,109.2,47.2z"
	/>
<path class="st0" d="M210,273.9c0,3.3,0,3.3-3.6,3.3c-3,0-3,0-3-3.7c0-3,0-3,3.7-3C210,270.5,210,270.5,210,273.9z"/>
<path class="st0" d="M105.8,125.9c-3.3,0-3.3,0-3.3-3.6c-0.1-2.5,0.2-3.2,3.3-3.1c3.4,0.1,3.4,0,3.4,3.5
	C109.2,125.9,109.2,125.9,105.8,125.9z"/>
<path class="st0" d="M223.6,270.5c3-0.2,3.3,0.4,3.2,3.1c-0.1,3.6,0,3.6-3.6,3.6c-3.1,0-3.1,0-3.1-3.6
	C220.1,270.5,220.1,270.5,223.6,270.5z"/>
<path class="st0" d="M243.6,274c0,3.2,0,3.2-3.5,3.2c-3.1,0-3.1,0-3.1-3.6c0-3.1,0-3.1,3.8-3.1C243.6,270.5,243.6,270.5,243.6,274z"
	/>
<path class="st0" d="M97.5,50.4c-3.3,0-3.3,0-3.3-3.5c0-3.2,0-3.2,3.3-3.2c3.4,0,3.4,0,3.4,3.6C100.9,50.4,100.9,50.4,97.5,50.4z"/>
<path class="st0" d="M257.1,277.2c-3.3,0-3.3,0-3.3-3.4c0-3.3,0-3.3,3.2-3.3c3.4,0,3.4,0,3.4,3.5
	C260.4,277.2,260.4,277.2,257.1,277.2z"/>
<path class="st0" d="M92.4,47.1c0,3.3,0,3.3-3.4,3.3c-3.3,0-3.3,0-3.3-3.9c0-2.8,0-2.8,3.7-2.8C92.3,43.8,92.4,43.8,92.4,47.1z"/>
<path class="st0" d="M274.1,270.5c3.2,0,3.2,0,3.2,3.7c0,2.9,0,2.9-3.8,2.9c-2.9,0-2.9,0-2.9-3.8
	C270.6,270.5,270.6,270.5,274.1,270.5z"/>
<path class="st0" d="M223.5,134.5c-3.3,0-3.3,0-3.3-3.2c0-3.5,0-3.5,3.3-3.5c3.4,0,3.4,0,3.4,3.7
	C226.8,134.4,226.7,134.5,223.5,134.5z"/>
<path class="st0" d="M294,274c0,3.2,0,3.2-3.1,3.2c-3.5,0-3.5,0-3.5-3.6c0-3.1,0-3.1,3.6-3.1C294,270.5,294,270.5,294,274z"/>
<path class="st0" d="M307.4,277.2c-3.2,0-3.2,0-3.2-3.7c0-2.9,0-2.9,3.8-2.9c2.9,0,2.9,0,2.9,3.8
	C310.8,277.2,310.8,277.2,307.4,277.2z"/>
<path class="st0" d="M72.2,50.4c-3.3,0-3.3,0-3.3-3.6c0-3.1,0-3.1,3.7-3c3,0,3,0,3,3.5C75.6,50.4,75.5,50.4,72.2,50.4z"/>
<path class="st0" d="M240.1,41.9c-3.2,0-3.2,0-3.2-3.4c0-3.3,0-3.3,3.8-3.3c2.8,0,2.9,0,2.9,3.7C243.6,41.9,243.6,41.9,240.1,41.9z"
	/>
<path class="st0" d="M223.6,35.2c3.3,0,3.3,0,3.3,3.7c0,3,0,3-3.5,3c-3.2,0-3.1,0-3.2-3.6C220.1,35.9,220.2,35,223.6,35.2z"/>
<path class="st0" d="M186.5,38.4c0-3.2,0-3.2,3.7-3.2c2.4,0,3.1,0.1,3,3.6c-0.1,3.1,0,3.1-3.6,3.1C186.5,41.9,186.5,41.9,186.5,38.4
	z"/>
<path class="st0" d="M148,35.2c2.7-0.1,3.4,0.1,3.3,3.7c-0.1,3,0,3-3.7,3c-2.9,0-3,0-3-3.6C144.6,35.3,144.7,35.2,148,35.2z"/>
<path class="st0" d="M105.7,41.9c-3.2,0-3.2,0-3.2-3.5c0-3.1,0.1-3.2,3.4-3.2c3.3,0,3.3,0,3.3,3.4C109.2,41.9,109.2,41.9,105.7,41.9
	z"/>
<path class="st0" d="M84.1,38.6c0,3.3,0,3.3-3.5,3.3c-3.2,0-3.2,0-3.2-3.3c0-3.4,0-3.3,3.6-3.4C83.6,35.1,84.3,35.4,84.1,38.6z"/>
<path class="st0" d="M72.2,41.9c-3.3,0-3.3,0-3.3-3.2c0-3.3,0.1-3.4,2.9-3.4c3.7,0,3.8,0,3.8,3.2C75.6,41.9,75.6,41.9,72.2,41.9z"/>
<path class="st0" d="M210,30.4c0,3.2,0,3.2-3.1,3.2c-3.5,0-3.5,0-3.5-3.8c0-2.9,0-2.9,3.6-2.9C210,27,210,27,210,30.4z"/>
<path class="st0" d="M206.6,134.5c-3.3,0.2-3.3-0.7-3.3-3.1c0.1-3.6,0-3.6,3.3-3.6c3.4,0,3.4,0,3.4,3.3
	C210,134.5,210,134.5,206.6,134.5z"/>
<path class="st0" d="M172.9,33.6c-3.2,0-3.2,0-3.2-3.5c0-3.1,0-3.1,3.6-3.1c3.1,0,3.1,0,3.1,3.6C176.4,33.6,176.4,33.6,172.9,33.6z"
	/>
<path class="st0" d="M156.2,33.6c-3.3,0-3.3,0-3.3-3.2c0-3.5,0-3.5,3.1-3.5c3.6,0,3.6,0,3.6,3.3C159.6,33.6,159.6,33.6,156.2,33.6z"
	/>
<path class="st0" d="M100.9,290.8c0,3.2,0,3.2-3.7,3.2c-2.4,0-3.1-0.1-3-3.6c0.1-3.1,0-3.1,3.6-3.1
	C100.9,287.3,100.9,287.4,100.9,290.8z"/>
<path class="st0" d="M117.7,290.7c0,3.3,0,3.3-3.4,3.3c-3.2,0-3.2-0.1-3.2-2.9c0-3.8,0-3.8,3.5-3.8
	C117.7,287.3,117.7,287.4,117.7,290.7z"/>
<path class="st0" d="M142.8,290.7c0,3.3,0,3.3-3.6,3.3c-3,0-3,0-3-3.9c0-2.8,0-2.7,3.7-2.8C142.1,287.3,143,287.3,142.8,290.7z"/>
<path class="st0" d="M159.6,290.8c0,3.2,0,3.2-3.3,3.2c-3.3,0-3.3,0-3.3-3.6c0-3.1,0-3.1,3.6-3.1
	C159.6,287.3,159.6,287.3,159.6,290.8z"/>
<path class="st0" d="M173.1,287.3c3.3,0,3.3,0,3.3,3.5c0,3.2,0,3.2-3.3,3.2c-3.4,0-3.4,0-3.4-3.6
	C169.7,287.3,169.7,287.3,173.1,287.3z"/>
<path class="st0" d="M226.8,290.8c0,3.2,0,3.2-3.7,3.2c-3,0-3,0-3-3.5c0-3.1,0-3.1,3.8-3.1C226.8,287.3,226.8,287.4,226.8,290.8z"/>
<path class="st0" d="M240.2,294c-3.2,0-3.3-0.1-3.3-2.8c0-3.8,0-3.8,3.7-3.8c3,0,3,0,3,3.7C243.6,294,243.6,294,240.2,294z"/>
<path class="st0" d="M151.3,30.1c0,3.5,0,3.5-3.3,3.5c-3.4,0-3.4,0-3.4-3.3c0-3.4,0-3.4,3.3-3.4C151.3,26.9,151.3,27,151.3,30.1z"/>
<path class="st0" d="M260.4,290.5c0.2,3.4-0.6,3.5-3.1,3.5c-3.6-0.1-3.6,0-3.6-3.1c0-3.5,0-3.5,3.4-3.5
	C260.4,287.3,260.4,287.3,260.4,290.5z"/>
<path class="st0" d="M139.4,33.6c-3.3,0-3.3,0-3.2-3.5c0-3.2,0-3.2,3.7-3.2c3,0,3,0,3,3.8C142.8,33.6,142.8,33.6,139.4,33.6z"/>
<path class="st0" d="M131.1,33.6c-3.3,0-3.3,0-3.3-3.4c0-3.2,0-3.2,3.1-3.2c3.6,0,3.6,0,3.6,3.5C134.5,33.6,134.5,33.6,131.1,33.6z"
	/>
<path class="st0" d="M114.4,26.9c3.3,0,3.3,0,3.3,3.4c0,3.2,0,3.2-3.7,3.2c-3,0-3,0-3-3.7C111,27,111,26.9,114.4,26.9z"/>
<path class="st0" d="M97.6,27c3.3,0,3.3,0,3.3,3.5c0,3.2,0,3.2-3.5,3.2c-3.2,0-3.2,0-3.2-3.6C94.2,27,94.2,27,97.6,27z"/>
<path class="st0" d="M68.9,30.2c0-3.2,0.1-3.2,3.1-3.2c3.6,0,3.6,0,3.6,3.3c0,3.3,0,3.3-3.6,3.3C68.9,33.6,68.9,33.6,68.9,30.2z"/>
<path class="st0" d="M109.2,131.2c0,3.3,0,3.3-3.7,3.3c-3,0-3,0-3-3.7c0-3,0-3,3.6-3C109.2,127.8,109.2,127.8,109.2,131.2z"/>
<path class="st0" d="M97.4,134.5c-3.2,0-3.2,0-3.2-3.5c0-3.1,0-3.1,3.6-3.1c3.1,0,3.1,0,3.1,3.6C100.9,134.4,100.8,134.5,97.4,134.5
	z"/>
<path class="st0" d="M92.4,131.2c0,3.2-0.1,3.3-3.3,3.3c-3.4,0-3.5-0.1-3.4-3.1c0-3.6,0-3.6,3.5-3.6
	C92.3,127.8,92.4,127.8,92.4,131.2z"/>
<path class="st0" d="M84.1,131.2c0,3.3,0,3.3-3.9,3.3c-2.7,0-2.8-0.1-2.8-3.3c0-3.4,0-3.4,3.6-3.4C84.1,127.8,84.1,127.8,84.1,131.2
	z"/>
<path class="st0" d="M75.6,131.2c0,3.3,0,3.3-3.5,3.3c-3.2,0-3.2,0-3.2-3.7c0-2.9,0-3,3.8-2.9C75.5,127.8,75.6,127.8,75.6,131.2z"/>
<path class="st0" d="M243.6,13.5c0,3.3,0,3.3-3.4,3.3c-3.2,0-3.2,0-3.2-3.3c0-3.4,0-3.4,3.5-3.4C243.6,10.1,243.6,10.1,243.6,13.5z"
	/>
<path class="st0" d="M206.7,10.1c3.3,0,3.3,0,3.3,3.6c0,3,0,3-3.9,3c-2.8,0-2.8,0-2.8-3.9C203.3,10.2,203.4,10.1,206.7,10.1z"/>
<path class="st0" d="M47.1,134.5c-3.3,0-3.3,0-3.3-3.5c0-3.2,0-3.2,3.1-3.2c3.6,0,3.6,0,3.6,3.7C50.5,134.4,50.4,134.5,47.1,134.5z"
	/>
<path class="st0" d="M159.6,13.5c0,3.3,0,3.3-3.4,3.3c-3.2,0-3.2,0-3.2-3.5c0-3.2,0-3.2,3.5-3.2C159.6,10.1,159.6,10.1,159.6,13.5z"
	/>
<path class="st0" d="M131.2,16.8c-3.3,0-3.3,0-3.3-3.2c0-3.5,0-3.5,3.2-3.5c3.5,0,3.5,0,3.5,3.3C134.5,16.8,134.5,16.8,131.2,16.8z"
	/>
<path class="st0" d="M114.5,10.1c3.3,0,3.3,0,3.2,3.7c0,3,0,3-3.7,3c-2.9,0-2.9,0-2.9-3.8C111,10.2,111.1,10.1,114.5,10.1z"/>
<path class="st0" d="M13.4,134.5c-3.2,0-3.2,0-3.2-3.3c0-3.4,0-3.4,3.4-3.4c3.3,0,3.3,0,3.3,3.6C16.9,134.4,16.8,134.5,13.4,134.5z"
	/>
<path class="st0" d="M100.9,13.5c0,3.3,0,3.3-3.5,3.3c-3.2,0-3.2,0-3.2-3.5c0-3.2,0-3.2,3.7-3.2C100.9,10.1,100.9,10.2,100.9,13.5z"
	/>
<path class="st0" d="M89.2,10.1c3.2,0,3.2,0,3.2,3.5c0,3.2,0,3.2-3.6,3.2c-3.1,0-3.1,0-3.1-3.6C85.6,10.4,86.1,10,89.2,10.1z"/>
<path class="st0" d="M84.1,13.6c0,3.2,0,3.2-3.7,3.2c-2.4,0-3.1-0.1-3-3.6c0-2.5,0.1-3.2,3.5-3.1C84.1,10.2,84.1,10.1,84.1,13.6z"/>
<path class="st0" d="M75.6,307.6c0,3.2,0,3.2-3.5,3.2c-3.2,0-3.2,0-3.2-3.7c0-2.9,0-2.9,3.6-2.9C75.6,304.1,75.6,304.1,75.6,307.6z"
	/>
<path class="st0" d="M105.7,310.8c-3.2,0-3.2,0-3.2-3.7c0-3,0-3,3.7-3c2.9,0,2.9,0,3,3.6C109.2,310.1,109.2,311,105.7,310.8z"/>
<path class="st0" d="M122.5,310.8c-3.2,0-3.2,0-3.2-3.5c0-3.1,0-3.1,3.6-3.1c3.1,0,3.1,0,3.1,3.6C126,310.8,126,310.8,122.5,310.8z"
	/>
<path class="st0" d="M134.5,307.5c0,3.3,0,3.3-3.6,3.3c-3.1,0-3.1,0-3.1-3.7c0-3,0-3,3.7-3C134.4,304.1,134.5,304.2,134.5,307.5z"/>
<path class="st0" d="M210,122.7c0,3.2,0,3.2-3.5,3.2c-3.2,0-3.2,0-3.2-3.5c0-3.1,0-3.2,3.2-3.2C210,119.3,210,119.3,210,122.7z"/>
<path class="st0" d="M189.9,304.1c3.3,0,3.3,0,3.3,3.7c0,3,0,3-3.7,3c-3,0-2.9,0-3-3.7C186.5,304.8,186.6,303.9,189.9,304.1z"/>
<path class="st0" d="M203.3,307.4c0-3.3,0-3.3,3-3.3c3.6,0,3.6,0,3.6,3.7c0,3,0,2.9-3.7,3C204.1,310.9,203.1,310.8,203.3,307.4z"/>
<path class="st0" d="M139.5,1.6c3-0.2,3.3,0.5,3.3,3.5c-0.1,3.2-0.1,3.3-3.5,3.3c-3,0-3.2-0.1-3.2-3.6
	C136.1,1.7,136.2,1.6,139.5,1.6z"/>
<path class="st0" d="M1.6,139.3c0-3.2,0-3.2,3.6-3.2c3.1,0,3.2,0.1,3.2,3.6c0,3-0.1,3.1-3.7,3.1C1.7,142.7,1.6,142.6,1.6,139.3z"/>
<path class="st0" d="M80.8,1.6c2.9-0.2,3.3,0.4,3.3,3.5C84,8.3,84,8.4,80.6,8.4c-3,0-3.2-0.2-3.2-3.5C77.4,1.6,77.4,1.6,80.8,1.6z"
	/>
<path class="st0" d="M149.4,167.3c-2.5-0.2-4.4-0.2-6.3-0.6c-2.6-0.6-4.9-0.6-7.1,1.1c-1.1,0.9-2.4,1.4-3.6,2.1
	c-0.2-0.1-0.5-0.2-0.7-0.3c0.3-1.3,0.5-2.6,0.9-3.9c0.5-1.6,0.3-2.8-1.1-4.1c-3.1-2.8-5.9-5.8-6.9-10.1c-1.7-7.4,0.6-13.3,6-18.5
	c9.4-8.9,29.6-9,38.1,3.5c1.3,2,2.1,4.3,3.4,7c-7,0.2-12.9,1.9-17.6,6.4C149.8,154.5,147.5,160,149.4,167.3z M159.3,140.5
	c-0.1-1.8-1-3-2.9-3c-1.9,0-2.6,1.1-2.7,2.9c0,1.8,0.9,2.7,2.6,2.7C158,143.2,159.2,142.5,159.3,140.5z M140.1,144.4
	c1.5-1.8,3.1-3,3-3.9c-0.1-1.1-1.7-2.6-2.8-2.8c-1.8-0.4-2.8,1.3-2.7,2.8C137.6,141.6,138.8,142.6,140.1,144.4z"/>
<path class="st0" d="M184.3,181.8c-3.7-3.2-7.3-3.3-11.4-2.7c-6.5,0.9-12.4-1.1-17.2-5.7c-7.4-7.1-6-18.6,2.5-24.2
	c9.7-6.3,20.4-4.7,28.2,2.3c5.8,5.1,6.1,16,0.4,20.9c-2.5,2.2-4,4.2-2.6,7.5C184.4,180.2,184.3,180.6,184.3,181.8z M161.4,157.5
	c0.9,0.6,2,1.9,2.7,1.7c1-0.3,1.8-1.6,2.7-2.4c-0.9-0.7-1.7-1.8-2.7-2.1C162.6,154.4,161.7,155.4,161.4,157.5z M178.1,154.2
	c-0.4,0-0.8,0-1.2,0c-0.6,0.9-1.9,2-1.7,2.7c0.2,0.9,1.5,1.6,2.4,2.4c0.8-0.8,2-1.6,2.1-2.5C179.9,156.1,178.7,155.1,178.1,154.2z"
	/>
<path class="st0" d="M41.9,29.3c0,3.1,0,6.2,0,9.4c0,2.4-0.7,3.2-3.1,3.2c-6.3,0-12.6,0-18.9,0c-2.2,0-3.1-0.8-3.1-3
	c0-6.3,0-12.6,0-18.9c0-2.3,0.8-3.1,3.2-3.1c6.2,0,12.5,0,18.7,0c2.4,0,3.1,0.8,3.2,3.1C42,23.1,41.9,26.2,41.9,29.3z"/>
<path class="st0" d="M41.9,281.6c0,3.2,0,6.4,0,9.6c0,2-0.8,2.8-2.8,2.9c-6.4,0-12.9,0-19.3,0c-2.1,0-2.9-0.9-2.9-3
	c0-6.4,0-12.8,0-19.1c0-2.1,0.8-2.9,2.9-3c6.4,0,12.8,0,19.1,0c2.2,0,3,0.8,3,3.1C42,275.2,41.9,278.4,41.9,281.6z"/>
<path class="st0" d="M294,29.5c0,3.1,0,6.2,0,9.4c0,2.2-0.8,3-3.1,3c-6.3,0-12.6,0-18.9,0c-2.3,0-3.1-0.8-3.1-3c0-6.4,0-12.8,0-19.1
	c0-2.1,0.9-2.9,3-2.9c6.4,0,12.8,0,19.1,0c2.2,0,3,0.8,3,3.1C294.1,23.1,294,26.3,294,29.5z"/>
</svg>
