<?xml version="1.0" encoding="utf-8"?>
<!-- Generator: Adobe Illustrator 24.0.1, SVG Export Plug-In . SVG Version: 6.00 Build 0)  -->
<svg version="1.1" id="Слой_1" xmlns="http://www.w3.org/2000/svg" xmlns:xlink="http://www.w3.org/1999/xlink" x="0px" y="0px"
	 viewBox="0 0 462.1 126.5" style="enable-background:new 0 0 462.1 126.5;" xml:space="preserve">
<style type="text/css">
	.st0{fill:#D42D26;}
</style>
<g>
	<path class="st0" d="M41.7,37.7c-0.8,1.4-1.5,2.7-2.3,4.1c-4.3,8.4-8.5,16.8-12.8,25.2c-0.5,1-1.1,1.5-2.4,1.5
		c-5.3-0.1-10.7-0.1-16,0c-1.2,0-1.6-0.4-1.7-1.6C6,60.9,5.3,55,4.7,49.1c-0.4-4-0.8-7.9-1.2-11.9c-0.4-4.4-0.9-8.8-1.4-13.3
		c-0.4-3.8-0.8-7.5-1.1-11.3C0.7,9,0.3,5.4,0,1.8c-0.1-1.6,0.1-1.8,1.6-1.8c5.2,0,10.3,0,15.5,0c1.6,0,1.8,0.3,2,1.9
		c0.6,6.2,1.2,12.4,1.9,18.5c0.2,2.4,0.5,4.8,0.7,7.1c0,0.4,0,0.9,0.1,1.3c0.1,0.4,0.4,0.7,0.7,1.1c0.3-0.2,0.8-0.4,1-0.8
		c1.1-2.1,2.2-4.2,3.3-6.3c3.7-7.3,7.4-14.5,11.1-21.8c0.3-0.5,1.2-1.1,1.8-1.1c5.6-0.1,11.2,0,16.8,0c1,0,1.5,0.4,1.6,1.6
		c0.8,8.6,1.7,17.2,2.5,25.8c0,0.4,0.1,0.9,0.2,1.2c0.2,0.5,0.4,0.9,0.7,1.4c0.4-0.4,0.9-0.7,1.1-1.1c1.2-2.2,2.3-4.4,3.4-6.6
		c3.6-7,7.1-14,10.7-21C77.1,0.4,77.8,0,78.9,0C85,0,91.1,0,97.3,0c2,0,2.2,0.4,1.3,2.2c-5.1,10-10.3,20-15.4,30.1
		C77.3,43.8,71.4,55.4,65.6,67c-0.6,1.1-1.2,1.5-2.4,1.5c-5.3-0.1-10.5-0.1-15.8,0c-1.3,0-1.8-0.4-1.9-1.7
		c-0.4-3.9-0.8-7.8-1.1-11.7c-0.5-5.4-1-10.8-1.6-16.2c0-0.4-0.4-0.8-0.6-1.2C42,37.7,41.8,37.7,41.7,37.7z"/>
	<path class="st0" d="M319.6,25.1c3.4,0,6.9,0,10.3,0c1,0,1.5-0.2,1.7-1.3c0.6-3.8,1.3-7.5,2-11.2c0.7-3.7,1.3-7.4,2-11.1
		c0.1-0.4,0.7-0.9,1.1-1.1c0.5-0.2,1.1-0.1,1.6-0.1c5.8,0,11.6,0,17.4,0c0.5,0,0.9,0,1.4,0.1c0.9,0.1,1.1,0.6,1,1.4
		c-1,5.2-1.9,10.4-2.8,15.6c-0.8,4.3-1.4,8.7-2.2,13c-0.8,4.3-1.6,8.6-2.3,12.8c-0.8,4.3-1.4,8.7-2.2,13c-0.6,3.8-1.3,7.5-2,11.2
		c-0.1,0.7-0.6,1.1-1.4,1.1c-6.7,0-13.4,0-20,0c-1.1,0-1.3-0.6-1.1-1.5c0.8-4.2,1.6-8.4,2.4-12.7c0.5-2.9,1-5.8,1.5-8.8
		c0.3-1.6-0.2-2.2-1.8-2.2c-7,0.1-14,0.2-21,0.3c-0.8,0-1.1,0.4-1.3,1.2c-0.6,3.4-1.3,6.9-1.9,10.3c-0.4,2.4-0.7,4.8-1.2,7.2
		c-0.3,1.7-0.6,3.4-1,5.2c-0.2,0.8-0.9,1-1.6,1c-3.9,0-7.8,0-11.7,0c-2.6,0-5.1,0-7.7,0c-1.3,0-1.6-0.4-1.3-1.6
		c0.3-1.1,0.4-2.2,0.6-3.3c0.6-3.4,1.1-6.8,1.6-10.2c0.6-3.8,1.3-7.6,2-11.4c0.7-3.9,1.4-7.8,2-11.7c0.5-2.8,1-5.7,1.5-8.5
		c0.7-3.9,1.4-7.8,2-11.7c0.5-2.7,1-5.5,1.5-8.2c0.2-0.9,0.5-1.5,1.5-1.5c0.5,0,0.9-0.1,1.4-0.1c5.8,0,11.6,0,17.4,0
		c0.3,0,0.5,0,0.8,0c1.5,0.1,1.8,0.3,1.6,1.8c-0.6,3.3-1.2,6.6-1.8,9.8c-0.4,2.3-0.8,4.5-1.2,6.8c-0.3,1.6-0.5,3.1-0.9,4.7
		c-0.3,1.2,0.1,1.9,1.4,1.9C312.5,25.1,316.1,25.1,319.6,25.1C319.6,25.1,319.6,25.1,319.6,25.1z"/>
	<path class="st0" d="M164.4,50.7c-0.3,2.1-0.6,3.9-0.9,5.7c-0.4,2.4-0.9,4.8-1.3,7.1c-0.2,1.3-0.4,2.6-0.6,3.8
		c-0.2,0.9-0.8,1.1-1.6,1.1c-7.6,0-15.2,0-22.8,0c-14.6,0-29.2,0-43.7,0c-1.8,0-1.9-0.2-1.5-2c0.6-3.3,1.2-6.6,1.8-9.9
		c0.6-3.5,1.2-6.9,1.8-10.4c0.6-3.2,1.1-6.4,1.7-9.7c0.6-3.5,1.2-7,1.8-10.5c0.6-3.3,1.1-6.6,1.7-9.9c0.6-3.4,1.2-6.8,1.8-10.1
		c0.3-1.4,0.6-2.9,0.7-4.3c0.1-1,0.6-1.4,1.5-1.4c0.4,0,0.8,0,1.1,0c21.6,0,43.3,0,64.9,0c0.4,0,0.8,0,1.3,0c0.9,0.1,1.3,0.4,1,1.5
		c-0.5,2.4-0.9,4.8-1.3,7.2c-0.5,2.8-1,5.7-1.5,8.5c-0.1,0.3-0.5,0.6-0.8,0.7c-0.3,0.1-0.7,0-1.1,0c-14.5,0-29.1,0-43.6,0
		c-1.2,0-1.9,0.3-2.1,1.6c-0.4,2.4-0.8,4.7-1.3,7c-0.6,3.5-1.2,7-1.9,10.5c-0.6,3.2-1.1,6.4-1.7,9.6c-0.1,0.8-0.3,1.6-0.5,2.5
		c-0.2,1,0.3,1.4,1.2,1.5c0.3,0,0.7,0,1,0c14.2,0,28.5,0,42.7,0C162.9,50.7,163.5,50.7,164.4,50.7z"/>
	<path class="st0" d="M271.2,50.7c-0.3,1.9-0.5,3.6-0.8,5.3c-0.2,1.3-0.6,2.5-0.8,3.8c-0.4,2.4-0.8,4.8-1.1,7.1
		c-0.1,1-0.5,1.5-1.7,1.5c-19.7,0-39.4,0-59.1,0c-2,0-3.7-2-4.7-3.7c-1-1.7,0.1-3.3,0.2-5c0-1.3,0.6-2.5,0.8-3.8
		c0.6-3.3,1.1-6.7,1.6-10c0.6-3.2,1.3-6.4,1.9-9.7c0.4-2.4,0.7-4.8,1.1-7.1c0.4-2.4,0.9-4.7,1.4-7.1c0.2-1.1,0.4-2.1,0.6-3.2
		c0.5-3.4,1-6.9,1.7-10.3c0.4-1.9,0.8-3.9,1.5-5.7c0.6-1.5,2-2.5,3.8-2.6c1,0,2.1-0.1,3.1-0.1c19.1,0,38.2-0.1,57.4-0.1
		c0.5,0,1-0.1,1.4,0.1c0.3,0.2,0.7,0.7,0.6,1.1c-0.2,1.3-0.5,2.6-0.8,3.9c-0.6,3.4-1.1,6.7-1.6,10.1c-0.1,0.7-0.2,1.4-0.5,1.9
		c-0.2,0.4-0.9,0.8-1.3,0.8c-1.8,0.1-3.7,0-5.5,0c-11.6,0-23.3,0-34.9,0c-1.9,0-2.3,0.5-2.6,2.4c-0.4,2.4-0.9,4.7-1.4,7.1
		c-0.2,1.3-0.4,2.7-0.6,4.1c-0.5,3.3-1.1,6.5-1.6,9.8c-0.4,2.4-0.9,4.8-1.4,7.2c-0.3,1.6-0.1,2.2,2,2.2c13.2,0,26.4,0,39.6,0
		C269.9,50.7,270.4,50.7,271.2,50.7z"/>
	<path class="st0" d="M350.6,68.3c0.6-1.4,1.2-2.5,1.8-3.7c6.5-12.8,13-25.6,19.6-38.3c4.2-8.2,8.4-16.5,12.6-24.8
		c0.4-0.9,1-1.3,2-1.3c9.6,0,19.2,0,28.7,0c1.6,0,1.6,0.1,1.8,1.7c0.6,6.1,1.2,12.1,1.8,18.2c0.4,3.8,0.8,7.7,1.1,11.5
		c0.6,6.3,1.3,12.5,1.9,18.8c0.4,3.9,0.8,7.8,1.1,11.7c0.2,1.7,0.3,3.3,0.5,5c0.1,1-0.2,1.4-1.2,1.4c-6.6,0-13.3,0-19.9,0
		c-1,0-1.3-0.4-1.4-1.4c-0.6-6.1-1.2-12.1-1.8-18.2c-0.4-4.1-0.8-8.1-1.2-12.2c-0.4-3.9-0.7-7.8-1.2-11.7c-0.1-0.5-0.5-1-0.8-1.5
		c-0.4,0.4-0.9,0.7-1.2,1.1c-7.2,14.1-14.4,28.3-21.6,42.4c-0.5,1-1.1,1.3-2.1,1.3c-6.3,0-12.5,0-18.8,0
		C351.9,68.5,351.4,68.4,350.6,68.3z"/>
	<path class="st0" d="M321.4,103.7c1.6,0,3,0.1,4.4-0.1c0.5-0.1,1-1,1.1-1.7c0.8-4.3,1.4-8.7,2.2-13c0.4-2.3,0.9-4.6,1.3-6.9
		c0.2-0.9,0.7-1.1,1.5-1.1c3.6,0,7.2,0,10.8,0c1.1,0,1.4,0.4,1.2,1.5c-0.2,1-0.4,2-0.5,3c-0.1,0.7,0.2,1.1,0.9,1.2
		c0.4,0,0.8,0,1.1,0c6.2,0,12.4,0,18.5,0c0.9,0,2-0.1,2.2,1.1c0.2,1.7-0.7,3-2,3.2c-0.4,0.1-0.8,0-1.1,0c-6.3,0-12.6,0-18.9,0
		c-1.7,0-1.8,0.2-2,1.8c-0.2,1.5-0.5,3-0.8,4.4c-0.3,1.4,0,1.8,1.5,1.8c6.5,0,12.9,0,19.4,0c0.7,0,1.8-0.4,1.8,0.9
		c0.1,2.1-0.5,3.1-2,3.1c-0.3,0-0.6,0-0.9,0c-9.7,0-19.3,0-29,0c-1.9,0-3.5,1.5-3.6,3.3c-0.1,0.7,0.2,1.2,1,1.3
		c0.5,0.1,1,0.1,1.5,0.1c9.9,0,19.7,0,29.6,0c0.7,0,2.1,0.4,2.1,0.6c0,1.2-0.3,2.4-0.6,3.5c-0.1,0.2-0.8,0.3-1.3,0.3
		c-3.2,0-6.3,0-9.5,0c-0.5,0-1.1,0.3-1.6,0.5c0.2,0.4,0.3,0.9,0.6,1.3c2.4,3.3,4.9,6.6,7.4,9.9c0.2,0.3,0.4,0.6,0.7,1.2
		c-0.7,0.1-1.2,0.3-1.7,0.3c-3.7,0-7.4,0-11.1,0c-1.2,0-2.1-0.5-2.9-1.5c-2.5-3.5-5.1-7-7.7-10.5c-0.7-0.9-1.5-1.4-2.6-1.4
		c-1,0-2,0-3,0c-1.1,0.1-1.8,0.6-2,1.9c-0.6,3.8-1.3,7.7-2,11.5c-0.1,0.3-0.6,0.7-0.9,0.7c-4.4,0-8.7,0-13.1,0
		c-0.1,0-0.2-0.1-0.5-0.2c0.2-1.4,0.4-2.8,0.6-4.3c0.5-2.8,1-5.6,1.4-8.4c0.1-0.8-0.1-1.3-1.1-1.2c-0.1,0-0.2,0-0.3,0
		c-4-0.6-7.1,0.7-9.7,3.8c-2.5,3-5.5,5.6-8.3,8.3c-0.6,0.5-1.4,1-2.2,1c-4.2,0.1-8.4,0.1-12.6,0c-0.2,0-0.5-0.1-1-0.2
		c0.4-0.5,0.7-0.8,1-1.1c3.5-3.3,7-6.7,10.5-10c0.4-0.4,0.5-0.9,0.8-1.4c-0.5-0.2-1-0.5-1.6-0.5c-2.7-0.1-5.4-0.1-8.1,0
		c-1.2,0-1.6-0.3-1.5-1.6c0.2-2.3,0.7-2.9,3.1-2.9c9.7,0,19.5,0,29.2,0c0.7,0,1.4-0.1,2.1-0.2c0.6-0.2,1.4-2.4,1.2-3.1
		c-0.3-1-1.1-1.3-2.1-1.3c-9.3,0-18.6,0-27.9,0c-0.8,0-1.5-0.6-2.2-1c-0.2-0.1-0.3-0.6-0.3-0.9c0.4-2.2,0.8-4.4,1.2-6.6
		c0.2-1.2,0.5-2.5,0.7-3.7c0.2-1.3,0.4-2.6,0.6-3.8c0.2-1.1,1.3-2,2.7-2c2.6,0,5.1,0,7.7,0c0.9,0,1.4,0.5,1.3,1.4
		c-0.5,2.8-1,5.7-1.5,8.5c-0.2,1-0.5,2-0.5,3.1c0,0.3,0.6,0.9,1,1c1.3,0.1,2.6,0.1,3.9,0c1.2-0.1,1.3-1.1,1.4-1.9
		c0.8-4.4,1.4-8.7,2.2-13.1c0.1-0.7,0.2-1.5,0.5-2.1c0.2-0.5,0.8-1,1.3-1c3.7-0.1,7.4,0,11.1-0.1c0.9,0,1.2,0.5,1.1,1.3
		c-0.1,1.1-0.4,2.1-0.5,3.2c-0.2,1.1,0.4,1.5,1.4,1.5c1.6,0,3.3,0,4.9,0c1.4,0,1.5,0.2,1.3,1.5c-0.4,2.4-0.5,2.5-3,2.5
		c-1.5,0-3,0.1-4.5,0c-1-0.1-1.4,0.4-1.6,1.3c-0.3,1.8-0.7,3.7-1,5.5c-0.1,0.9,0.3,1.2,1.2,1.2c1.6,0,3.1,0,4.7,0
		c2.3,0,2.8,0.8,1.9,3C321.6,102.6,321.5,103.1,321.4,103.7z"/>
	<path class="st0" d="M140.3,111.7c-0.5,1.6-0.9,2.9-1.4,4.1c-0.1,0.3-0.8,0.4-1.2,0.4c-6,0-11.9,0-17.9,0c-1.2,0-1.4-0.5-0.7-1.5
		c2.2-3.4,4.4-6.7,6.7-10.1c0.8-1.2,1.6-2.4,2.4-3.7c0.8-1.2,0.4-1.9-1-1.9c-1.5,0-2.9,0-4.4,0c-0.4,0-1-0.2-1.2-0.4
		c-0.2-0.2,0.1-0.8,0.3-1.2c3.2-4.9,6.4-9.8,9.7-14.8c0.8-1.2,1.8-1.8,3.2-1.7c2.4,0.1,4.9,0,7.3,0c0.4,0,0.9,0.2,1.1,0.4
		c0.1,0.2-0.1,0.8-0.3,1.1c-2.2,3.4-4.5,6.8-6.7,10.2c-0.3,0.4-0.6,1.3-0.4,1.5c0.4,0.4,1.1,0.8,1.7,0.8c1.3,0,2.6-0.2,3.9-0.3
		c1.3-0.1,2-0.9,2.6-1.9c2.4-3.5,4.7-7.1,7-10.7c0.6-0.9,1.2-1.2,2.3-1.2c3,0,6,0,9.3,0c-0.4,0.8-0.7,1.4-1.1,2
		c-0.8,1.2-1.6,2.4-2.4,3.6c-0.7,1-0.3,1.9,0.9,1.9c1.9,0.1,3.8,0.1,5.7,0c1,0,1.5-0.7,1.6-1.6c0.2-1.3,0.4-2.6,0.6-4
		c0.2-1.5,0.7-1.9,2.2-1.9c3.1,0,6.2,0,9.3,0c1.5,0,1.7,0.1,1.5,1.7c-0.1,1.3-0.4,2.6-0.6,4c-0.2,1.3,0.2,1.8,1.6,1.9
		c1.9,0,3.8,0,5.7,0c0.8,0,1.6-0.1,1.9,0.8c0.3,1-0.1,2-1,2.7c-0.5,0.4-1.2,0.5-1.9,0.6c-1.7,0.1-3.4,0-5,0c-1.9,0-2.4,0.4-2.7,2.3
		c-0.2,1.1-0.4,2.1-0.5,3.2c-0.2,1.2,0.2,1.7,1.5,1.8c1.4,0.1,2.8,0,4.2,0c0.3,0,0.7,0,1,0c1.7,0,2.4,0.5,2.4,1.5
		c0,1.4-0.9,2.3-2.5,2.3c-1.8,0-3.5,0-5.3,0c-2,0-2.4,0.4-2.7,2.4c-0.1,1-0.3,2.1-0.5,3.1c-0.2,1.1,0.3,1.5,1.4,1.5
		c1.9,0,3.9,0,5.8,0c1.7,0,1.9,0.3,1.5,1.9c-0.7,2.5-0.7,2.5-3.3,2.5c-1.8,0-3.5,0-5.3,0c-0.9,0-1.3,0.5-1.5,1.2
		c-0.3,1.4-0.5,2.8-0.6,4.2c-0.1,1.4,0.2,1.7,1.5,1.7c1.9,0,3.8,0,5.7,0c0.9,0,1.8,0,1.9,1.2c0.1,1.4-0.6,2.6-1.7,2.8
		c-0.5,0.1-0.9,0.1-1.4,0.1c-12.2,0-24.4,0-36.5,0c-1.8,0-1.9,0-1.7-1.8c0.4-2.5,0.9-5,1.3-7.5c0.4-2.3,0.8-4.6,1.2-6.9
		c0.4-2.5,0.8-5,1.4-7.5c0.7-3.1,0.4-3.4-2.6-3.6c-1.9-0.1-3,0.7-3.9,2.2c-1.8,2.9-3.7,5.7-5.6,8.5c-0.3,0.4-0.4,1-0.5,1.4
		c0.5,0.2,1,0.4,1.5,0.4C136.5,111.7,138.2,111.7,140.3,111.7z M160.3,99.7C160.3,99.7,160.3,99.8,160.3,99.7
		c0.8,0.1,1.6,0.2,2.4,0.2c0.8-0.1,1.8-0.1,2.1-1.1c0.4-1.5,0.7-3,1-4.5c0.2-0.8-0.2-1.3-1-1.4c-1.8-0.1-3.5-0.3-5.3-0.3
		c-1,0-1.9,0.6-2.1,1.6c-0.3,1.4-0.5,2.9-0.7,4.3c-0.1,0.7,0.3,1.1,1,1.1C158.5,99.7,159.4,99.7,160.3,99.7z M156.6,122.3
		C156.6,122.3,156.6,122.3,156.6,122.3c0.8,0,1.7,0,2.5-0.1c1,0,1.8-0.5,2-1.4c0.3-1.4,0.4-2.8,0.6-4.2c0.1-1-0.4-1.4-1.3-1.4
		c-1.5,0-3.1-0.1-4.6,0.1c-0.7,0.1-1.8,0.6-2,1.2c-0.5,1.5-0.5,3.1-0.7,4.7c-0.1,0.7,0.3,1.1,1.1,1.1
		C154.9,122.3,155.8,122.3,156.6,122.3z M158.6,110.8c0.9,0,1.8,0,2.6,0c1,0,1.6-0.5,1.8-1.4c0.3-1.4,0.4-2.8,0.7-4.2
		c0.1-0.8-0.2-1.2-1-1.2c-1.9,0-3.8,0-5.8,0.1c-0.9,0-1.3,0.6-1.4,1.5c-0.2,1.3-0.5,2.6-0.8,3.9c-0.2,0.9,0.2,1.3,1,1.4
		C156.8,110.9,157.7,110.8,158.6,110.8z"/>
	<path class="st0" d="M181.6,68.4c-3.2,0-6.5,0-9.7,0c-1.4,0-1.6-0.3-1.3-1.7c0.4-2.2,0.8-4.4,1.2-6.7c0.5-2.6,1-5.2,1.4-7.9
		c0.4-2.3,0.7-4.7,1.2-7c0.4-2.4,0.9-4.8,1.3-7.2c0.4-2.2,0.8-4.4,1.1-6.7c0.5-2.6,1-5.2,1.4-7.9c0.4-2.3,0.7-4.7,1.1-7
		c0.4-2.4,0.9-4.8,1.3-7.2c0.4-2.4,0.8-4.8,1.2-7.2c0.2-1.6,0.4-1.9,2-1.9c6.2,0,12.4,0,18.6,0c2.3,0,2.2,0.1,1.9,2.5
		c-0.4,2.7-0.9,5.4-1.4,8.1c-0.4,2.4-1,4.7-1.4,7.1c-0.4,2.3-0.7,4.7-1.1,7c-0.4,2.4-0.9,4.8-1.3,7.2c-0.2,1.1-0.4,2.2-0.6,3.3
		c-0.6,3.4-1.1,6.8-1.6,10.2c-0.6,3.9-1.3,7.7-2,11.5c-0.6,3.4-1.3,6.9-1.9,10.3c-0.2,0.8-0.6,1-1.4,1
		C188.3,68.4,184.9,68.4,181.6,68.4z"/>
	<path class="st0" d="M439.3,68.5c-3.3,0-6.6,0-9.8,0c-1,0-1.5-0.3-1.3-1.4c0.8-4.5,1.6-9.1,2.4-13.6c0.7-4.3,1.5-8.6,2.2-12.9
		c0.9-5.3,1.9-10.7,2.8-16c0.7-4.3,1.5-8.5,2.2-12.8c0.6-3.5,1.3-6.9,1.8-10.4c0.2-0.9,0.6-1.2,1.4-1.2c6.6,0,13.1,0,19.7,0
		c1,0,1.4,0.3,1.2,1.4c-0.9,4.8-1.7,9.6-2.5,14.3c-0.6,3.3-1.1,6.7-1.7,10c-0.6,3.3-1.2,6.7-1.8,10c-0.6,3.3-1.1,6.6-1.7,9.9
		c-0.6,3.3-1.2,6.7-1.8,10c-0.6,3.3-1.1,6.6-1.7,9.9c0,0.2,0,0.5-0.1,0.8c-0.3,1.9-0.3,1.9-2.3,1.9
		C445.5,68.5,442.4,68.5,439.3,68.5z"/>
	<path class="st0" d="M127,43.1c0.4-2.4,0.8-4.6,1.2-6.8c0.4-2.5,0.9-4.9,1.3-7.4c0.2-1.1,0.3-2.2,0.6-3.2c0.1-0.3,0.4-0.6,0.7-0.7
		c0.4-0.1,0.9-0.1,1.4-0.1c11.6,0,23.1,0,34.7,0c2,0,2.3,0.5,1.7,2.4c-0.4,1.5-0.6,3.1-0.9,4.7c-0.6,3.4-1.2,6.7-1.8,10.1
		c-0.2,1.1-0.8,1.2-1.7,1.2c-5,0-9.9,0-14.9,0c-6.8,0-13.6,0-20.4,0C128.3,43.3,127.7,43.2,127,43.1z"/>
	<path class="st0" d="M104.5,126.5c-1.3,0-2.6,0.1-3.9,0c-1.2-0.1-1.4-0.5-1-1.6c1.5-4.1,3.1-8.2,4.6-12.3c0.4-1,1-1.4,2.1-1.4
		c2.5,0,5,0,7.5,0c1.3,0,1.6,0.4,1.1,1.6c-1.5,4.2-3.1,8.3-4.7,12.5c-0.3,0.9-1,1.2-1.9,1.2C107.1,126.5,105.8,126.5,104.5,126.5
		C104.5,126.5,104.5,126.5,104.5,126.5z"/>
	<path class="st0" d="M110,107.2c-4.1,0.1-4.1,0.1-4.2-3.2c-0.1-2.3-0.3-4.5-0.5-6.8c-0.1-0.8,0.2-1.2,1.1-1.2c3-0.2,6-0.5,9-0.7
		c0.4,0,0.9,0.5,1.1,0.9c0.2,0.6,0.2,1.4,0.3,2.1c0.2,2.3,0.3,4.6,0.5,6.9c0.1,1-0.3,1.5-1.4,1.6C113.6,106.8,111.4,107.1,110,107.2
		z"/>
	<path class="st0" d="M119.4,87.2c0,0.9-0.1,1.7,0,2.4c0.2,1.3-0.5,1.8-1.6,1.8c-1.5,0.1-2.9,0.1-4.4,0.1c-1.3,0.1-2.6,0.2-3.9,0.3
		c-0.8,0.1-1.3-0.2-1.3-1.1c-0.1-2.7-0.3-5.4-0.5-8.2c-0.1-1.1,0.3-1.6,1.5-1.6c2.8-0.1,5.5-0.3,8.3-0.5c1-0.1,1.4,0.3,1.5,1.3
		C119.1,83.7,119.3,85.5,119.4,87.2z"/>
	<path class="st0" d="M126.9,126.4c-3.1,0-6.3,0-9.4,0c-1.1,0-1.6-0.3-1.6-1.5c0-3.5-0.1-3.1,3.1-3.1c5.8,0,11.6,0,17.4,0
		c1.2,0,1.6,0.4,1.6,1.6c-0.1,3.4,0.4,3-3,3C132.3,126.4,129.6,126.4,126.9,126.4C126.9,126.4,126.9,126.4,126.9,126.4z"/>
</g>
</svg>
