<?xml version="1.0" encoding="utf-8"?>
<!-- Generator: Adobe Illustrator 24.0.1, SVG Export Plug-In . SVG Version: 6.00 Build 0)  -->
<svg version="1.1" id="Слой_1" xmlns="http://www.w3.org/2000/svg" xmlns:xlink="http://www.w3.org/1999/xlink" x="0px" y="0px"
	 viewBox="0 0 272.2 280.8" style="enable-background:new 0 0 272.2 280.8;" xml:space="preserve">
<style type="text/css">
	.st0{fill:#E61D2B;}
	.st1{display:none;}
	.st2{display:inline;fill:#FFFFFF;}
</style>
<g>
	<path class="st0" d="M0.1,0c9.8,0,19.5,0,29.3,0c0.6,0.1,1.3,0.3,1.9,0.4c2.5,0.2,5,0.3,7.6,0.5C40.3,1,41.7,1.2,43,1.4
		c2.9,0.5,5.9,1,8.8,1.6c2.9,0.6,5.8,1,8.6,1.8c4.3,1.3,8.6,2.8,12.7,4.5c10.1,4.2,18.9,10.4,25.8,19c3.8,4.7,6.4,10.2,7.6,16.1
		c0.6,2.9,0.7,6,0.9,8.9c0.1,1.1-0.2,2.1-0.4,3.2c-0.1,1.1-0.2,2.2-0.5,3.3c-0.7,2.4-1.5,4.8-2.5,7.1c-1.8,4.3-4.2,8.3-7.4,11.7
		c-2.7,2.9-5.6,5.5-8.5,8.1c-2.7,2.5-5.8,4.5-9,6.3c-4.3,2.5-8.6,4.7-13.3,6.4c-3,1.1-6,2.2-9,3.2c-2.2,0.7-4.4,1.2-6.7,1.8
		c-2.2,0.6-4.5,1.1-6.8,1.6c-2,0.4-4.1,0.6-6.2,0.9c-1.1,0.2-2.1,0.3-3.2,0.5c-1.6,0.2-3.2,0.5-4.8,0.7c-1.6,0.2-3.2,0.4-4.8,0.6
		c-0.1,0-0.1,0.1-0.2,0.3c0.9,0,1.6,0.1,2.4,0.1c9.2,0,18.4-0.1,27.6,0c7.8,0,15.7,0.2,23.5,0.3c5.5,0.1,10.9,0,16.3,0.9
		c1.3,0.2,2.6,0.3,3.9,0.5c2.4,0.5,4.7,1,7.1,1.6c2.2,0.6,4.5,1.1,6.7,1.8c2.9,1,5.7,2.1,8.5,3.3c4.4,2,8.6,4.5,12.5,7.4
		c4.6,3.5,8.6,7.5,11.9,12.2c3.8,5.3,6,11.3,7,17.6c0.4,2.9,0.7,5.9,0.3,8.9c-0.5,3.5-1.1,6.9-2.2,10.2c-1.4,4.1-3.4,7.8-5.9,11.3
		c-5.4,7.5-12.5,13-20.6,17.2c-3.5,1.8-7.2,3.2-10.9,4.6c-2.9,1.1-5.9,1.9-8.9,2.5c-2.8,0.6-5.6,1-8.4,1.4c-3.5,0.5-7.1,1-10.6,1.2
		c-3.9,0.2-7.7,0.1-11.6,0.1c-23.7,0-47.3,0-71-0.1c-0.4,0-0.7,0.1-1,0s-0.6-0.4-0.7-0.7s0-0.8,0-1.1c0-29.7,0-59.3,0-89
		C0,81.3,0,41.4,0,1.4C0.1,1,0.1,0.5,0.1,0z"/>
	<path class="st0" d="M272.2,0c0,0.5-0.1,1-0.1,1.6c0,27.1,0,54.2,0,81.3c0,42.4,0,84.8,0,127.2c0,2.2,0,2.3-2.3,2.2
		c-3.3-0.2-6.7-0.3-9.9-1c-11.9-2.3-21.9-8.1-29.7-17.6c-4.5-5.4-7.8-11.6-10.9-17.8c-3.8-7.6-7.3-15.3-11-22.9
		c-4-8.1-8.1-16.2-13.6-23.4c-4.9-6.5-10.5-12.2-17.4-16.8c-3.6-2.4-7.4-4.4-11.4-6.1c-2.4-1-4.9-1.6-7.4-2.3
		c-2.2-0.6-4.4-1.1-6.6-1.6c-1.1-0.2-2.3-0.4-3.4-0.5c-1.6-0.2-3.2-0.6-4.8-0.7c-4.1-0.2-8.2-0.3-12.3-0.4c-1,0-2,0.2-3,0.2
		c-0.3,0-0.5-0.3-0.8-0.5c0.2-0.2,0.4-0.5,0.6-0.6c4.2-2,8.4-3.8,12.5-6c4.9-2.6,9.3-5.9,13.6-9.4c3.2-2.6,6.3-5.5,9-8.7
		c2.8-3.4,5.1-7,6.7-11.1c1.4-3.7,2.5-7.4,2.5-11.4c0-2.4,0.2-4.9-0.2-7.3c-0.9-6.2-3.2-11.9-6.8-17.1c-4.2-6-9.4-11-15.1-15.5
		C144,8.6,136.7,4.7,129,1.5c-0.4-0.2-0.8-0.4-1.4-0.7c0.4-0.3,0.7-0.6,1-0.8C176.5,0,224.4,0,272.2,0z"/>
	<path class="st0" d="M265,266.9c0-0.5,0.1-1,0.1-1.5c0-8.1,0-16.3,0-24.4c0-1.6,0.1-1.6,1.6-1.6s2.9,0,4.4,0c0.9,0,1.1,0.3,1.1,1.1
		c0,0.2,0,0.3,0,0.5c0,10.9,0,21.9,0,32.8c0,1.6,0,1.6-1.6,1.6c-2.8,0-5.6,0-8.4,0c-0.7,0-1.1-0.2-1.4-0.8c-4.2-9-8.4-18-12.6-27
		c-0.2-0.3-0.6-0.6-0.9-0.8c-0.1,0.4-0.4,0.8-0.4,1.2c0,8.6,0,17.2,0,25.8c0,1.6,0,1.6-1.7,1.6c-1.5,0-2.9,0-4.4,0
		c-0.7,0-1.1-0.2-1.1-1c0-11.3,0-22.6,0-33.8c0-0.9,0.4-1.2,1.2-1.2c3.2,0,6.3,0,9.5,0c0.7,0,1.2,0.3,1.5,0.9
		c3,6.4,5.9,12.7,8.9,19.1c1,2.2,2,4.4,3,6.5c0.2,0.4,0.5,0.8,0.8,1.2C264.7,267,264.9,266.9,265,266.9z"/>
	<path class="st0" d="M98.5,257.4c0-5.5,0-11,0-16.6c0-1.1,0.3-1.5,1.4-1.5c4.8,0.1,9.5-0.1,14.3,0.1c4,0.1,7.5,1.5,9.8,4.9
		c2.1,3.1,1.7,7.1-1.2,9.7c-0.7,0.6-1.5,1.1-2.2,1.6c-1,0.7-1,1.3,0.1,1.8c1.4,0.7,2.9,1.3,3.9,2.6c1.6,2.2,2.5,4.6,2,7.3
		c-0.4,2.3-1.8,4-3.8,5.2s-4.2,2.2-6.6,2.2c-5.5,0.1-11,0.2-16.6,0.4c-0.9,0-1.1-0.4-1.1-1.2C98.5,268.5,98.5,262.9,98.5,257.4z
		 M106.1,264.6c0,1,0,1.9,0,2.8c0,1.6,0.3,1.9,1.8,2c1.9,0.1,3.9,0.2,5.8,0c1.3-0.1,2.7-0.3,3.7-1.4c1.6-1.7,1.6-3.8,0.8-5.7
		c-0.7-1.8-2.5-2.3-4.4-2.4c-2.1-0.1-4.1,0-6.2-0.1c-0.8,0-1.3,0.3-1.3,1.1C106.2,262.2,106.1,263.4,106.1,264.6z M110.6,253.7
		L110.6,253.7c0.9,0,1.8,0,2.6,0c1.8,0.1,3.5-1.1,4-3c0.5-2.1-0.5-4.6-3-4.9c-2.3-0.3-4.7-0.1-7.1-0.1c-0.2,0-0.7,0.4-0.7,0.7
		c-0.1,2.1-0.2,4.2-0.3,6.3c0,0.8,0.4,1.2,1.2,1.2C108.4,253.6,109.5,253.7,110.6,253.7z"/>
	<path class="st0" d="M184.6,253.5c1.1-1.3,2.3-2.7,3.4-4c2.6-3.2,5.2-6.4,7.9-9.6c0.2-0.3,0.8-0.5,1.2-0.5c2.1,0,4.2,0,6.3,0
		c0.4,0,0.7,0.2,1.2,0.4c-2,2.4-3.8,4.7-5.7,7c-2.1,2.6-4.3,5.2-6.5,7.8c-0.6,0.7-0.6,1.2,0,2c4.3,5.9,8.6,11.8,12.9,17.7
		c0.2,0.2,0.2,0.5,0.4,0.8c-0.3,0.1-0.6,0.3-0.9,0.3c-2.3,0-4.7,0-7,0c-0.4,0-1-0.3-1.2-0.6c-3.7-5-7.3-10.1-11-15.1
		c0-0.1-0.1-0.1-0.1-0.2c-0.4-0.3-0.7-0.5-1.1-0.8c-0.1,0.4-0.4,0.9-0.4,1.3c0,4.7,0,9.4,0,14.1c0,1-0.3,1.3-1.2,1.3
		c-1.8-0.1-3.6-0.1-5.4,0c-0.9,0-1.1-0.3-1.1-1.1c0-0.3,0-0.7,0-1c0-10.7,0-21.4,0-32.1c0-0.3,0-0.6,0-0.9c0.1-0.6,0.3-0.9,1-0.9
		c1.9,0,3.7,0,5.6,0c0.9,0,1.2,0.3,1.2,1.2c0,3.9,0,7.8,0,11.6c0,0.4,0.2,0.9,0.3,1.3C184.3,253.5,184.5,253.5,184.6,253.5z"/>
	<path class="st0" d="M70.4,254c4.6,0,9.3,0,13.9,0c1.3,0,1.6,0.4,1.6,1.6c0,7.2,0,14.3,0,21.5c0,1.8-0.7,2.4-2.4,2.9
		c-2,0.6-3.9,0.8-6,0.8c-0.8,0-1.1-0.3-1.3-1c-0.2-1.2-0.6-2.3-0.9-3.4c-0.2-0.9,0.3-1.3,1.1-1.3c0.4,0,0.8,0,1.2,0
		c1.3,0,1.6-0.3,1.6-1.6c0-0.7-0.3-1-1-1.1c-0.4,0-0.8-0.1-1.1-0.1c-4.5,0-9,0-13.6,0c-0.3,0-0.6,0-0.9,0c-0.8,0.1-1.2,0.5-1.2,1.4
		c0.1,1.7,0,3.4,0,5c0,1-0.4,1.3-1.3,1.3c-1.2,0-2.3,0-3.5,0c-1.3,0-1.6-0.2-1.6-1.6c0-4.7,0-9.4,0-14c0-2.9,0-5.8,0-8.7
		c0-1.4,0.2-1.6,1.6-1.6C61.2,254,65.8,254,70.4,254z M70.2,268.1L70.2,268.1c2.2,0,4.5,0,6.7,0c0.4,0,0.8,0,1.2-0.1
		c0.9-0.2,1.1-0.8,1-1.6c-0.1-0.8-0.5-1.1-1.3-1.1c-5.1,0-10.2,0-15.3,0c-0.7,0-1.1,0.4-1.2,1.2c-0.1,1.2,0.2,1.6,1.7,1.6
		C65.4,268.1,67.8,268.1,70.2,268.1z M70.1,261.2c2.5,0,5,0,7.5,0c0.8,0,1.5-0.2,1.5-1.1c0-0.8-0.5-1.4-1.4-1.4c-5,0-9.9,0-14.9,0
		c-0.8,0-1.4,0.4-1.4,1.3c0,1,0.5,1.2,1.4,1.2C65.2,261.2,67.7,261.2,70.1,261.2z"/>
	<path class="st0" d="M139.3,253.6c0.7,0.1,1.2,0.2,1.8,0.2c3.8,0,7.6-0.1,11.5-0.1c1.5,0,1.8,0.3,1.8,1.8c0,0.9-0.1,1.9,0,2.8
		c0.1,1.1-0.4,1.6-1.6,1.6c-4-0.1-8.1,0-12.1,0c-1.4,0-1.5,0.1-1.5,1.5c0,2.3,0,4.5,0,6.8c0,1,0.4,1.4,1.4,1.3c4.6,0,9.1,0,13.7,0
		c1.8,0,1.8,0.1,1.8,1.8c0,0.7,0,1.5,0,2.2c0.1,1.6-0.3,1.9-1.9,1.9c-5.3,0-10.7,0-16,0c-1.9,0-3.9,0-5.8,0c-0.9,0-1.1-0.3-1.1-1.2
		c0-11.2,0-22.4,0-33.7c0-0.9,0.4-1.2,1.2-1.2c7.2,0,14.4,0,21.6,0c0.9,0,1.2,0.4,1.4,1.2c0,0.1,0,0.3,0,0.4c0,5.3,0.4,4.2-4,4.3
		c-3.4,0.1-6.9,0-10.3,0c-1.9,0-2.1,0.2-2,2c0,1.7,0,3.4,0,5.1C139.2,252.8,139.2,253.1,139.3,253.6z"/>
	<path class="st0" d="M208.7,257.3c0-5.5,0-11,0-16.5c0-1.2,0.3-1.6,1.6-1.5c7,0,14,0,21,0c1.3,0,1.6,0.3,1.6,1.6c0,1,0,2,0,2.9
		c0,1.2-0.2,1.4-1.4,1.4c-4.2,0-8.5,0-12.7,0c-0.3,0-0.6,0-0.9,0c-0.8,0.1-1.3,0.4-1.3,1.4c0.1,1.9,0.1,3.8,0,5.8
		c0,0.9,0.3,1.3,1.2,1.3c2,0,3.9,0,5.9,0c2.1,0,4.2,0,6.3,0c1.6,0,1.8,0.2,1.8,1.8c0,1,0,2,0,2.9s-0.4,1.3-1.3,1.3
		c-4.1,0-8.2,0-12.3,0c-1.4,0-1.6,0.2-1.6,1.6c0,2.1,0,4.3,0,6.4c0,1.5,0.2,1.7,1.7,1.7c4.6,0,9.1,0,13.7,0c1.4,0,1.5,0.1,1.5,1.5
		c0,1.1,0,2.2,0,3.2c0,0.8-0.3,1.2-1.1,1.2c-7.5,0-15.1,0-22.6,0c-0.9,0-1.1-0.5-1.1-1.3C208.7,268.5,208.7,262.9,208.7,257.3z"/>
	<path class="st0" d="M20.4,236.9c4.6,0,9.3,0,13.9,0c1.2,0,1.5,0.4,1.5,1.5c0,8.8,0,17.7,0,26.5c0,1.5-0.4,2-1.9,2
		c-1,0-2.1,0.1-3.1-0.1c-1.3-0.2-1.6-0.7-1.6-2c0-3.8,0-7.5,0-11.3c0-3.1,0-6.2,0-9.3c0-1.3-0.2-1.5-1.5-1.5c-4.8,0-9.6,0-14.4,0
		c-1.3,0-1.6,0.3-1.7,1.7c0,2.6,0,5.2,0,7.8c0,4.1,0,8.2,0.1,12.4c0,1.7-0.5,2.4-2.5,2.5c-0.8,0-1.5,0-2.3,0c-1.2,0-1.8-0.6-1.8-1.6
		c0-9.1-0.1-18.2-0.1-27.2c0-0.9,0.5-1.2,1.3-1.2C11,236.9,15.7,236.9,20.4,236.9L20.4,236.9z"/>
	<path class="st0" d="M70.1,251.9c-7,0-13.9,0-20.9,0c-1.4,0-1.6-0.1-1.6-1.5c0-0.8,0-1.6,0-2.4c0-0.7,0.3-1.1,1.1-1.1
		c1.7,0,3.4,0,5,0c1.2,0,1.4-0.2,1.4-1.4c0-2.2,0-4.3,0-6.5c0-0.8,0.4-1.2,1.1-1.2c1.3-0.1,2.5,0,3.8,0c0.7,0,1,0.4,1,1.1
		c0,2.2,0,4.3,0,6.5c0,1.1,0.3,1.4,1.4,1.5c1.2,0,2.4,0,3.6,0c0.9,0,1.3-0.4,1.3-1.3c0-3.1,0-6.3,0-9.4c0-0.9,0.5-1.3,1.2-1.3
		c1.3,0,2.7,0,4,0c0.9,0,1.4,0.4,1.4,1.4c-0.1,2.6-0.2,2.7,2.7,2.6c3.3,0,6.5,0,9.8,0c0.9,0,1.2,0.3,1.1,1.1
		c-0.1,1.1-0.1,2.3-0.2,3.4c-1.1,0-2.2,0.1-3.2,0.1c-3,0-6,0-8.9,0c-1.4,0-1.6,0.2-1.6,1.6c0,1.5,0.2,1.7,1.6,1.7
		c5.4,0,10.7,0,16.1,0c1.1,0,1.4,0.3,1.4,1.4c-0.1,0.9,0,1.7,0,2.6c0,0.9-0.4,1.1-1.2,1.1c-5.3,0-10.5,0-15.8,0
		C73.8,251.9,72,251.9,70.1,251.9z"/>
	<path class="st0" d="M23.4,247.6c-0.2,5.4-0.4,10.7-0.7,16.1c-0.1,1,0.3,1.5,1.2,1.9c5,2.4,9.9,4.8,14.9,7.2
		c0.3,0.2,0.6,0.3,0.9,0.5c0.5,0.4,0.9,0.8,0.3,1.4c-1.2,1.5-2.5,3-3.7,4.5c-0.6,0.7-1.2,0.5-1.9,0.1c-3.9-2.7-7.9-5.3-11.9-7.9
		c0,0-0.1,0-0.1-0.1c-2-1.3-2-1.3-3.7,0.4c-3.8,3.8-8.3,6.5-13.4,8.2c-1.3,0.4-2,0.2-2.8-0.9c-0.7-1-1.5-2-2.2-3.1s-0.5-1.6,0.8-1.8
		c5.2-0.9,9.7-3,13-7.1c1.3-1.7,2.1-3.6,2.2-5.8c0.2-4.6,0.2-9.2,0.3-13.8c0-1.9,0.4-2.2,2.2-1.9c0.9,0.1,1.8,0.1,2.7,0.1
		C23.3,245.7,23.6,245.9,23.4,247.6z"/>
	<path class="st0" d="M162,257.5c0-5.6,0-11.1,0-16.7c0-1.4,0.1-1.5,1.4-1.5c1.7,0,3.4,0,5,0c0.8,0,1.2,0.3,1.2,1.1
		c0,11.3,0,22.5,0,33.8c0,0.9-0.3,1.2-1.2,1.1c-1.8,0-3.5-0.1-5.3,0c-0.9,0-1.3-0.3-1.3-1.2C162,268.6,162,263,162,257.5z"/>
</g>
<g class="st1">
	<path class="st2" d="M0.1,0c9.8,0,19.5,0,29.3,0c0.6,0.1,1.3,0.3,1.9,0.4c2.5,0.2,5,0.3,7.6,0.5C40.3,1,41.7,1.2,43,1.4
		c2.9,0.5,5.9,1,8.8,1.6c2.9,0.6,5.8,1,8.6,1.8c4.3,1.3,8.6,2.8,12.7,4.5c10.1,4.2,18.9,10.4,25.8,19c3.8,4.7,6.4,10.2,7.6,16.1
		c0.6,2.9,0.7,6,0.9,8.9c0.1,1.1-0.2,2.1-0.4,3.2c-0.1,1.1-0.2,2.2-0.5,3.3c-0.7,2.4-1.5,4.8-2.5,7.1c-1.8,4.3-4.2,8.3-7.4,11.7
		c-2.7,2.9-5.6,5.5-8.5,8.1c-2.7,2.5-5.8,4.5-9,6.3c-4.3,2.5-8.6,4.7-13.3,6.4c-3,1.1-6,2.2-9,3.2c-2.2,0.7-4.4,1.2-6.7,1.8
		c-2.2,0.6-4.5,1.1-6.8,1.6c-2,0.4-4.1,0.6-6.2,0.9c-1.1,0.2-2.1,0.3-3.2,0.5c-1.6,0.2-3.2,0.5-4.8,0.7c-1.6,0.2-3.2,0.4-4.8,0.6
		c-0.1,0-0.1,0.1-0.2,0.3c0.9,0,1.6,0.1,2.4,0.1c9.2,0,18.4-0.1,27.6,0c7.8,0,15.7,0.2,23.5,0.3c5.5,0.1,10.9,0,16.3,0.9
		c1.3,0.2,2.6,0.3,3.9,0.5c2.4,0.5,4.7,1,7.1,1.6c2.2,0.6,4.5,1.1,6.7,1.8c2.9,1,5.7,2.1,8.5,3.3c4.4,2,8.6,4.5,12.5,7.4
		c4.6,3.5,8.6,7.5,11.9,12.2c3.8,5.3,6,11.3,7,17.6c0.4,2.9,0.7,5.9,0.3,8.9c-0.5,3.5-1.1,6.9-2.2,10.2c-1.4,4.1-3.4,7.8-5.9,11.3
		c-5.4,7.5-12.5,13-20.6,17.2c-3.5,1.8-7.2,3.2-10.9,4.6c-2.9,1.1-5.9,1.9-8.9,2.5c-2.8,0.6-5.6,1-8.4,1.4c-3.5,0.5-7.1,1-10.6,1.2
		c-3.9,0.2-7.7,0.1-11.6,0.1c-23.7,0-47.3,0-71-0.1c-0.4,0-0.7,0.1-1,0s-0.6-0.4-0.7-0.7s0-0.8,0-1.1c0-29.7,0-59.3,0-89
		C0,81.3,0,41.4,0,1.4C0.1,1,0.1,0.5,0.1,0z"/>
	<path class="st2" d="M272.2,0c0,0.5-0.1,1-0.1,1.6c0,27.1,0,54.2,0,81.3c0,42.4,0,84.8,0,127.2c0,2.2,0,2.3-2.3,2.2
		c-3.3-0.2-6.7-0.3-9.9-1c-11.9-2.3-21.9-8.1-29.7-17.6c-4.5-5.4-7.8-11.6-10.9-17.8c-3.8-7.6-7.3-15.3-11-22.9
		c-4-8.1-8.1-16.2-13.6-23.4c-4.9-6.5-10.5-12.2-17.4-16.8c-3.6-2.4-7.4-4.4-11.4-6.1c-2.4-1-4.9-1.6-7.4-2.3
		c-2.2-0.6-4.4-1.1-6.6-1.6c-1.1-0.2-2.3-0.4-3.4-0.5c-1.6-0.2-3.2-0.6-4.8-0.7c-4.1-0.2-8.2-0.3-12.3-0.4c-1,0-2,0.2-3,0.2
		c-0.3,0-0.5-0.3-0.8-0.5c0.2-0.2,0.4-0.5,0.6-0.6c4.2-2,8.4-3.8,12.5-6c4.9-2.6,9.3-5.9,13.6-9.4c3.2-2.6,6.3-5.5,9-8.7
		c2.8-3.4,5.1-7,6.7-11.1c1.4-3.7,2.5-7.4,2.5-11.4c0-2.4,0.2-4.9-0.2-7.3c-0.9-6.2-3.2-11.9-6.8-17.1c-4.2-6-9.4-11-15.1-15.5
		C144,8.6,136.7,4.7,129,1.5c-0.4-0.2-0.8-0.4-1.4-0.7c0.4-0.3,0.7-0.6,1-0.8C176.5,0,224.4,0,272.2,0z"/>
	<path class="st2" d="M265,266.9c0-0.5,0.1-1,0.1-1.5c0-8.1,0-16.3,0-24.4c0-1.6,0.1-1.6,1.6-1.6s2.9,0,4.4,0c0.9,0,1.1,0.3,1.1,1.1
		c0,0.2,0,0.3,0,0.5c0,10.9,0,21.9,0,32.8c0,1.6,0,1.6-1.6,1.6c-2.8,0-5.6,0-8.4,0c-0.7,0-1.1-0.2-1.4-0.8c-4.2-9-8.4-18-12.6-27
		c-0.2-0.3-0.6-0.6-0.9-0.8c-0.1,0.4-0.4,0.8-0.4,1.2c0,8.6,0,17.2,0,25.8c0,1.6,0,1.6-1.7,1.6c-1.5,0-2.9,0-4.4,0
		c-0.7,0-1.1-0.2-1.1-1c0-11.3,0-22.6,0-33.8c0-0.9,0.4-1.2,1.2-1.2c3.2,0,6.3,0,9.5,0c0.7,0,1.2,0.3,1.5,0.9
		c3,6.4,5.9,12.7,8.9,19.1c1,2.2,2,4.4,3,6.5c0.2,0.4,0.5,0.8,0.8,1.2C264.7,267,264.9,266.9,265,266.9z"/>
	<path class="st2" d="M98.5,257.4c0-5.5,0-11,0-16.6c0-1.1,0.3-1.5,1.4-1.5c4.8,0.1,9.5-0.1,14.3,0.1c4,0.1,7.5,1.5,9.8,4.9
		c2.1,3.1,1.7,7.1-1.2,9.7c-0.7,0.6-1.5,1.1-2.2,1.6c-1,0.7-1,1.3,0.1,1.8c1.4,0.7,2.9,1.3,3.9,2.6c1.6,2.2,2.5,4.6,2,7.3
		c-0.4,2.3-1.8,4-3.8,5.2s-4.2,2.2-6.6,2.2c-5.5,0.1-11,0.2-16.6,0.4c-0.9,0-1.1-0.4-1.1-1.2C98.5,268.5,98.5,262.9,98.5,257.4z
		 M106.1,264.6c0,1,0,1.9,0,2.8c0,1.6,0.3,1.9,1.8,2c1.9,0.1,3.9,0.2,5.8,0c1.3-0.1,2.7-0.3,3.7-1.4c1.6-1.7,1.6-3.8,0.8-5.7
		c-0.7-1.8-2.5-2.3-4.4-2.4c-2.1-0.1-4.1,0-6.2-0.1c-0.8,0-1.3,0.3-1.3,1.1C106.2,262.2,106.1,263.4,106.1,264.6z M110.6,253.7
		L110.6,253.7c0.9,0,1.8,0,2.6,0c1.8,0.1,3.5-1.1,4-3c0.5-2.1-0.5-4.6-3-4.9c-2.3-0.3-4.7-0.1-7.1-0.1c-0.2,0-0.7,0.4-0.7,0.7
		c-0.1,2.1-0.2,4.2-0.3,6.3c0,0.8,0.4,1.2,1.2,1.2C108.4,253.6,109.5,253.7,110.6,253.7z"/>
	<path class="st2" d="M184.6,253.5c1.1-1.3,2.3-2.7,3.4-4c2.6-3.2,5.2-6.4,7.9-9.6c0.2-0.3,0.8-0.5,1.2-0.5c2.1,0,4.2,0,6.3,0
		c0.4,0,0.7,0.2,1.2,0.4c-2,2.4-3.8,4.7-5.7,7c-2.1,2.6-4.3,5.2-6.5,7.8c-0.6,0.7-0.6,1.2,0,2c4.3,5.9,8.6,11.8,12.9,17.7
		c0.2,0.2,0.2,0.5,0.4,0.8c-0.3,0.1-0.6,0.3-0.9,0.3c-2.3,0-4.7,0-7,0c-0.4,0-1-0.3-1.2-0.6c-3.7-5-7.3-10.1-11-15.1
		c0-0.1-0.1-0.1-0.1-0.2c-0.4-0.3-0.7-0.5-1.1-0.8c-0.1,0.4-0.4,0.9-0.4,1.3c0,4.7,0,9.4,0,14.1c0,1-0.3,1.3-1.2,1.3
		c-1.8-0.1-3.6-0.1-5.4,0c-0.9,0-1.1-0.3-1.1-1.1c0-0.3,0-0.7,0-1c0-10.7,0-21.4,0-32.1c0-0.3,0-0.6,0-0.9c0.1-0.6,0.3-0.9,1-0.9
		c1.9,0,3.7,0,5.6,0c0.9,0,1.2,0.3,1.2,1.2c0,3.9,0,7.8,0,11.6c0,0.4,0.2,0.9,0.3,1.3C184.3,253.5,184.5,253.5,184.6,253.5z"/>
	<path class="st2" d="M70.4,254c4.6,0,9.3,0,13.9,0c1.3,0,1.6,0.4,1.6,1.6c0,7.2,0,14.3,0,21.5c0,1.8-0.7,2.4-2.4,2.9
		c-2,0.6-3.9,0.8-6,0.8c-0.8,0-1.1-0.3-1.3-1c-0.2-1.2-0.6-2.3-0.9-3.4c-0.2-0.9,0.3-1.3,1.1-1.3c0.4,0,0.8,0,1.2,0
		c1.3,0,1.6-0.3,1.6-1.6c0-0.7-0.3-1-1-1.1c-0.4,0-0.8-0.1-1.1-0.1c-4.5,0-9,0-13.6,0c-0.3,0-0.6,0-0.9,0c-0.8,0.1-1.2,0.5-1.2,1.4
		c0.1,1.7,0,3.4,0,5c0,1-0.4,1.3-1.3,1.3c-1.2,0-2.3,0-3.5,0c-1.3,0-1.6-0.2-1.6-1.6c0-4.7,0-9.4,0-14c0-2.9,0-5.8,0-8.7
		c0-1.4,0.2-1.6,1.6-1.6C61.2,254,65.8,254,70.4,254z M70.2,268.1L70.2,268.1c2.2,0,4.5,0,6.7,0c0.4,0,0.8,0,1.2-0.1
		c0.9-0.2,1.1-0.8,1-1.6c-0.1-0.8-0.5-1.1-1.3-1.1c-5.1,0-10.2,0-15.3,0c-0.7,0-1.1,0.4-1.2,1.2c-0.1,1.2,0.2,1.6,1.7,1.6
		C65.4,268.1,67.8,268.1,70.2,268.1z M70.1,261.2c2.5,0,5,0,7.5,0c0.8,0,1.5-0.2,1.5-1.1c0-0.8-0.5-1.4-1.4-1.4c-5,0-9.9,0-14.9,0
		c-0.8,0-1.4,0.4-1.4,1.3c0,1,0.5,1.2,1.4,1.2C65.2,261.2,67.7,261.2,70.1,261.2z"/>
	<path class="st2" d="M139.3,253.6c0.7,0.1,1.2,0.2,1.8,0.2c3.8,0,7.6-0.1,11.5-0.1c1.5,0,1.8,0.3,1.8,1.8c0,0.9-0.1,1.9,0,2.8
		c0.1,1.1-0.4,1.6-1.6,1.6c-4-0.1-8.1,0-12.1,0c-1.4,0-1.5,0.1-1.5,1.5c0,2.3,0,4.5,0,6.8c0,1,0.4,1.4,1.4,1.3c4.6,0,9.1,0,13.7,0
		c1.8,0,1.8,0.1,1.8,1.8c0,0.7,0,1.5,0,2.2c0.1,1.6-0.3,1.9-1.9,1.9c-5.3,0-10.7,0-16,0c-1.9,0-3.9,0-5.8,0c-0.9,0-1.1-0.3-1.1-1.2
		c0-11.2,0-22.4,0-33.7c0-0.9,0.4-1.2,1.2-1.2c7.2,0,14.4,0,21.6,0c0.9,0,1.2,0.4,1.4,1.2c0,0.1,0,0.3,0,0.4c0,5.3,0.4,4.2-4,4.3
		c-3.4,0.1-6.9,0-10.3,0c-1.9,0-2.1,0.2-2,2c0,1.7,0,3.4,0,5.1C139.2,252.8,139.2,253.1,139.3,253.6z"/>
	<path class="st2" d="M208.7,257.3c0-5.5,0-11,0-16.5c0-1.2,0.3-1.6,1.6-1.5c7,0,14,0,21,0c1.3,0,1.6,0.3,1.6,1.6c0,1,0,2,0,2.9
		c0,1.2-0.2,1.4-1.4,1.4c-4.2,0-8.5,0-12.7,0c-0.3,0-0.6,0-0.9,0c-0.8,0.1-1.3,0.4-1.3,1.4c0.1,1.9,0.1,3.8,0,5.8
		c0,0.9,0.3,1.3,1.2,1.3c2,0,3.9,0,5.9,0c2.1,0,4.2,0,6.3,0c1.6,0,1.8,0.2,1.8,1.8c0,1,0,2,0,2.9s-0.4,1.3-1.3,1.3
		c-4.1,0-8.2,0-12.3,0c-1.4,0-1.6,0.2-1.6,1.6c0,2.1,0,4.3,0,6.4c0,1.5,0.2,1.7,1.7,1.7c4.6,0,9.1,0,13.7,0c1.4,0,1.5,0.1,1.5,1.5
		c0,1.1,0,2.2,0,3.2c0,0.8-0.3,1.2-1.1,1.2c-7.5,0-15.1,0-22.6,0c-0.9,0-1.1-0.5-1.1-1.3C208.7,268.5,208.7,262.9,208.7,257.3z"/>
	<path class="st2" d="M20.4,236.9c4.6,0,9.3,0,13.9,0c1.2,0,1.5,0.4,1.5,1.5c0,8.8,0,17.7,0,26.5c0,1.5-0.4,2-1.9,2
		c-1,0-2.1,0.1-3.1-0.1c-1.3-0.2-1.6-0.7-1.6-2c0-3.8,0-7.5,0-11.3c0-3.1,0-6.2,0-9.3c0-1.3-0.2-1.5-1.5-1.5c-4.8,0-9.6,0-14.4,0
		c-1.3,0-1.6,0.3-1.7,1.7c0,2.6,0,5.2,0,7.8c0,4.1,0,8.2,0.1,12.4c0,1.7-0.5,2.4-2.5,2.5c-0.8,0-1.5,0-2.3,0c-1.2,0-1.8-0.6-1.8-1.6
		c0-9.1-0.1-18.2-0.1-27.2c0-0.9,0.5-1.2,1.3-1.2C11,236.9,15.7,236.9,20.4,236.9L20.4,236.9z"/>
	<path class="st2" d="M70.1,251.9c-7,0-13.9,0-20.9,0c-1.4,0-1.6-0.1-1.6-1.5c0-0.8,0-1.6,0-2.4c0-0.7,0.3-1.1,1.1-1.1
		c1.7,0,3.4,0,5,0c1.2,0,1.4-0.2,1.4-1.4c0-2.2,0-4.3,0-6.5c0-0.8,0.4-1.2,1.1-1.2c1.3-0.1,2.5,0,3.8,0c0.7,0,1,0.4,1,1.1
		c0,2.2,0,4.3,0,6.5c0,1.1,0.3,1.4,1.4,1.5c1.2,0,2.4,0,3.6,0c0.9,0,1.3-0.4,1.3-1.3c0-3.1,0-6.3,0-9.4c0-0.9,0.5-1.3,1.2-1.3
		c1.3,0,2.7,0,4,0c0.9,0,1.4,0.4,1.4,1.4c-0.1,2.6-0.2,2.7,2.7,2.6c3.3,0,6.5,0,9.8,0c0.9,0,1.2,0.3,1.1,1.1
		c-0.1,1.1-0.1,2.3-0.2,3.4c-1.1,0-2.2,0.1-3.2,0.1c-3,0-6,0-8.9,0c-1.4,0-1.6,0.2-1.6,1.6c0,1.5,0.2,1.7,1.6,1.7
		c5.4,0,10.7,0,16.1,0c1.1,0,1.4,0.3,1.4,1.4c-0.1,0.9,0,1.7,0,2.6c0,0.9-0.4,1.1-1.2,1.1c-5.3,0-10.5,0-15.8,0
		C73.8,251.9,72,251.9,70.1,251.9z"/>
	<path class="st2" d="M23.4,247.6c-0.2,5.4-0.4,10.7-0.7,16.1c-0.1,1,0.3,1.5,1.2,1.9c5,2.4,9.9,4.8,14.9,7.2
		c0.3,0.2,0.6,0.3,0.9,0.5c0.5,0.4,0.9,0.8,0.3,1.4c-1.2,1.5-2.5,3-3.7,4.5c-0.6,0.7-1.2,0.5-1.9,0.1c-3.9-2.7-7.9-5.3-11.9-7.9
		c0,0-0.1,0-0.1-0.1c-2-1.3-2-1.3-3.7,0.4c-3.8,3.8-8.3,6.5-13.4,8.2c-1.3,0.4-2,0.2-2.8-0.9c-0.7-1-1.5-2-2.2-3.1s-0.5-1.6,0.8-1.8
		c5.2-0.9,9.7-3,13-7.1c1.3-1.7,2.1-3.6,2.2-5.8c0.2-4.6,0.2-9.2,0.3-13.8c0-1.9,0.4-2.2,2.2-1.9c0.9,0.1,1.8,0.1,2.7,0.1
		C23.3,245.7,23.6,245.9,23.4,247.6z"/>
	<path class="st2" d="M162,257.5c0-5.6,0-11.1,0-16.7c0-1.4,0.1-1.5,1.4-1.5c1.7,0,3.4,0,5,0c0.8,0,1.2,0.3,1.2,1.1
		c0,11.3,0,22.5,0,33.8c0,0.9-0.3,1.2-1.2,1.1c-1.8,0-3.5-0.1-5.3,0c-0.9,0-1.3-0.3-1.3-1.2C162,268.6,162,263,162,257.5z"/>
</g>
</svg>
