<?xml version="1.0" encoding="utf-8"?>
<!-- Generator: Adobe Illustrator 24.0.1, SVG Export Plug-In . SVG Version: 6.00 Build 0)  -->
<svg version="1.1" id="Слой_1" xmlns="http://www.w3.org/2000/svg" xmlns:xlink="http://www.w3.org/1999/xlink" x="0px" y="0px"
	 viewBox="0 0 1418.6 184.3" style="enable-background:new 0 0 1418.6 184.3;" xml:space="preserve">
<style type="text/css">
	.st0{fill:#B80C1E;}
</style>
<g>
	<path class="st0" d="M700.1,32.1c-0.3,1-0.2,1.3-0.3,1.4c-15.7,13.7-24.7,32.1-35.5,49.2c-16.7,26.3-33.3,52.7-49.7,79.3
		c-3.8,6.1-6.1,13.1-9.2,20c-13,0-26.3,0-39.6,0c-19.8,0-39.6-0.5-59.4,0.2c-11.9,0.4-13.3-8.1-9.4-16.1c3-6,7-11.6,10.6-17.3
		c12.8-20,25.5-40.1,38.6-60c8.2-12.5,20.4-18.5,35.3-18.9c11.6-0.3,23.3-0.1,35-0.1c8,0,9.1,1.2,9.1,9.2c2.9-4.6,5.9-9.2,8.8-13.8
		c6.4-10,12.7-20.1,19.1-30.1c0.8-1.2,2.3-2.9,3.5-2.9C671.1,32,685.4,32.1,700.1,32.1z M612,91.9c-8,0-14.5,0.2-20.9-0.1
		c-4.9-0.2-8.3,1.7-10.8,5.7C569,116,557.7,134.4,546.5,153c-2.6,4.4-1.5,7.4,3.2,8.8c7.2,2.1,22.2-0.4,27.2-8.8
		c10.6-17.9,21.8-35.5,32.7-53.3C610.7,97.7,611,95.2,612,91.9z"/>
	<path class="st0" d="M138.3,181c-15,0-30.4,0-45,0c32.6-47.6,61.5-97.7,92.6-146.4c2.5-3.9,3.7-8.6,5.6-13.2c13.9,0,28.2,0,43.3,0
		c-11.7,19-23,37.4-34.4,55.8c0.3,0.3,0.6,0.5,0.8,0.8c1.7-1.2,3.2-2.7,5.1-3.4c4.2-1.7,8.5-4,12.8-4.3c10.3-0.6,20.6-0.3,31-0.2
		C260.8,70,266,76.8,262.7,87c-2,6.2-4.8,12.4-8.2,18c-13.4,21.8-27.3,43.3-40.7,65.1c-1.8,2.9-2.4,6.7-3.9,10.8
		c-14.7,0-30.7,0-47.1,0c22-26.8,36.9-57.6,56-85.8c-6.5-5.6-13.1-3.9-19.9-3c-9.1,1.2-13.2,7.8-17.4,14.6
		c-12.6,20.5-25.4,41-37.9,61.6C141.4,171.9,140.2,176.3,138.3,181z"/>
	<path class="st0" d="M1074.9,181.2c-14.7,0-29.3,0-44,0c-8.3,0-12.5-4.9-9.8-12.7c2.2-6.3,5.6-12.3,9.2-18
		c11.7-18.8,23.4-37.5,35.7-55.9c6.7-10.1,15.7-18,28.1-20.8c4.5-1,9.1-1.8,13.7-1.8c28-0.2,56-0.1,83.9-0.1c9.4,0,12.3,4.7,7.5,13
		c-6.9,11.9-14,23.5-21.2,35.2c-8.3,13.5-16.2,27.3-25.3,40.2c-6.9,9.7-15.6,18.2-28.4,20.2c-3.4,0.5-6.9,0.7-10.4,0.7
		C1100.9,181.2,1087.9,181.2,1074.9,181.2z M1073.1,160.4c8.9,0,16.9-0.2,24.8,0.1c5.8,0.2,9.8-2.2,12.7-7
		c6.7-10.9,13.5-21.6,20.2-32.4c4.5-7.2,9-14.3,13.3-21.5c3-5,1.8-6.9-3.9-7c-6-0.1-12,0.1-18,0c-5.5-0.1-9.9,2-12.7,6.5
		c-11.5,18.2-22.9,36.4-34.2,54.7C1074.3,155.4,1074.1,157.6,1073.1,160.4z"/>
	<path class="st0" d="M748.9,156.3c-4.4,9.4-9.9,17.3-17.3,23.9c-1,0.8-2.7,1-4.1,1c-31.3,0-62.6,0-93.9-0.1
		c-7.7,0-10.8-6.1-6.7-13.1c8.2-13.9,16.6-27.8,24.9-41.6c6.6-11,13.2-22.1,20-33.1c4.9-7.9,9.8-16,18.9-19.6
		c4.8-1.9,10.1-3.5,15.2-3.6c25.5-0.4,51-0.2,76.4-0.2c10.5,0,15.2,7.5,10,16.9c-4.6,8.4-9.8,16.4-14.8,24.6
		c-4.3,7-8.9,13.9-13,21.1c-2.2,3.9-5,5.3-9.4,5.2c-18.8-0.2-37.7,0.6-56.4-0.3c-15.4-0.7-17.3,7.4-20.4,18.8
		c-0.3,1,1.8,3.8,2.9,3.9c10.1,0.5,20.3,1.3,30.3,0.6C723.8,159.9,736.1,157.8,748.9,156.3z M701.2,115.7c7.3,0,13.1,0,18.9,0
		c6.1-0.1,13.3,1.7,18.1-0.9c4.6-2.5,6.6-9.5,9.8-14.5c3.6-5.7,1.6-10.1-5.4-10.4c-6.4-0.3-13-0.1-19.3,1c-3.6,0.6-7.9,2.8-10.1,5.6
		C708.7,102,705.5,108.5,701.2,115.7z"/>
	<path class="st0" d="M467.5,69.8c-1.5,3.1-2.6,5.2-3.8,7.7c1.2,0,1.8,0.2,2.1,0c12.7-9.9,27.6-7.7,42.1-7.4
		c5.1,0.1,10.3,0.7,15.2,1.8c7,1.6,8.8,4.7,5.5,11c-7.1,13.4-14.4,26.7-22.2,39.7c-10,16.5-20.6,32.7-30.6,49.2
		c-1.6,2.6-1.2,6.3-1.7,9.7c-15.4,0-31.6,0-49.4,0c3.7-4.3,6.9-7.4,9.3-10.9c7.5-11.2,14.9-22.6,22.1-34c7.8-12.4,15.4-25,23.1-37.5
		c2.9-4.7,2.3-6.1-3.1-7.5c-11.4-2.9-22.7,1.8-28.8,11.7c-13.4,21.6-27,43.1-40.3,64.7c-2.4,3.8-3.8,8.3-5.9,12.8
		c-14.8,0-30.3,0-46.4,0c12.1-10.7,18.2-24.8,26.3-37.4c13.1-20.2,25.6-40.9,38.2-61.4c1.4-2.2,2.7-4.8,2.9-7.3c0.3-4.1,2-5.2,6-5.1
		C441,70,453.9,69.8,467.5,69.8z"/>
	<path class="st0" d="M286.5,70.1c15.5,0,31.7,0,48.9,0c-3.3,3.9-6.5,7-8.9,10.6c-11.6,18.1-23,36.2-34.4,54.4
		c-3.9,6.2-7.7,12.3-11.3,18.6c-0.9,1.7-1.6,4.3-0.9,5.9c0.4,1.1,3.5,2,5.1,1.7c7.4-1.5,14.9-3,21.9-5.5c2.6-1,4.5-4.6,6.2-7.4
		c13.9-22.1,27.8-44.2,41.4-66.4c2.2-3.5,3-7.8,4.5-11.9c15.3,0,30.8,0,46,0c-4.9,6.7-10.1,13.2-14.5,20.2
		c-16.8,26.5-33.4,53.2-49.8,79.8c-1.4,2.3-1.4,5.4-2.6,7.9c-0.6,1.3-2.2,3.1-3.4,3.1c-13.6,0.2-27.2,0.1-41.6,0.1
		c1.4-2.8,2.5-5.1,3.6-7.3c-0.6-0.3-1.1-0.6-1.2-0.5c-8.6,6.7-18.7,8-29.2,7.6c-9.8-0.3-19.6-0.7-29.2-1.9c-7.3-0.9-8.5-4-5-10.2
		c10.9-19,22.1-38,33.2-56.9c6.5-11.1,13.4-22,19.7-33.2C286.4,76.5,286.1,73.2,286.5,70.1z"/>
	<path class="st0" d="M1343.5,33.1c-4.5,7.2-8.5,13.8-12.8,20.2c-0.6,0.9-2.6,1.4-3.7,1.2c-16.4-4.1-29.5,6.4-38.1,17
		c-0.3,0.3-0.1,0.9-0.2,1.9c8.3,0,16.5,0,26,0c-4.9,8-9.1,15.1-13.6,22c-0.6,0.9-2.6,1.1-4,1.2c-6.8,0.1-13.7-0.1-20.5,0.2
		c-1.7,0.1-4,1.4-4.9,2.9c-15.8,26.9-31.4,53.9-47.2,80.8c-0.9,1.6-2.9,3.6-4.5,3.6c-11.5,0.3-22.9,0.2-35.4,0.2
		c16.9-29.2,33.5-57.8,50.7-87.4c-10.4,0-19.8,0-30.3,0c4.7-7.7,8.7-14.5,13-21c0.8-1.1,2.9-1.8,4.5-1.9c8-0.2,16-0.2,24,0
		c3.3,0.1,5.3-0.9,7.4-3.6c7.7-9.7,15.7-19.1,23.9-28.3c5.7-6.5,13.9-8.4,22-8.7C1314.2,32.7,1328.5,33.1,1343.5,33.1z"/>
	<path class="st0" d="M516,0c-3.8,5.2-6.8,9.5-10,13.6c-0.6,0.8-2,1-3,1.2c-1.1,0.2-2.3,0.1-3.5,0.1c-154,0-308,0-462,0
		c-1.7,0-3.3,0-6,0c3.2-5.1,6-9.6,9-14c0.4-0.6,1.7-0.8,2.7-0.8c1.5-0.1,3,0,4.5,0c153.5,0,307,0,460.5,0C510.4,0,512.7,0,516,0z"/>
	<path class="st0" d="M1365.4,158.8c-4.6,7.6-7.8,15.7-17.4,18.9c-10.5,3.5-21,5.1-31.7,2.3c-3.9-1-7.8-3.8-10.8-6.6
		c-6.4-6.1-6.4-10.2-1.9-17.6c11.4-18.4,22.7-36.8,33.9-55.3c0.8-1.4,1.4-2.9,2.4-4.9c-8.7,0-16.7,0-25.9,0
		c4.8-7.7,9-14.7,13.5-21.5c0.6-0.9,2.5-1.3,3.8-1.3c6.2-0.1,12.3,0.2,18.5-0.2c2-0.1,4.6-1.6,5.8-3.3c3.5-4.8,6.3-10.1,9.8-14.9
		c1.1-1.5,3.1-3.2,4.8-3.3c10.8-0.3,21.6-0.2,33.3-0.2c-4.2,7.3-8.1,14-12.4,21.6c9.2,0,17.6,0,27.4,0c-4.9,7.8-9.1,14.6-13.6,21.1
		c-0.6,0.9-2.7,0.9-4.1,0.9c-6.3,0.1-12.7-0.2-19,0.1c-1.9,0.1-4.5,1.4-5.5,2.9c-10.9,17.1-21.6,34.4-32.2,51.7
		c-3.9,6.4-0.5,12.1,7.1,11.9C1355.9,161.1,1360.4,159.7,1365.4,158.8z"/>
	<path class="st0" d="M857.4,69.8c-1.5,3-2.6,5.2-4.2,8.3c1.7-0.5,2.4-0.5,2.8-0.9c12.6-9.7,27.5-7.3,41.7-7.2c6.1,0,8.6,3.8,8.2,10
		c-0.1,1-0.2,2-0.5,2.9c-3.9,14-4.6,14.6-19,14.6c-5,0-10,0-15,0c-1.1-5.9-4.4-7.9-9.9-5.5c-7.7,3.4-15.4,7-22.8,11
		c-2.5,1.4-4.5,4.3-6.1,6.8c-12.4,19.9-24.8,39.8-37,59.8c-2,3.3-3,7.2-4.6,11.2c-14.9,0-30.4,0-45.4,0c20.5-26.9,36.6-57,54.9-85.6
		c4.7-7.2,10.9-13.8,11.9-23.1c0.1-0.9,2.3-2.4,3.5-2.4C829.4,69.8,842.9,69.8,857.4,69.8z"/>
	<path class="st0" d="M164.3,24c-3.3,5.1-5.8,9.3-8.7,13.2c-0.7,1-2.6,1.5-3.9,1.5c-43.8,0.1-87.5,0.1-131.3,0c-0.5,0-0.9-0.2-2-0.4
		c2.7-4.4,5.2-8.5,8-12.5c0.7-1,2.5-1.7,3.7-1.8C74.4,24,118.7,24,164.3,24z"/>
	<path class="st0" d="M1014.1,144.5c-3.1,5-5.6,9.2-8.4,13.2c-0.6,0.9-2.2,1.4-3.4,1.4c-43.8,0.1-87.6,0.1-132.5,0.1
		c3.1-5,5.7-9.5,8.6-13.7c0.5-0.7,2.1-1,3.1-1C925.3,144.5,969.1,144.5,1014.1,144.5z"/>
	<path class="st0" d="M853.9,183.1c3.1-5,5.5-9.2,8.3-13.2c0.7-0.9,2.5-1.5,3.8-1.5c42.9-0.1,85.8-0.1,130.4-0.1
		c-3.2,2.8-5.4,4.8-7.7,6.5c-6.4,4.6-13,8.3-21.3,8.3C930,183.1,892.5,183.1,853.9,183.1z"/>
	<path class="st0" d="M948.7,38.5c2.8-4.5,5.2-8.6,7.9-12.4c0.8-1.1,2.7-2,4.1-2c40.9-0.1,81.8,0,122.7,0c0.3,0,0.6,0.2,1.7,0.5
		c-2.8,4.6-5.3,9.1-8.2,13.4c-0.4,0.7-2.1,0.8-3.2,0.8c-40.9,0-81.8,0-122.7,0C950.5,38.8,949.9,38.7,948.7,38.5z"/>
	<path class="st0" d="M1049.7,95.8c-3,5-5.3,9.1-7.9,12.8c-0.8,1.1-2.7,1.9-4.1,1.9c-36.1,0.1-72.2,0-108.4,0
		c-5.1,0-8.1-2.3-9.1-7.2c-1.2-5.7,0.2-7.5,6-7.5c39.1,0,78.2,0,117.4,0C1045.2,95.8,1046.8,95.8,1049.7,95.8z"/>
	<path class="st0" d="M923.2,86.1c3-4.8,5.5-9.2,8.4-13.3c0.5-0.8,2.4-0.9,3.6-0.9c35.1,0,70.3-0.1,105.4,0
		c8.2,0,12.2,3.7,12.1,10.5c-0.1,2.6-0.7,4.3-4,4.3c-41.1-0.1-82.2-0.1-123.4-0.1C925.1,86.6,924.7,86.4,923.2,86.1z"/>
	<path class="st0" d="M1096,0.8c-2.8,4.5-5.3,8.8-8.1,13c-0.5,0.7-1.9,1.1-2.9,1.1c-39.9,0-79.8,0-119.7-0.1c-0.1,0-0.3-0.1-1-0.6
		c7.1-6.8,14.4-13.6,24.3-13.8c35.2-0.6,70.5-0.3,105.7-0.3C1094.6,0.1,1095.1,0.4,1096,0.8z"/>
	<path class="st0" d="M75,119.6c-0.5,1.1-0.6,1.5-0.9,1.9c-7.5,12.9-7.5,12.9-22.3,12.9c-7.5,0-14.9,0-22.4-0.1
		c-0.3,0-0.6-0.1-1.8-0.4c3-4.7,5.8-9.3,8.8-13.6c0.5-0.7,2.1-0.8,3.2-0.8c10.3-0.1,20.6,0,30.9,0C71.8,119.6,73.1,119.6,75,119.6z"
		/>
	<path class="st0" d="M40.7,110.5c3.1-4.8,5.6-8.9,8.3-12.8c0.6-0.9,2-1.9,3-1.9c11.9-0.1,23.9-0.1,36.7-0.1
		c-3.2,5-5.7,9.4-8.6,13.5c-0.6,0.8-2.3,1.2-3.5,1.2C64.9,110.6,53.3,110.5,40.7,110.5z"/>
	<path class="st0" d="M115.5,48c-3.2,5.1-5.8,9.4-8.6,13.6c-0.5,0.7-2,1.1-3,1.1c-11.8,0.1-23.6,0-36.2,0c3.1-4.8,5.7-9.2,8.6-13.3
		c0.6-0.8,2.1-1.4,3.3-1.4C91.2,48,102.8,48,115.5,48z"/>
	<path class="st0" d="M102.3,71.9c-3.3,5-5.7,9.1-8.5,12.9c-0.7,1-2.5,1.7-3.8,1.7c-11.6,0.1-23.2,0.1-35.9,0.1
		c3.3-5.1,6.2-9.5,9.2-13.9c0.4-0.5,1.4-0.8,2.2-0.8C77.3,71.9,89.2,71.9,102.3,71.9z"/>
	<path class="st0" d="M13.4,159.2c3.1-5,5.8-9.3,8.5-13.5c0.4-0.7,1.6-1.2,2.5-1.2c12-0.1,24.1-0.1,36.9-0.1
		c-3.1,4.9-5.8,9.2-8.6,13.4c-0.4,0.7-1.5,1.3-2.3,1.3C38.4,159.2,26.4,159.2,13.4,159.2z"/>
	<path class="st0" d="M47.5,169c-2.8,4.4-5.3,8.5-8.1,12.3c-0.7,1-2.5,1.6-3.7,1.6c-11.5,0.1-23,0.1-35.6,0.1
		c3.3-5.2,6.1-9.9,9.1-14.4c0.3-0.4,1.6-0.3,2.4-0.3c11.3,0,22.6,0,33.9,0C46,168.4,46.5,168.7,47.5,169z"/>
	<path class="st0" d="M976.3,48c-3,4.9-5.4,9.1-8.1,13.2c-0.6,0.8-2.1,1.4-3.2,1.5c-9.3,0.1-18.6,0.1-29,0.1c3-4.9,5.6-9.3,8.3-13.7
		c0.4-0.6,1.4-1,2.1-1C956.1,48,965.8,48,976.3,48z"/>
	<path class="st0" d="M1034.9,119.6c-2.9,4.8-5.1,8.9-7.6,12.7c-0.7,1-2.4,2-3.6,2.1c-9.4,0.2-18.9,0.1-29.2,0.1
		c3.1-5,5.6-9.4,8.3-13.6c0.5-0.7,1.9-1.2,2.8-1.2C1015.1,119.6,1024.5,119.6,1034.9,119.6z"/>
</g>
</svg>
