<?xml version="1.0" encoding="utf-8"?>
<!-- Generator: Adobe Illustrator 24.0.1, SVG Export Plug-In . SVG Version: 6.00 Build 0)  -->
<svg version="1.1" id="Слой_1" xmlns="http://www.w3.org/2000/svg" xmlns:xlink="http://www.w3.org/1999/xlink" x="0px" y="0px"
	 viewBox="0 0 500 437.5" style="enable-background:new 0 0 500 437.5;" xml:space="preserve">
<style type="text/css">
	.st0{fill:#FFFFFF;}
	.st1{fill-rule:evenodd;clip-rule:evenodd;fill:#FFFFFF;}
</style>
<path class="st0" d="M209,0l-83.8,156L209,312h23.2l84.7-156l-54-100.5l-12.2,22.7l41.8,77.8l-72.1,134.2L148.4,156L232.2,0H209z
	 M257,0l-84.7,156l54,100.5l12.2-22.7L196.7,156l72.1-134.2L340.8,156L257,312h23.2L364,156L280.2,0H257z"/>
<path class="st1" d="M80,374.1v62.2h54.2v-12.5H96.1v-12.6h33.4v-12.4H96.1v-12.3h37.3v-12.4L80,374.1z"/>
<path class="st1" d="M0,374.1v62.2h16.1v-19.5h19.4l11.3,19.5h18.6l-13.5-22.9c6.6-3.6,11.3-10.2,11.3-18.3c0-16.6-12.6-21-22.9-21
	L0,374.1z M16.1,386.5H39c3,0,6.2,2.3,6.2,9.4c0,2.4-0.7,8.6-6.2,8.6H16.1V386.5z"/>
<path class="st0" d="M148.8,374.1v62.2H165v-40.1l35.6,40.1h16.1v-62.2h-16.1v39.8L165,374.1H148.8z"/>
<path class="st0" d="M253.3,374.1l-27.4,62.2h18.5l4.2-10.6h31.3l4.2,10.6h18.5l-27.4-62.2H253.3z M264.2,386l10.8,27.3h-21.6
	L264.2,386z"/>
<path class="st0" d="M391.7,374.1v62.2h51.6v-12.5h-35.5v-49.7H391.7z"/>
<path class="st0" d="M435.4,374.1v12.4h24.2v49.9h16.1v-49.9H500v-12.4L435.4,374.1z"/>
<path class="st0" d="M310.1,374.1v42.1c0,17.6,17.9,21.4,32.1,21.4s32.1-3.7,32.1-21.4v-42.1h-16.1v41.3c0,6.4-9.7,8.6-15.9,8.6
	s-15.9-2.2-15.9-8.6v-41.3H310.1z"/>
</svg>
