<?xml version="1.0" encoding="utf-8"?>
<!-- Generator: Adobe Illustrator 24.0.1, SVG Export Plug-In . SVG Version: 6.00 Build 0)  -->
<svg version="1.1" id="Слой_1" xmlns="http://www.w3.org/2000/svg" xmlns:xlink="http://www.w3.org/1999/xlink" x="0px" y="0px"
	 viewBox="0 0 531.7 69.6" style="enable-background:new 0 0 531.7 69.6;" xml:space="preserve">
<style type="text/css">
	.st0{fill:#E61D2B;}
	.st1{fill:#0D1D76;}
</style>
<g>
	<path class="st0" d="M460.9,16c8.5,0,16.8,0,25.2,0c0-1.1,0-2,0-3.1c-10.4,0-20.8,0-31.3,0c0-3,0-5.9,0-8.9c10.4,0,20.8,0,31.3,0
		c0-1.4,0-2.6,0-3.9c4.8,0,9.4,0,14.1,0c0,1.3,0,2.5,0,3.9c10.5,0,20.9,0,31.3,0c0,3,0,5.9,0,8.9c-10.4,0-20.8,0-31.3,0
		c0,1.1,0,2.1,0,3.2c8.4,0,16.7,0,25.2,0c0,10.7,0,21.2,0,31.9c-4.9,0-9.7,0-14.5,0c6.2,4.7,13.2,7.6,20.6,9.6c0,3.5,0,7,0,10.7
		c-11.7-2.8-21.9-8.3-31.3-15.8c0,5.3,0,10.4,0,15.6c-4.8,0-9.4,0-14.2,0c0-5.2,0-10.3,0-15.7c-4.8,3.8-9.6,7.1-14.9,9.8
		c-5.2,2.7-10.7,4.8-16.5,6.1c0-3.6,0-7.1,0-10.4c3.6-1.3,7.3-2.6,10.8-4s6.8-3.3,9.9-5.8c-4.8,0-9.7,0-14.6,0
		C460.9,37.2,460.9,26.7,460.9,16z M486.1,28.5c0-1.4,0-2.8,0-4.1c-4.1,0-8.1,0-12.1,0c0,1.4,0,2.8,0,4.1
		C478,28.5,482,28.5,486.1,28.5z M500.4,24.3c0,1.4,0,2.7,0,4.1c4.1,0,8.1,0,12.2,0c0-1.4,0-2.7,0-4.1
		C508.5,24.3,504.5,24.3,500.4,24.3z M486.1,35.4c-4.1,0-8.1,0-12.2,0c0,1.4,0,2.8,0,4.1c4.1,0,8.1,0,12.2,0
		C486.1,38.2,486.1,36.9,486.1,35.4z M512.6,35.5c-4.1,0-8.1,0-12.2,0c0,1.4,0,2.8,0,4.1c4.1,0,8.1,0,12.2,0
		C512.6,38.2,512.6,36.8,512.6,35.5z"/>
	<path class="st1" d="M115,40c0-12.2,0-24.1,0-36.1c6.1,0,12.1,0,18.2,0c0,21.8,0,43.7,0,65.6c-0.3,0-0.6,0.1-0.9,0.1
		c-5.5,0-10.9,0-16.4,0c-0.7,0-1.1-0.3-1.5-0.8C107.2,57.5,99.9,46.2,92.6,35c-0.2-0.4-0.5-0.7-0.9-1c0,11.8,0,23.6,0,35.5
		c-6.1,0-12.1,0-18.2,0c0-21.8,0-43.7,0-65.6c0.4,0,0.8,0,1.2,0c5.2,0,10.5,0,15.7,0c0.9,0,1.4,0.3,1.8,1c7.3,11.3,14.7,22.6,22,34
		C114.4,39.1,114.6,39.4,115,40z"/>
	<path class="st1" d="M268.3,3.9c0.4,0,0.7-0.1,1-0.1c5.4,0,10.8,0,16.1,0c0.7,0,1.1,0.3,1.5,0.8c7.4,11.4,14.7,22.7,22.1,34.1
		c0.2,0.3,0.5,0.7,0.9,1.3c0-12.2,0-24.1,0-36.1c6.1,0,12.1,0,18.2,0c0,21.8,0,43.7,0,65.6c-0.3,0-0.7,0-1,0c-5.4,0-10.8,0-16.2,0
		c-0.8,0-1.2-0.2-1.6-0.9c-7.3-11.3-14.6-22.5-21.9-33.8c-0.2-0.4-0.5-0.7-0.9-1c0,11.8,0,23.7,0,35.6c-6.2,0-12.1,0-18.2,0
		C268.3,47.6,268.3,25.8,268.3,3.9z"/>
	<path class="st1" d="M231.8,3.7c5.4,0.2,10.7,0.9,15.6,3.2c7.4,3.5,12.1,9.4,14.2,17.2c2.5,9,2.4,18.1-0.7,27
		c-3.5,10.2-10.9,16-21.6,17.8c-6.1,1-12.3,0.8-18.3-0.7c-8.9-2.3-14.8-8.1-18.3-16.5c-2.2-5.4-2.6-11.1-2.5-16.9
		c0.1-5,0.9-9.8,3-14.4c4-9,11-14.2,20.6-15.9C226.6,4.1,229.3,4,231.8,3.7z M244.6,34.7c-0.2-1.4-0.4-4.2-1-6.8
		c-1.1-5-6-9.3-10.8-9.7c-5.3-0.4-11,3.6-12.5,9.1c-1.7,6.1-1.7,12.3-0.2,18.4c1.3,5.1,4.5,8.4,9.9,9c5.9,0.7,11.4-1.7,13.3-8.4
		C244.3,43,244.5,39.5,244.6,34.7z"/>
	<path class="st1" d="M0,69.6c1.1-3.1,2.2-6.1,3.2-9C9.8,42.1,16.4,23.6,23,5.2c0.4-1,0.8-1.4,1.9-1.4c6.5,0.1,13.1,0,19.8,0
		c7.8,21.9,15.7,43.7,23.6,65.7c-0.8,0-1.4,0-2,0c-5.7,0-11.4,0-17.1,0c-0.9,0-1.3-0.2-1.5-1.1c-0.8-3-1.7-5.9-2.5-8.9
		c-0.2-0.7-0.5-1-1.3-0.9c-6.7,0-13.4,0-20.2,0c-0.7,0-1,0.2-1.2,0.9c-0.8,3.1-1.7,6.1-2.6,9.2c-0.1,0.3-0.5,0.8-0.8,0.8
		C12.9,69.6,6.5,69.6,0,69.6z M34,21.3c-0.1,0-0.2,0-0.3,0C31.5,29,29.3,36.6,27,44.4c4.6,0,9.1,0,13.8,0
		C38.5,36.6,36.3,28.9,34,21.3z"/>
	<path class="st0" d="M413.4,18.1c-1.7,2.2-3.3,4.3-5.1,6.7c12.4,0,24.6,0,36.8,0c0,3.2,0,6.2,0,9.4c-0.4,0-0.9,0.1-1.3,0.1
		c-3.2,0-6.3,0-9.5,0c-0.4,0-1,0.3-1.2,0.6c-2.5,5.9-6.1,10.9-10.8,15.3c-0.1,0.1-0.2,0.2-0.4,0.4c0.4,0.2,0.8,0.4,1.2,0.5
		c5.9,2.2,11.7,4.4,17.6,6.6c0.7,0.3,1,0.6,1,1.4c0,3.1,0,6.2,0,9.5c-0.5-0.2-0.8-0.3-1.2-0.4c-9.2-3.5-18.3-7-27.4-10.5
		c-0.6-0.2-1.1-0.3-1.7,0c-7.9,4.3-16.4,7-25.3,8.5c-4.5,0.8-9.1,1.2-13.6,1.7c-0.3,0-0.6,0-0.9,0c0-3.4,0-6.7,0-10.1
		c8.9-0.7,17.7-2.2,26.3-5.7c-7-2.4-13.8-4.7-20.7-7c2.8-3.6,5.6-7.2,8.5-11c-6,0-11.7,0-17.5,0c0-3.2,0-6.2,0-9.4
		c0.4,0,0.8,0,1.3,0c7.5,0,15,0,22.5,0c0.8,0,1.3-0.3,1.8-0.9c1.8-2.4,3.7-4.8,5.6-7.3c0.4-0.5,0.7-0.7,1.4-0.6
		C404.9,16.7,409,17.4,413.4,18.1z M420.2,34.2c-0.7,0-1,0-1.4,0c-4.6,0-9.3,0.2-13.9-0.1c-2.8-0.2-4.8,0.5-6.2,3.1
		c-0.9,1.5-2.1,2.8-3.2,4.3c4.6,1.5,9,3,13.4,4.5c0.3,0.1,0.8-0.1,1-0.3c3.4-2.5,6.3-5.3,8.7-8.8C419.1,36.1,419.5,35.2,420.2,34.2z
		"/>
	<path class="st1" d="M179.7,69.5c-6.5,0-12.9,0-19.4,0c0-16.5,0-33,0-49.5c-6.7,0-13.2,0-19.7,0c0-5.4,0-10.7,0-16
		c19.6,0,39.1,0,58.7,0c0,5.3,0,10.6,0,16c-6.4,0-12.9,0-19.6,0C179.7,36.5,179.7,53,179.7,69.5z"/>
	<path class="st0" d="M386.3,12.8c0,2.7,0,5.3,0,7.9c-4.9,0-9.8,0-14.8,0c0-0.3,0-0.7,0-1c0-4.9,0-9.7,0-14.6c0-1,0.2-1.2,1.2-1.2
		c8.2,0,16.4,0,24.5,0c0.4,0,0.9,0,1.4,0c0-1.3,0-2.6,0-3.9c5.3,0,10.6,0,15.9,0c0,1.3,0,2.5,0,3.9c9.1,0,18.1,0,27.1,0
		c0,5.7,0,11.2,0,16.9c-4.8,0-9.6,0-14.5,0c0-0.4-0.1-0.8-0.1-1.1c0-1.9-0.1-3.7,0-5.6c0-0.9-0.2-1.3-1.2-1.2c-3.3,0.1-6.6,0-9.9,0
		c-9.4,0-18.8,0-28.1,0C387.3,12.8,386.8,12.8,386.3,12.8z"/>
</g>
</svg>
