<?xml version="1.0" encoding="utf-8"?>
<!-- Generator: Adobe Illustrator 24.0.1, SVG Export Plug-In . SVG Version: 6.00 Build 0)  -->
<svg version="1.1" id="Слой_1" xmlns="http://www.w3.org/2000/svg" xmlns:xlink="http://www.w3.org/1999/xlink" x="0px" y="0px"
	 viewBox="0 0 106.7 90.6" style="enable-background:new 0 0 106.7 90.6;" xml:space="preserve">
<style type="text/css">
	.st0{fill:#10398D;}
	.st1{fill:#FFFFFF;}
</style>
<g>
	<g>
		<path class="st0" d="M22.1,67.6c-4.3-0.1-8.5-0.9-12.1-3.3c-2.3-1.5-3.9-3.6-4.6-6.2C5,56.6,4.6,55,4.6,53.4
			c-0.1-2.4,0.6-4.7,1.5-6.8C8,42,11,38,14.7,34.8c2-1.8,4.4-3,7-3.8c1.8-0.5,3.7-0.5,5.6-0.3c1.2,0.2,2.4,0.7,3.6,1.1
			c0.8,0.3,0.9,0.7,0.5,1.5c-3.8,6.5-7.6,13-11.3,19.5c-1.7,3-3.6,5.8-6.1,8.2c-0.8,0.8-1.7,1.5-2.6,2.3c-0.2,0.2-0.5,0.7-0.4,0.9
			c0.2,0.4,0.6,0.2,1,0.1c1.1-0.5,2.4-0.8,3.5-1.5c2.5-1.5,4.5-3.6,6-6.1c3.6-6.1,7.1-12.2,10.7-18.3c1.7-2.9,3.2-5.8,4.9-8.6
			c2.6-4.1,5.6-7.8,9.9-10.3c2.1-1.2,4.2-2.3,6.6-2.6c1.9-0.2,3.8-0.4,5.6-0.2c1.3,0.1,2.5,0.7,3.7,1.1c0.7,0.2,0.7,0.7,0.4,1.3
			c-2.2,3.9-4.4,7.7-6.7,11.6c-4.9,8.4-9.6,16.9-14.7,25.2c-3.1,5.1-7.6,8.7-13.2,10.8C26.5,67.3,24.3,67.6,22.1,67.6z"/>
		<path class="st0" d="M45.9,67.6c-4,0.1-7.5-1-10.9-2.5c-0.2-0.1-0.4-0.3-0.5-0.5c0.2-0.1,0.3-0.3,0.5-0.3c3.9-1,6.9-3.3,9.2-6.6
			c1.6-2.4,3.1-5,4.6-7.5c3.4-5.8,6.6-11.6,10-17.4c3.3-6,6.7-11.9,10.2-17.8c3.1-5.2,7.4-9,12.9-11.4c2.9-1.3,6-2.1,9.2-2.7
			C94.8,0.1,98.6,0,102.4,0c0.2,0,0.5,0.2,0.7,0.2c-0.1,0.2-0.2,0.4-0.4,0.5c-6.1,4.2-10.8,9.6-14.5,16
			c-5.1,8.9-10.3,17.8-15.5,26.6c-2.5,4.4-4.9,8.8-7.6,13.1c-3.1,4.8-7.5,8.2-12.9,10.1C50.1,67.3,47.9,67.7,45.9,67.6z"/>
	</g>
	<g>
		<path class="st1" d="M64.6,81c-0.1,0.4-0.2,0.8-0.4,1.2c-0.3,1-0.6,2-0.8,3c-0.3,1-0.5,2-0.8,3c-0.1,0.5-0.3,1-0.5,1.5
			c-0.2,0.6-1.1,1-1.7,0.8c-0.7-0.2-1.1-0.6-1.3-1.3c-0.2-0.9-0.5-1.8-0.7-2.7c-0.2-0.7-0.4-1.5-0.5-2.2c-0.2-0.8-0.4-1.5-0.6-2.3
			c-0.2-0.8-0.4-1.5-0.5-2.3c-0.1-0.2-0.1-0.5-0.2-0.7c-0.2-0.6,0.1-1.3,0.8-1.5c0.9-0.2,1.4,0.2,1.6,1.1c0.2,0.8,0.4,1.6,0.6,2.5
			c0.1,0.6,0.3,1.3,0.4,1.9c0.1,0.7,0.3,1.3,0.5,2c0.1,0.5,0.2,0.9,0.3,1.4h0.1c0.1-0.3,0.2-0.5,0.2-0.8c0.2-0.9,0.5-1.7,0.7-2.6
			c0.2-0.7,0.3-1.4,0.6-2.2c0.2-0.9,0.3-1.8,0.9-2.6c0.4-0.7,1-0.9,1.6-0.8s1,0.4,1.3,1s0.5,1.2,0.6,1.8c0.2,0.9,0.4,1.8,0.7,2.7
			c0.2,0.9,0.5,1.7,0.7,2.6c0.1,0.3,0.2,0.6,0.3,0.9h0.1c0.1-0.3,0.2-0.6,0.2-0.9c0.3-1.2,0.6-2.5,0.8-3.7c0.2-1,0.4-2,0.7-3
			c0.1-0.4,0.2-0.8,0.6-1c0.5-0.3,1-0.2,1.4,0s0.6,0.6,0.5,1.1s-0.2,1-0.3,1.5c-0.2,1-0.5,1.9-0.7,2.9c-0.3,1.1-0.5,2.2-0.8,3.3
			c-0.3,1.1-0.5,2.1-0.8,3.2c-0.2,0.7-0.9,1.2-1.8,1.1c-1-0.2-1.3-0.8-1.5-1.6c-0.3-1-0.5-2.1-0.8-3.1c-0.2-0.8-0.4-1.6-0.7-2.4
			C65.1,82.6,64.9,81.8,64.6,81C64.7,81,64.6,81,64.6,81z"/>
		<path class="st1" d="M31.5,84c0-1.7,0-3.4,0-5.2c0-0.7,0.5-1.3,1.2-1.3c2,0,4-0.1,6,0c1.5,0.1,2.6,0.9,3.1,2.4
			c0.4,1.3,0.2,2.7-0.8,3.6c-0.5,0.4-1,0.7-1.6,0.9c-0.1,0-0.2,0.1-0.3,0.2c0.1,0.1,0.1,0.2,0.2,0.3c1.3,1.1,2.2,2.5,2.9,4.1
			c0.3,0.7,0,1.4-0.6,1.5c-0.8,0.2-1.3,0.1-1.8-0.6s-0.9-1.5-1.4-2.3c-0.4-0.7-0.9-1.4-1.5-2c-0.7-0.6-1.5-0.8-2.4-0.7
			c-0.2,0-0.3,0.2-0.3,0.4c0,1.3,0,2.7,0,4c0,0.6-0.5,1.3-1.4,1.2c-0.8-0.1-1.3-0.8-1.3-1.4C31.5,87.4,31.5,85.7,31.5,84L31.5,84z
			 M34.1,81.3L34.1,81.3c0,0.5,0,0.9,0,1.4c0,0.4,0.1,0.4,0.4,0.4c0.8,0,1.7,0,2.5,0c0.5,0,1-0.1,1.4-0.4c0.9-0.6,1.1-1.7,0.4-2.5
			c-0.7-0.7-1.5-0.7-2.4-0.7c-0.3,0-0.5,0-0.8,0c-0.4,0-0.9,0-1.3,0c-0.2,0-0.3,0.1-0.3,0.3C34.2,80.3,34.1,80.8,34.1,81.3z"/>
		<path class="st1" d="M44.5,84c0-1.7,0-3.4,0-5.1c0-0.8,0.5-1.3,1.3-1.3c1.6,0,3.3,0,4.9,0c0.8,0,1.5,0.4,2.1,0.8
			c1.2,0.8,2,1.9,2.4,3.3c0.1,0.5,0.2,1,0.2,1.5c0,0.9,0,1.7-0.1,2.6c-0.1,1-0.6,1.9-1.2,2.7c-1,1.2-2.3,1.8-3.9,1.9
			c-1.5,0-2.9,0-4.4,0c-0.7,0-1.3-0.6-1.3-1.3C44.5,87.4,44.4,85.7,44.5,84L44.5,84z M47.1,84L47.1,84c0,1.3,0,2.7,0,4
			c0,0.3,0.1,0.4,0.4,0.4c0.7,0,1.4,0,2.1,0c0.3,0,0.6-0.1,0.9-0.1c1.3-0.3,2.3-1.8,2.3-3c0-0.8,0-1.7,0-2.5c0-0.2-0.1-0.5-0.1-0.7
			c-0.6-1.7-1.7-2.3-3.3-2.4c-0.6,0-1.2,0-1.8,0c-0.4,0-0.4,0.1-0.4,0.5C47.1,81.4,47.1,82.7,47.1,84z"/>
		<path class="st1" d="M23.2,84c0,1.8,0,3.5,0,5.3c0,0.7-0.5,1.2-1.2,1.3c-1,0.1-1.5-0.6-1.4-1.4c0-1.3,0-2.7,0-4
			c0-0.4-0.1-0.5-0.5-0.5c-1.5,0-3.1,0-4.6,0c-0.3,0-0.5,0.1-0.5,0.5c0,1.4,0,2.8,0,4.2c0,0.7-0.4,1.1-1.1,1.2
			c-0.9,0.1-1.5-0.5-1.5-1.4c0-3.5,0-6.9,0-10.4c0-0.8,0.5-1.4,1.3-1.4c0.7,0,1.3,0.5,1.3,1.2c0,1.1,0,2.3,0,3.4
			c0,0.4,0.1,0.5,0.5,0.5c1.5,0,3.1,0,4.6,0c0.4,0,0.5,0,0.5-0.5c0-1.1,0-2.3,0-3.4c0-0.7,0.3-1.1,1-1.3c0.8-0.2,1.3,0.2,1.5,0.8
			c0.1,0.1,0.1,0.3,0.1,0.4C23.2,80.4,23.2,82.2,23.2,84z"/>
		<path class="st1" d="M96.9,84.2c0-1.6,0-3.3,0-4.9c0-0.7,0.2-1.3,0.9-1.6c0.1,0,0.2-0.1,0.3-0.1c2.5,0,5,0,7.5,0
			c0.5,0,0.8,0.4,0.9,0.9c0.1,0.7-0.4,1-0.9,1.1c-0.1,0-0.2,0-0.3,0c-1.8,0-3.6,0-5.4,0c-0.4,0-0.4,0-0.4,0.4c0,0.8,0,1.6,0,2.3
			c0,0.3,0.1,0.4,0.4,0.4c1.7,0,3.3,0,5,0c0.4,0,0.8,0.1,1,0.5c0.3,0.7-0.1,1.4-0.8,1.4c-1.7,0-3.4,0-5.1,0c-0.4,0-0.4,0-0.4,0.4
			c0,0.9,0,1.8,0,2.7c0,0.5,0,0.5,0.5,0.5c1.8,0,3.7,0,5.5,0c0.4,0,0.9,0.1,1.1,0.6c0.4,0.7-0.1,1.5-0.9,1.5c-0.1,0-0.3,0-0.4,0
			c-2.3,0-4.6,0-6.9,0c-0.3,0-0.6,0-0.8-0.2c-0.4-0.2-0.6-0.6-0.6-1c0-0.7,0-1.5,0-2.2C96.9,86.1,96.9,85.1,96.9,84.2L96.9,84.2z"/>
		<path class="st1" d="M78.5,77.3c0.8,0,1.4,0.4,1.7,1.2c1.1,2.7,2.2,5.5,3.3,8.2c0.3,0.7,0.6,1.4,0.8,2.2c0.2,0.6-0.1,1.5-0.9,1.6
			c-0.7,0.1-1.1-0.1-1.4-0.7c-0.3-0.7-0.6-1.4-0.8-2c-0.1-0.3-0.3-0.4-0.6-0.4c-0.5,0-1,0-1.5,0c-1,0-2,0-3,0
			c-0.3,0-0.4,0.1-0.5,0.4c-0.3,0.7-0.6,1.4-0.9,2.2c-0.2,0.4-0.6,0.7-1.1,0.7s-1-0.4-1.2-0.8c-0.1-0.4-0.1-0.7,0-1.1
			c0.7-1.8,1.4-3.6,2.2-5.5c0.6-1.6,1.3-3.1,1.9-4.7C77.1,77.7,77.7,77.4,78.5,77.3z M78.5,85.4L78.5,85.4c0.5,0,1,0,1.5,0
			c0.3,0,0.4-0.1,0.3-0.4c-0.5-1.4-1-2.8-1.6-4.3c0-0.1-0.1-0.2-0.2-0.2c-0.1,0.1-0.2,0.1-0.2,0.2c-0.5,1.4-1,2.9-1.5,4.3
			c-0.1,0.3,0,0.4,0.3,0.4C77.5,85.4,78,85.4,78.5,85.4z"/>
		<path class="st1" d="M89.7,87.4c0.1-0.2,0.2-0.3,0.2-0.5c0.6-1.7,1.1-3.4,1.7-5.1c0.4-1.2,0.8-2.5,1.3-3.7
			c0.2-0.5,0.7-0.8,1.1-0.8c0.8,0.2,1.3,0.6,1.2,1.2c0,0.4-0.2,0.8-0.3,1.2c-0.5,1.4-1,2.8-1.6,4.2c-0.5,1.4-1,2.8-1.6,4.2
			c-0.1,0.4-0.3,0.8-0.4,1.2c-0.2,0.5-0.5,0.9-1.1,1.1c-1,0.3-1.9,0.1-2.4-1c-0.5-1.2-0.9-2.4-1.4-3.7c-0.6-1.8-1.3-3.5-1.9-5.3
			c-0.2-0.5-0.4-1-0.5-1.5c-0.2-0.7,0.2-1.4,0.9-1.6c0.8-0.2,1.3,0.1,1.5,0.9c0.5,1.5,1,3.1,1.5,4.6c0.4,1.3,0.9,2.6,1.3,3.9
			c0,0.1,0.1,0.3,0.2,0.4C89.7,87.4,89.7,87.4,89.7,87.4z"/>
		<path class="st1" d="M6.7,84.6c0,1.4,0,2.9,0,4.3c0,0.5-0.1,1.1-0.6,1.4c-0.7,0.5-1.8,0.3-2-0.8C4.1,89.3,4,89,4,88.8
			c0-2.8,0-5.7,0-8.5c0-0.5-0.1-0.6-0.6-0.6c-0.8,0-1.7,0-2.5,0c-0.5,0-0.9-0.3-1-0.7c-0.2-0.5,0-1,0.4-1.3c0.2-0.1,0.4-0.2,0.6-0.2
			c2.9,0,5.8,0,8.7,0c0.6,0,1,0.3,1.1,0.9c0.1,0.4-0.2,0.9-0.7,1.1c-0.1,0-0.3,0-0.4,0c-0.8,0-1.7,0-2.5,0c-0.4,0-0.5,0.1-0.5,0.5
			C6.7,81.7,6.7,83.2,6.7,84.6L6.7,84.6z"/>
		<path class="st1" d="M28.7,84c0,1.8,0,3.5,0,5.3c0,0.7-0.4,1.2-1.2,1.3c-0.5,0.1-1.1-0.3-1.3-0.9c-0.1-0.2-0.1-0.3-0.1-0.5
			c0-3.5,0-7,0-10.5c0-0.9,0.6-1.3,1.3-1.4c0.7-0.1,1.3,0.6,1.3,1.2C28.7,80.4,28.7,82.2,28.7,84L28.7,84z"/>
	</g>
</g>
</svg>
