<?xml version="1.0" encoding="utf-8"?>
<!-- Generator: Adobe Illustrator 24.0.1, SVG Export Plug-In . SVG Version: 6.00 Build 0)  -->
<svg version="1.1" id="Layer_1" xmlns="http://www.w3.org/2000/svg" xmlns:xlink="http://www.w3.org/1999/xlink" x="0px" y="0px"
	 viewBox="0 0 450 142.5" style="enable-background:new 0 0 450 142.5;" xml:space="preserve">
<style type="text/css">
	.st0{fill-rule:evenodd;clip-rule:evenodd;fill:#1CA3DD;}
	.st1{clip-path:url(#SVGID_2_);fill-rule:evenodd;clip-rule:evenodd;fill:#1CA3DD;}
	.st2{clip-path:url(#SVGID_4_);fill-rule:evenodd;clip-rule:evenodd;fill:#1CA3DD;}
	.st3{clip-path:url(#SVGID_6_);fill-rule:evenodd;clip-rule:evenodd;fill:#1CA3DD;}
	.st4{clip-path:url(#SVGID_8_);fill-rule:evenodd;clip-rule:evenodd;fill:#1CA3DD;}
</style>
<g>
	<path class="st0" d="M0.2,0.1c6,0,12.1,0,18.1,0c0,9.2,0,18.4,0,27.6c7.5,0,15,0,22.4,0c0.3-8.9,0-18.5,0.1-27.6c6,0,12.1,0,18.1,0
		c0,23.2,0,46.3,0,69.5c-6,0-12.1,0-18.1,0c0-9.4,0-18.9,0-28.3c-7.2-0.3-15,0-22.4-0.1c-0.3,9.2,0,19-0.1,28.5
		c-6.1,0-12.2,0-18.3,0c0-23,0-46,0-69.1C0,0.3,0,0.1,0.2,0.1z"/>
	<path class="st0" d="M64.7,0.1c7,0,13.9,0,20.9,0c5.2,9.4,9.7,19.5,14.7,29.2c5.2-9.6,9.9-19.6,15.1-29.2c6.2,0,12.4,0,18.6,0
		c-8.5,14.8-17.2,29.4-25.8,44c0,8.5,0,17,0,25.5c-6.1,0-12.2,0-18.3,0c0-6.5,0-12.5,0-19c0-2.1,0.3-4.3,0-6.2c-0.3-1.5-2-3.8-3-5.6
		C79.5,26,71.7,12.7,64.7,0.1z"/>
	<path class="st0" d="M140.1,0.1c6,0,12.1,0,18.1,0c0,8.8,0,18,0,27.6c0,9.3-1.1,19.4,2.6,24.9c2.9,4.3,11,7.1,17.3,3.7
		c2.1-1.1,3.9-2.9,5-5.2c2.8-5.8,1.7-16.1,1.7-24.8c0-9.5,0-18.3,0-26.3c6.1,0,12.2,0,18.3,0c0,8.6,0,17.1,0,25.6
		c0,8.7,0.8,17.4-0.7,24.9C199.6,64.1,188.2,71,171.7,71c-16.4,0-28.1-6.6-31.1-20.1c-1.6-7.4-0.7-16.4-0.7-24.9
		c0-8.6,0-16.9,0-25.5C139.9,0.3,139.9,0.1,140.1,0.1z"/>
	<path class="st0" d="M213.6,0.1c8.5,0,17,0,25.5,0c7.3,17.3,14.7,34.6,22.2,51.8c0.7-16.7,0.1-34.6,0.3-51.8c5.5,0,10.9,0,16.4,0
		c0,23.2,0,46.3,0,69.5c-8.4,0-16.8,0-25.2,0c-7.9-17.4-14.9-35.7-22.7-53.2c-0.3,17.5,0,35.5-0.1,53.2c-5.5,0-10.9,0-16.4,0
		c0-23,0-46,0-69.1C213.4,0.3,213.4,0.1,213.6,0.1z"/>
	<g>
		<g>
			<path id="SVGID_9_" class="st0" d="M289,0.1c17.1,0.3,35.1-1.5,47.1,3.2c12,4.7,18.5,15,18.4,31.7c-0.1,16.7-6.4,27-18.6,31.7
				c-12,4.6-30.1,2.6-47.1,3c0-23,0-46,0-69.1C288.8,0.3,288.8,0.1,289,0.1z M307.1,13.9c0,14.1,0,28.2,0,42.3c10,0.3,18,0.3,23-4.7
				c6.2-6.2,6.9-23.2,1.7-31.1c-4.6-7-13.5-7.2-24.6-6.9C307.1,13.5,307.1,13.7,307.1,13.9z"/>
		</g>
		<g>
			<defs>
				<path id="SVGID_1_" d="M289,0.1c17.1,0.3,35.1-1.5,47.1,3.2c12,4.7,18.5,15,18.4,31.7c-0.1,16.7-6.4,27-18.6,31.7
					c-12,4.6-30.1,2.6-47.1,3c0-23,0-46,0-69.1C288.8,0.3,288.8,0.1,289,0.1z M307.1,13.9c0,14.1,0,28.2,0,42.3
					c10,0.3,18,0.3,23-4.7c6.2-6.2,6.9-23.2,1.7-31.1c-4.6-7-13.5-7.2-24.6-6.9C307.1,13.5,307.1,13.7,307.1,13.9z"/>
			</defs>
			<use xlink:href="#SVGID_1_"  style="overflow:visible;fill:#1CA3DD;"/>
			<clipPath id="SVGID_2_">
				<use xlink:href="#SVGID_1_"  style="overflow:visible;"/>
			</clipPath>
			<path class="st1" d="M307.3,13.5c11.1-0.3,20-0.1,24.6,6.9c5.1,7.9,4.5,24.9-1.7,31.1c-5,5-13,5-23,4.7c0-14.1,0-28.2,0-42.3
				C307.1,13.7,307.1,13.5,307.3,13.5z"/>
		</g>
	</g>
	<path class="st0" d="M400.8,0.1h-22.2c-9,22.9-17.5,46.3-26.2,69.5h18.1c1.6-4.4,2.7-9.3,4.5-13.5h26.8c1.4,4.5,2.9,8.9,4.3,13.5
		h20.6C418.2,46.3,409.3,23.4,400.8,0.1z M379.6,42.7c2.9-9.8,5.8-19.6,9.1-29.1c3.1,9.4,5.7,19.4,8.6,29.1H379.6z"/>
	<path class="st0" d="M431.9,0.1c6,0,12.1,0,18.1,0c0,23.2,0,46.3,0,69.5c-6.1,0-12.2,0-18.3,0c0-23,0-46,0-69.1
		C431.7,0.3,431.7,0.1,431.9,0.1z"/>
	<path class="st0" d="M352.4,81c0,3.1,0,6.1,0,9.2c-4.1,0-8.2,0-12.4,0c0.1-3-0.2-6.4,0.1-9.2C344.3,81,348.4,81,352.4,81z"/>
	<path class="st0" d="M307.1,83c4,0,8.1,0,12.1,0c0,3.7,0,7.5,0,11.2c4.7,0,9.4,0,14.1,0c0,3,0,6,0,9.1c-4.7,0-9.3,0-14,0
		c-0.3,3.4-0.1,8.1-0.1,13c0,6.7-1.1,13.9,3.5,15.5c2,0.7,5.2,0.1,8.2,0.3c0,3,0,6,0,9.1c-13.3,0.8-23-0.4-23.9-12.2
		c-0.5-6.7,0-14.7,0-22.7c0-8,0-16,0-22.7C307,83.2,306.9,83,307.1,83z"/>
	<path class="st0" d="M42.9,111.3c-4.1,0-8.2,0-12.2,0c-0.3-4.1-1.6-7.1-4.6-8.2c-2.4-0.8-7.2-0.4-8.8,0.1
		c-4.5,1.7-5.3,6.1-5.3,12.7c0,7.5-0.3,13.9,4.7,16.1c2.7,1.2,6.6,1.4,9.6,0c2.9-1.4,3.9-3.7,4.5-8.3c4,0,8.1,0,12.1,0
		c-0.5,13.6-9.1,19.5-23.6,18.6c-4.2-0.3-8.4-1-11.4-2.7c-5.5-3.2-7.8-9.5-7.9-17.1c-0.1-8.5-0.3-16.5,3.2-21.7
		c2.8-4.3,8.3-6.9,14.5-7.3C33.2,92.3,42.2,97.4,42.9,111.3z"/>
	<g>
		<g>
			<path id="SVGID_11_" class="st0" d="M66,93.5c10.6-0.9,18.7,1.4,22.4,7.3c2.4,3.7,3.2,10.2,3.2,16.5c0,8.5-0.7,15.5-5,19.9
				c-8,8.1-29.5,6.6-35-2.4c-1.6-2.6-2.8-6.3-3-10.2c-0.5-7.8-0.4-17.7,2.4-22.7C53.9,96.6,59,94,66,93.5z M60.5,111.6
				c-0.4,5.7-0.6,14.2,1.3,17.4c2,3.5,8.8,5.2,13.4,2.9c4.4-2.3,4.3-7.3,4.3-14c0-2.5,0.2-5,0-7.1c-0.7-6.5-5-9-12.2-7.9
				C63,103.6,60.8,107,60.5,111.6z"/>
		</g>
		<g>
			<defs>
				<path id="SVGID_3_" d="M66,93.5c10.6-0.9,18.7,1.4,22.4,7.3c2.4,3.7,3.2,10.2,3.2,16.5c0,8.5-0.7,15.5-5,19.9
					c-8,8.1-29.5,6.6-35-2.4c-1.6-2.6-2.8-6.3-3-10.2c-0.5-7.8-0.4-17.7,2.4-22.7C53.9,96.6,59,94,66,93.5z M60.5,111.6
					c-0.4,5.7-0.6,14.2,1.3,17.4c2,3.5,8.8,5.2,13.4,2.9c4.4-2.3,4.3-7.3,4.3-14c0-2.5,0.2-5,0-7.1c-0.7-6.5-5-9-12.2-7.9
					C63,103.6,60.8,107,60.5,111.6z"/>
			</defs>
			<use xlink:href="#SVGID_3_"  style="overflow:visible;fill:#1CA3DD;"/>
			<clipPath id="SVGID_4_">
				<use xlink:href="#SVGID_3_"  style="overflow:visible;"/>
			</clipPath>
			<path class="st2" d="M67.2,103c7.2-1.1,11.6,1.4,12.2,7.9c0.2,2,0,4.6,0,7.1c0,6.7,0.1,11.7-4.3,14c-4.6,2.4-11.3,0.6-13.4-2.9
				c-1.9-3.2-1.7-11.7-1.3-17.4C60.8,107,63,103.6,67.2,103z"/>
		</g>
	</g>
	<g>
		<g>
			<path id="SVGID_13_" class="st0" d="M196.9,93.5c10.5-0.9,18.3,1.4,22.2,6.9c2.5,3.5,3.3,9.2,3.3,15.3c0,5.9,0.1,12.4-1.7,16.7
				c-2.4,5.8-8.2,9.3-16,9.9c-7.1,0.6-15.8-0.5-20.4-5.2c-3.6-3.7-4.9-10-4.9-17.4c0-7.5,0.5-14.8,3.3-19
				C185.5,96.4,190.1,94,196.9,93.5z M191.4,117.9c0,4.7-0.2,8.8,1.4,11.4c2.5,3.8,9.6,5,14,2.2c3.7-2.4,3.6-7.2,3.6-13.5
				c0-2.4,0.2-4.7,0-6.9c-0.6-6.2-4.8-9.2-12.2-8.1C191.4,104,191.4,110,191.4,117.9z"/>
		</g>
		<g>
			<defs>
				<path id="SVGID_5_" d="M196.9,93.5c10.5-0.9,18.3,1.4,22.2,6.9c2.5,3.5,3.3,9.2,3.3,15.3c0,5.9,0.1,12.4-1.7,16.7
					c-2.4,5.8-8.2,9.3-16,9.9c-7.1,0.6-15.8-0.5-20.4-5.2c-3.6-3.7-4.9-10-4.9-17.4c0-7.5,0.5-14.8,3.3-19
					C185.5,96.4,190.1,94,196.9,93.5z M191.4,117.9c0,4.7-0.2,8.8,1.4,11.4c2.5,3.8,9.6,5,14,2.2c3.7-2.4,3.6-7.2,3.6-13.5
					c0-2.4,0.2-4.7,0-6.9c-0.6-6.2-4.8-9.2-12.2-8.1C191.4,104,191.4,110,191.4,117.9z"/>
			</defs>
			<use xlink:href="#SVGID_5_"  style="overflow:visible;fill:#1CA3DD;"/>
			<clipPath id="SVGID_6_">
				<use xlink:href="#SVGID_5_"  style="overflow:visible;"/>
			</clipPath>
			<path class="st3" d="M198.2,103c7.4-1.1,11.6,1.8,12.2,8.1c0.2,2.3,0,4.5,0,6.9c0,6.3,0.1,11.1-3.6,13.5
				c-4.3,2.8-11.5,1.7-14-2.2c-1.6-2.5-1.4-6.6-1.4-11.4C191.4,110,191.4,104,198.2,103z"/>
		</g>
	</g>
	<g>
		<g>
			<path id="SVGID_15_" class="st0" d="M376.3,93.5c16.4-1.3,25.1,4.3,25.6,20c0.3,7.8,0.1,16.3-3.2,21.4
				c-3.3,5.2-10.8,7.8-19.4,7.5c-7.6-0.3-14-2.3-17.3-7.3c-3.1-4.7-3.2-12.1-3.2-19.4c0-8.2,1.1-13.4,5.2-17.4
				C366.8,95.6,371.1,93.9,376.3,93.5z M370.9,111.5c-0.4,5.7-0.6,14.3,1.3,17.6c2.1,3.6,9,5.1,13.4,2.9c4.5-2.3,4.3-7.2,4.3-14
				c0-2.5,0.2-5.1,0-7.2c-0.7-6.2-5-8.9-12.2-7.8C373.3,103.6,371.2,107,370.9,111.5z"/>
		</g>
		<g>
			<defs>
				<path id="SVGID_7_" d="M376.3,93.5c16.4-1.3,25.1,4.3,25.6,20c0.3,7.8,0.1,16.3-3.2,21.4c-3.3,5.2-10.8,7.8-19.4,7.5
					c-7.6-0.3-14-2.3-17.3-7.3c-3.1-4.7-3.2-12.1-3.2-19.4c0-8.2,1.1-13.4,5.2-17.4C366.8,95.6,371.1,93.9,376.3,93.5z M370.9,111.5
					c-0.4,5.7-0.6,14.3,1.3,17.6c2.1,3.6,9,5.1,13.4,2.9c4.5-2.3,4.3-7.2,4.3-14c0-2.5,0.2-5.1,0-7.2c-0.7-6.2-5-8.9-12.2-7.8
					C373.3,103.6,371.2,107,370.9,111.5z"/>
			</defs>
			<use xlink:href="#SVGID_7_"  style="overflow:visible;fill:#1CA3DD;"/>
			<clipPath id="SVGID_8_">
				<use xlink:href="#SVGID_7_"  style="overflow:visible;"/>
			</clipPath>
			<path class="st4" d="M377.6,103c7.2-1.1,11.6,1.6,12.2,7.8c0.2,2.1,0,4.7,0,7.2c0,6.8,0.2,11.7-4.3,14
				c-4.4,2.3-11.3,0.7-13.4-2.9c-1.9-3.2-1.7-11.8-1.3-17.6C371.2,107,373.3,103.6,377.6,103z"/>
		</g>
	</g>
	<path class="st0" d="M127,94.2c0,3,0,6,0,9.1c-8,0.1-16.1-1.6-16.8,5.9c-0.5,4.6,0,10.4,0,16c0,5.7,0,11.2,0,16
		c-4.1,0-8.2,0-12.2,0c0.5-10.6-0.7-24.3,0-34.1c0.5-7.5,5.4-12.3,12.9-12.8C116.2,93.8,121.3,94.5,127,94.2z"/>
	<path class="st0" d="M171.3,100c-6-8.8-23.5-4.9-37.1-5.8c-0.2,0-0.2,0.2-0.1,0.4v46.5h12.2c0.1-3.5-0.2-7.5,0.1-10.8
		c11.8,0.5,21.8,0.3,25.6-6.9C174.8,118,174.2,104.2,171.3,100z M159.6,120.1c-2.8,2.4-8.4,1.1-13.4,1.4v-18c0-0.2,0-0.4,0.1-0.4
		c5.7,0.4,11.9-1.4,14.2,2.6C162.5,108.9,162,118.1,159.6,120.1z"/>
	<path class="st0" d="M258,94.2c0,3,0,6,0,9.1c-8,0.2-16.1-1.7-16.8,5.9c-0.5,4.6,0,10.3,0,16c0,5.6,0,11.2,0,16
		c-4.1,0-8.2,0-12.2,0c0.5-11.2-0.7-24.1,0-34.2c0.5-7.4,5.5-12.1,12.9-12.7C247.3,93.8,252.4,94.5,258,94.2z"/>
	<path class="st0" d="M299.9,107c-0.3-3.6-1.7-7.1-3.7-9.1c-6-5.9-20.2-3.1-31.9-3.7c-0.2,0-0.2,0.2-0.1,0.4v8.6
		c9.1,1.3,25.1-4.3,23.6,7.6c-8.9,0.6-18-1.7-23.6,2.5c-3.7,2.7-4.3,10.9-3.6,18.3c1,9.9,9.8,9.5,20.4,9.5h19
		C299.4,130.6,300.7,117.1,299.9,107z M287.7,132c-5.6-0.5-13.5,1.5-15.5-2.3c-1.1-2-0.9-5.9,0-7.5c2.1-3.8,10.3-1.5,15.5-2.2V132z"
		/>
	<path class="st0" d="M340.2,94.2c4.1,0,8.2,0,12.2,0c0,15.6,0,31.3,0,46.9c-4.1,0-8.2,0-12.4,0c0-15.5,0-31,0-46.5
		C340.1,94.4,340,94.2,340.2,94.2z"/>
	<path class="st0" d="M408.3,94.2c12.3,1.1,27-2.4,35,2.4c1.6,1,3.1,2.6,4.2,4.2c3,4.6,2.4,11.3,2.4,19c0,7.2,0,14.8,0,21.3
		c-4.3,0-8.6,0-13,0c0-4.9,0-11.2,0-17.6c0-7.4,1.4-16.8-2.9-19.4c-2.9-1.7-8-0.7-12.8-1c-0.3,12.4,0,25.4-0.1,38c-4.3,0-8.6,0-13,0
		c0-15.5,0-31,0-46.5C408.1,94.4,408.1,94.2,408.3,94.2z"/>
</g>
</svg>
